<?xml version="1.0" standalone="no"?>
<!DOCTYPE svg PUBLIC "-//W3C//DTD SVG 20010904//EN"
 "http://www.w3.org/TR/2001/REC-SVG-20010904/DTD/svg10.dtd">
<svg version="1.0" xmlns="http://www.w3.org/2000/svg"
 width="512.000000pt" height="512.000000pt" viewBox="0 0 512.000000 512.000000"
 preserveAspectRatio="xMidYMid meet">
<metadata>
Created by potrace 1.11, written by Peter Selinger 2001-2013
</metadata>
<g transform="translate(0.000000,512.000000) scale(0.100000,-0.100000)"
fill="#000000" stroke="none">
<path d="M1890 4646 c-159 -34 -284 -95 -451 -218 -69 -51 -195 -138 -280
-193 -464 -299 -524 -374 -575 -717 -19 -128 -10 -191 38 -262 l30 -47 -84
-87 c-92 -96 -153 -188 -201 -309 -30 -74 -32 -85 -32 -213 1 -133 1 -137 43
-256 23 -67 42 -133 42 -148 0 -42 -39 -184 -66 -244 -49 -107 -56 -198 -25
-327 50 -207 217 -457 349 -522 56 -27 61 -28 232 -28 174 0 175 0 235 -30 72
-36 87 -60 121 -186 53 -199 139 -286 344 -351 61 -19 96 -23 190 -22 105 0
124 4 225 38 275 93 400 196 439 366 11 44 25 72 52 103 21 23 40 43 44 45 15
6 82 -101 96 -154 44 -170 161 -266 439 -361 101 -34 119 -37 225 -37 94 -1
129 3 190 22 102 33 164 66 220 118 61 57 94 120 126 240 14 54 36 112 47 128
11 16 45 40 76 55 54 25 63 26 231 26 171 0 176 1 232 28 67 33 134 102 212
221 156 233 194 449 112 628 -27 60 -66 202 -66 244 0 15 19 81 42 148 42 119
42 123 43 256 0 128 -2 139 -32 213 -48 121 -109 213 -201 309 l-84 87 30 47
c48 71 57 134 38 262 -51 346 -95 401 -573 715 -120 79 -261 176 -313 216
-239 183 -541 258 -713 178 -104 -48 -185 -135 -247 -262 -67 -138 -78 -200
-102 -590 -12 -192 -24 -353 -28 -357 -3 -4 -14 124 -23 285 -24 385 -32 454
-68 561 -39 119 -93 207 -168 279 -83 80 -150 109 -260 113 -49 2 -114 -3
-151 -10z m235 -170 c28 -12 70 -44 94 -70 41 -45 111 -177 111 -210 0 -20
-103 -57 -165 -59 -62 -1 -88 13 -121 64 -42 68 -107 71 -143 8 -12 -22 -13
-31 -1 -58 26 -63 68 -108 126 -137 48 -23 69 -28 133 -27 46 1 101 9 139 21
l62 20 5 -22 c9 -42 99 -1606 93 -1612 -2 -1 -26 27 -53 64 -72 95 -119 125
-204 130 -128 7 -194 -43 -229 -176 -11 -41 -24 -78 -30 -84 -19 -19 -314 145
-394 220 -67 62 -68 73 -13 135 104 118 225 442 225 602 0 55 -17 145 -35 188
-5 13 -2 17 13 17 11 0 85 20 163 45 148 47 189 54 189 33 0 -25 -47 -114
-115 -218 -99 -152 -117 -196 -123 -300 -6 -108 12 -169 70 -235 48 -55 117
-92 206 -110 55 -12 70 -12 98 0 36 15 51 48 40 90 -8 31 -32 44 -103 55 -116
19 -169 84 -160 195 5 70 22 106 112 244 117 178 146 276 107 364 -42 94 -123
102 -341 32 -78 -25 -144 -45 -147 -45 -4 0 19 27 50 60 98 106 109 216 35
332 -30 47 -90 103 -136 127 -56 29 -113 -2 -113 -61 0 -28 10 -42 65 -91 106
-95 106 -137 -1 -242 -73 -71 -104 -121 -104 -169 0 -14 18 -79 40 -145 24
-72 40 -138 40 -166 0 -132 -117 -430 -204 -521 -43 -44 -46 -46 -88 -39 -138
22 -288 83 -365 149 -23 20 -55 59 -72 86 -35 57 -64 69 -109 46 -70 -36 -40
-130 73 -234 102 -94 291 -175 456 -197 37 -5 48 -11 58 -32 35 -76 130 -159
279 -241 94 -52 148 -109 177 -187 22 -56 12 -71 -53 -81 -62 -9 -116 -29
-153 -55 -17 -12 -32 -20 -34 -18 -1 2 -20 49 -40 104 -59 159 -95 225 -155
286 -117 118 -288 121 -468 9 -141 -89 -193 -150 -173 -203 22 -59 84 -62 144
-9 138 126 279 173 362 122 19 -11 47 -42 64 -68 28 -44 124 -282 117 -289 -2
-2 -25 1 -50 8 -26 6 -78 9 -116 7 -126 -9 -184 -73 -211 -233 -15 -88 -30
-119 -68 -135 -40 -16 -54 -10 -95 47 -85 117 -316 573 -316 624 0 10 -18 73
-41 140 -45 136 -57 228 -40 309 26 120 131 286 243 383 l57 49 153 3 c158 2
271 20 353 55 53 23 74 64 53 107 -21 43 -55 50 -134 24 -79 -25 -188 -40
-287 -41 -75 0 -131 22 -173 67 -31 33 -32 102 -4 243 42 220 77 257 512 543
114 74 246 166 295 203 201 154 439 221 568 160z m1111 4 c110 -28 224 -85
327 -164 49 -37 181 -129 295 -203 435 -286 470 -323 512 -543 28 -141 27
-210 -4 -243 -42 -45 -98 -67 -173 -67 -99 1 -208 16 -287 41 -78 25 -111 20
-135 -22 -12 -22 -13 -31 -1 -59 26 -63 175 -102 408 -106 l153 -2 55 -48 c78
-66 146 -155 193 -249 76 -155 78 -245 12 -444 -23 -67 -41 -130 -41 -140 0
-51 -231 -507 -316 -624 -41 -57 -55 -63 -95 -47 -38 16 -53 47 -68 135 -27
160 -85 224 -211 233 -38 2 -90 -1 -116 -7 -25 -7 -48 -10 -50 -8 -2 2 17 57
42 123 76 199 123 254 222 254 79 0 179 -51 279 -142 51 -46 92 -50 128 -13
29 28 31 45 11 83 -29 56 -189 167 -291 202 -71 24 -173 26 -238 4 -60 -20
-127 -81 -170 -152 -19 -31 -56 -113 -82 -182 -26 -69 -49 -127 -50 -129 -2
-2 -17 6 -34 18 -37 26 -91 46 -153 55 -65 10 -75 25 -53 81 29 78 83 135 177
187 149 82 244 165 279 241 10 21 21 27 58 32 165 22 354 103 456 197 113 104
143 198 73 234 -45 23 -74 11 -109 -46 -17 -27 -49 -66 -72 -86 -77 -66 -227
-127 -365 -149 -42 -7 -45 -5 -87 39 -88 92 -204 389 -205 524 0 25 17 96 40
163 22 66 40 131 40 145 0 48 -31 98 -104 169 -107 105 -107 147 -1 242 55 49
65 63 65 91 0 41 -30 72 -72 72 -43 0 -129 -66 -173 -134 -79 -118 -68 -228
32 -336 64 -69 62 -70 -67 -24 -114 40 -176 55 -232 55 -75 1 -115 -21 -140
-78 -39 -88 -10 -186 107 -364 90 -138 107 -174 112 -244 10 -114 -44 -176
-168 -196 -71 -11 -99 -33 -99 -78 0 -62 51 -85 146 -65 85 17 154 55 202 109
57 65 75 126 70 234 -5 103 -23 147 -123 301 -68 104 -115 193 -115 218 0 21
45 13 190 -33 77 -25 150 -45 161 -45 16 0 19 -4 14 -17 -19 -51 -35 -134 -35
-188 0 -163 122 -485 230 -607 22 -26 40 -51 40 -57 0 -19 -72 -92 -130 -131
-98 -67 -310 -174 -322 -162 -5 5 -19 43 -30 84 -35 132 -101 183 -228 176
-96 -5 -143 -40 -243 -178 -17 -24 -17 -22 -12 80 40 762 87 1517 95 1529 3 5
31 1 65 -11 116 -40 239 -25 321 37 40 30 88 123 78 151 -14 38 -36 54 -75 54
-30 0 -42 -6 -56 -26 -10 -15 -31 -40 -46 -57 -27 -29 -30 -29 -100 -25 -40 3
-91 13 -115 23 -39 16 -43 20 -37 44 13 54 64 148 106 195 83 94 179 116 335
76z m-977 -2076 c51 -59 119 -197 173 -355 l43 -124 0 -345 c0 -339 0 -346
-24 -403 -29 -73 -119 -168 -188 -199 -135 -61 -282 -3 -465 183 -107 109
-130 118 -173 74 -48 -47 -25 -95 106 -221 159 -152 318 -224 464 -210 l60 5
-30 -25 c-70 -60 -288 -142 -400 -151 -154 -12 -330 61 -380 157 -8 15 -23 64
-35 111 -38 148 -71 203 -154 256 -87 56 -137 66 -321 67 -142 1 -175 4 -202
19 -66 36 -189 217 -241 355 -37 100 -37 216 1 295 l28 57 64 -128 c113 -227
237 -390 310 -408 40 -10 118 2 163 25 74 38 122 123 137 246 11 84 38 110
108 102 71 -9 189 -69 226 -115 17 -20 50 -62 74 -92 77 -98 198 -138 353
-118 114 14 169 7 204 -27 32 -31 60 -101 60 -150 0 -47 34 -85 76 -85 74 0
95 76 53 202 -31 95 -76 150 -154 189 l-66 32 -122 -7 c-152 -10 -181 -9 -222
9 -56 23 -135 129 -135 181 0 42 56 76 146 88 110 16 174 84 173 186 0 30 -4
64 -8 75 -7 17 -1 23 32 40 59 30 94 79 113 160 19 78 33 95 80 95 26 0 40 -9
73 -46z m723 34 c8 -7 23 -44 32 -83 19 -81 54 -130 113 -160 33 -17 39 -23
32 -40 -4 -11 -8 -44 -8 -74 -2 -103 61 -170 174 -186 90 -14 145 -47 145 -89
0 -27 -37 -96 -73 -136 -54 -60 -94 -67 -289 -55 l-117 8 -66 -32 c-78 -39
-123 -94 -154 -189 -42 -125 -21 -202 52 -202 46 0 69 28 78 95 10 73 36 125
79 153 33 23 40 24 135 16 242 -19 326 10 429 150 31 41 68 83 83 94 78 55
180 88 237 78 39 -7 48 -24 66 -126 14 -76 42 -145 73 -178 47 -51 156 -84
222 -68 73 18 198 182 312 410 l64 129 26 -54 c63 -134 25 -315 -107 -509
-109 -160 -119 -165 -330 -165 -146 0 -172 -3 -230 -23 -122 -43 -196 -116
-226 -220 -51 -183 -56 -194 -95 -237 -68 -73 -212 -121 -339 -112 -116 8
-335 90 -405 151 l-30 26 60 -6 c145 -14 304 58 464 210 131 126 154 174 106
221 -42 43 -69 34 -149 -51 -185 -198 -352 -269 -489 -206 -69 31 -159 127
-188 199 -24 57 -24 64 -24 403 l0 345 43 124 c85 248 179 401 246 401 18 0
39 -6 48 -12z"/>
</g>
</svg>
