<?xml version="1.0" encoding="UTF-8"?>
<svg width="134px" height="106px" viewBox="0 0 134 106" version="1.1" xmlns="http://www.w3.org/2000/svg" xmlns:xlink="http://www.w3.org/1999/xlink">
    <!-- Generator: Sketch 63.1 (92452) - https://sketch.com -->
    <title>inveni_icon_liderazgoygestion@</title>
    <desc>Created with Sketch.</desc>
    <defs>
        <polygon id="path-1" points="6.09090909e-05 0.0964727273 133.580336 0.0964727273 133.580336 6.99974545 6.09090909e-05 6.99974545"></polygon>
    </defs>
    <g id="Symbols" stroke="none" stroke-width="1" fill="none" fill-rule="evenodd">
        <g id="inveni_servicios_article2" transform="translate(-170.000000, -43.000000)">
            <g id="inveni_icon_liderazgoygestion" transform="translate(170.000000, 43.000000)">
                <g id="Group-20">
                    <g id="Group-3" transform="translate(0.000000, 99.000000)">
                        <mask id="mask-2" fill="white">
                            <use xlink:href="#path-1"></use>
                        </mask>
                        <g id="Clip-2"></g>
                        <path d="M3.18012455,1.80510909 C2.32922455,1.80510909 1.63607909,2.52992727 1.63607909,3.41956364 L1.63607909,3.67729091 C1.63607909,4.56756364 2.32922455,5.29110909 3.18012455,5.29110909 L130.399725,5.29110909 C131.251843,5.29110909 131.944379,4.56756364 131.944379,3.67729091 L131.944379,3.41956364 C131.944379,2.52992727 131.251843,1.80510909 130.399725,1.80510909 L3.18012455,1.80510909 Z M130.399725,6.99974545 L3.18012455,6.99974545 C1.42655182,6.99974545 6.09090909e-05,5.50938182 6.09090909e-05,3.67729091 L6.09090909e-05,3.41956364 C6.09090909e-05,1.58747273 1.42655182,0.0964727273 3.18012455,0.0964727273 L130.399725,0.0964727273 C132.153297,0.0964727273 133.580397,1.58747273 133.580397,3.41956364 L133.580397,3.67729091 C133.580397,5.50938182 132.153297,6.99974545 130.399725,6.99974545 L130.399725,6.99974545 Z" id="Fill-1" fill="#4A4A4A" mask="url(#mask-2)"></path>
                    </g>
                    <path d="M13.2243148,99.3784076 L75.7761399,99.3784076 L44.5002274,45.4323885 L13.2243148,99.3784076 Z M77.1863631,101 L11.8146979,101 C11.523074,101 11.2544889,100.845448 11.1095863,100.594904 C10.9634712,100.343756 10.9634712,100.034651 11.1095863,99.7841076 L43.7957221,43.4057 C43.9406246,43.1551561 44.2092097,43 44.5002274,43 C44.791245,43 45.0598301,43.1551561 45.2053389,43.4057 L77.8908684,99.7841076 C78.0363772,100.034651 78.0363772,100.343756 77.8908684,100.594904 C77.7459658,100.845448 77.4773808,101 77.1863631,101 L77.1863631,101 Z" id="Fill-4" fill="#4A4A4A"></path>
                    <path d="M28.7875874,83 C28.6537083,83 28.5186548,82.9635688 28.3941707,82.8863094 C28.0171954,82.6539032 27.8880138,82.1382126 28.1058609,81.7343283 L38.5290527,62.4213712 C38.7463127,62.018115 39.2283948,61.8805557 39.6059574,62.1129619 C39.9823455,62.3459962 40.1121143,62.8610587 39.8942671,63.264943 L29.4710753,82.5779001 C29.3254525,82.84925 29.0606302,83 28.7875874,83" id="Fill-6" fill="#4A4A4A"></path>
                    <path d="M77.7176842,99.3770669 L123.764741,99.3770669 L84.7866589,32.4337954 L61.7625209,71.9787417 L77.7176842,99.3770669 Z M125.182193,101 L77.2454036,101 C76.9522849,101 76.6823232,100.84532 76.5366779,100.594569 L60.1092339,72.3847771 C59.9635887,72.1334218 59.9635887,71.8240615 60.1092339,71.5733105 L84.0779332,30.4060354 C84.2241879,30.1552844 84.4941496,30 84.7866589,30 C85.0791682,30 85.3491299,30.1552844 85.4953845,30.4060354 L125.890309,99.7831023 C126.036564,100.033853 126.036564,100.343214 125.890309,100.594569 C125.744664,100.84532 125.474093,101 125.182193,101 L125.182193,101 Z" id="Fill-8" fill="#4A4A4A"></path>
                    <path d="M71.7777583,63 C71.6450475,63 71.5117572,62.9646911 71.3888983,62.8898118 C71.017424,62.6645652 70.8893494,62.1647612 71.1043525,61.7733191 L79.5480034,46.4090644 C79.762427,46.0176223 80.2387949,45.8836918 80.6108487,46.110156 C80.983482,46.3354026 81.1103976,46.8352066 80.8953945,47.2266487 L72.4523231,62.5909034 C72.3080219,62.8538941 72.046657,63 71.7777583,63" id="Fill-10" fill="#4A4A4A"></path>
                    <path d="M85,32 C84.4482502,32 84,31.6380063 84,31.1910857 L84,0.80891432 C84,0.362595995 84.4482502,0 85,0 C85.5524944,0 86,0.362595995 86,0.80891432 L86,31.1910857 C86,31.6380063 85.5524944,32 85,32" id="Fill-12" fill="#4A4A4A"></path>
                    <path d="M85.64632,19.3099326 L110.300667,19.3099326 L102.912454,11.0710112 C102.62254,10.7482247 102.62254,10.2511461 102.912454,9.92710112 L110.300667,1.6894382 L85.64632,1.6894382 L85.64632,19.3099326 Z M112.176835,21 L84.82316,21 C84.3689816,21 84,20.6212135 84,20.1549663 L84,0.844404494 C84,0.378157303 84.3689816,0 84.82316,0 L112.176835,0 C112.503524,0 112.799568,0.198202247 112.930734,0.505258427 C113.0619,0.812314607 113.003672,1.17033708 112.782406,1.41698876 L104.636615,10.4990562 L112.782406,19.5830112 C113.003672,19.8290337 113.0619,20.1876854 112.930734,20.4941124 C112.799568,20.8011685 112.503524,21 112.176835,21 L112.176835,21 Z" id="Fill-14" fill="#4A4A4A"></path>
                    <path d="M18.8080335,58 C18.3615995,58 18,57.6400717 18,57.1970371 C18,42.752076 29.8262896,31 44.3630714,31 C49.8887452,31 55.178567,32.6800638 59.660957,35.8596293 C60.0243615,36.1167209 60.109196,36.6183485 59.8492775,36.9788746 C59.5899608,37.3394008 59.0857671,37.423105 58.7223626,37.1660134 C54.516136,34.1819571 49.5506105,32.6053278 44.3630714,32.6053278 C30.7173526,32.6053278 19.616067,43.6369494 19.616067,57.1970371 C19.616067,57.6400717 19.2538659,58 18.8080335,58" id="Fill-16" fill="#4A4A4A"></path>
                    <polygon id="Fill-18" fill="#4A4A4A" points="52.2942256 39 52 37.4267871 59.9697822 36.0248729 57.9487399 28.397318 59.5415953 28 62 37.2899859"></polygon>
                </g>
            </g>
        </g>
    </g>
</svg>