<?xml version="1.0" encoding="UTF-8"?>
<svg width="125px" height="126px" viewBox="0 0 125 126" version="1.1" xmlns="http://www.w3.org/2000/svg" xmlns:xlink="http://www.w3.org/1999/xlink">
    <!-- Generator: Sketch 63.1 (92452) - https://sketch.com -->
    <title>inveni_desarrolloestrategico</title>
    <desc>Created with Sketch.</desc>
    <defs>
        <polygon id="path-1" points="0.194157436 0.3072853 42.7133866 0.3072853 42.7133866 41 0.194157436 41"></polygon>
    </defs>
    <g id="Symbols" stroke="none" stroke-width="1" fill="none" fill-rule="evenodd">
        <g id="inveni_servicios_article" transform="translate(-167.000000, -39.000000)">
            <g id="inveni_desarrolloestrategico" transform="translate(167.000000, 39.000000)">
                <g>
                    <path d="M100.292138,70.9709837 C100.49936,70.9709837 100.688726,71.1086579 100.74716,71.31954 L100.785033,71.4572142 C101.029046,72.3826913 100.914884,73.3469575 100.465274,74.1784664 C99.8695797,75.2869628 99.7191684,76.57083 100.043256,77.7929624 C100.395478,79.1161651 101.247629,80.2022621 102.443345,80.8507516 C103.637979,81.4992412 105.007913,81.6156087 106.299935,81.1796402 C108.589109,80.4082272 109.980685,78.0218732 109.535944,75.6278705 C109.281651,74.2505815 108.497131,73.0874524 107.326844,72.3493654 C106.502287,71.8319942 105.914168,71.0463767 105.672861,70.1383821 L105.637152,70.0001615 C105.571144,69.7461197 105.721014,69.4866146 105.971519,69.4188701 L114.381028,67.1417814 C114.567149,67.0915194 114.702952,66.9358163 114.727299,66.7429631 C114.728381,66.7358608 114.729463,66.7271196 114.731087,66.719471 C114.731628,66.7096371 114.732169,66.6998033 114.733251,66.691062 C114.73271,66.6287808 114.728381,66.5927233 114.718642,66.5572121 L113.046804,60.2575215 C113.014882,60.137876 113.031114,60.0160452 113.084136,59.9133358 C113.140946,59.7844027 113.247533,59.6800544 113.387123,59.6434505 L113.520762,59.6084856 C114.413491,59.3659167 115.381967,59.4872011 116.243857,59.950486 C117.380058,60.561279 118.687771,60.6896657 119.925147,60.3159784 C121.912417,59.7188436 123.305615,57.9044933 123.393806,55.7994974 C123.39597,55.6738423 123.39597,55.5454556 123.39056,55.4203469 L123.381362,55.2329569 C123.366754,55.034094 123.339701,54.8324996 123.301287,54.6445633 C123.030763,53.2918589 122.246243,52.1505829 121.092188,51.4288856 C119.937592,50.706642 118.580102,50.5034086 117.268061,50.8596134 C116.057736,51.1874093 115.031909,51.9593686 114.379405,53.0334465 C113.889757,53.8420097 113.119304,54.4238474 112.210344,54.6724259 L112.066966,54.7090298 C111.816461,54.77295 111.561086,54.6221639 111.493455,54.3703074 L109.82324,48.0749874 C109.755068,47.8203993 109.493201,47.6663352 109.23999,47.7357186 L100.830481,50.0128074 C100.580517,50.0794592 100.322437,49.9324974 100.253183,49.6800946 L100.214768,49.541874 C99.9723788,48.6224065 100.085999,47.6581403 100.533446,46.8206218 C101.130763,45.7093938 101.280633,44.4271655 100.956545,43.2077648 C100.606487,41.8845621 99.7559596,40.7990114 98.5618667,40.1499755 C97.3666916,39.5009397 95.9951349,39.3834795 94.699866,39.8199943 C92.4139381,40.5914073 91.0234447,42.978854 91.4643988,45.3728566 C91.7213966,46.7485067 92.5053752,47.9116358 93.6729568,48.6469912 C94.5029245,49.172011 95.0905026,49.9592674 95.3280227,50.8634377 L95.3631908,50.9890928 C95.3983589,51.1120163 95.3826685,51.2442273 95.320448,51.3551316 C95.2576865,51.4665822 95.1538052,51.5479848 95.0315284,51.5807644 L86.6187728,53.8578531 C86.4223724,53.9103005 86.2795357,54.0889492 86.2697969,54.2921827 C86.2692558,54.3036555 86.2681737,54.3140357 86.2670916,54.3255086 C86.2654685,54.3408057 86.2660095,54.3561029 86.2670916,54.3637515 C86.2725021,54.3987163 86.2789947,54.426579 86.2860283,54.4560806 L87.9535383,60.7421131 C87.9800496,60.8437298 87.972475,60.9486245 87.9362248,61.0409536 C87.8859073,61.1911934 87.770123,61.3168485 87.6132191,61.3572767 L87.476875,61.3916952 C86.5879331,61.6348105 85.6189161,61.5129797 84.7564856,61.0491485 C83.6213669,60.4399945 82.3136538,60.3094225 81.0735718,60.6814708 C79.2269749,61.2409091 77.8770601,62.8634988 77.6346706,64.8144306 C77.6243907,64.9324371 77.6124876,65.0695651 77.6065361,65.206693 C77.6038309,65.3230606 77.6038309,65.4525399 77.6097824,65.5792877 L77.6189802,65.7628534 C77.6243907,65.8557289 77.6357527,65.9551603 77.6498199,66.0540454 C77.662264,66.162218 77.6795776,66.2589178 77.6995964,66.3583492 C77.9690383,67.705044 78.7519347,68.8452273 79.9049081,69.5674709 C81.0605866,70.2908072 82.4213224,70.494587 83.735528,70.1400211 C84.9442292,69.8122252 85.9705973,69.0391732 86.6241833,67.9629101 C87.1154549,67.1516153 87.8853662,66.5708702 88.7916217,66.3272086 L88.9225553,66.2906047 C89.0442911,66.2561862 89.1741426,66.2720296 89.2839754,66.3354035 C89.3938081,66.3982311 89.4733422,66.5036721 89.5063461,66.6265955 L91.1765613,72.9246471 C91.2447333,73.1786889 91.5076827,73.331114 91.7614342,73.2633696 L100.169861,70.9868271 C100.21044,70.9759006 100.25156,70.9709837 100.292138,70.9709837 L100.292138,70.9709837 Z M104.854255,83 C103.882533,83 102.921091,82.757431 102.037559,82.2783027 C100.591879,81.4932316 99.5184396,80.1252301 99.0926348,78.5250398 C98.6949645,77.02592 98.8794619,75.4503144 99.6114998,74.0877762 C99.8993374,73.5551079 100.007006,72.9514171 99.9242256,72.3564676 L91.7695499,74.5641729 C90.992605,74.771777 90.1902308,74.3046678 89.9808452,73.5228746 L88.3955745,67.5449703 C87.8447876,67.7689642 87.3821916,68.1634119 87.0683837,68.6813294 C86.2660095,70.0028931 85.0069908,70.9518622 83.5228961,71.3545048 C81.9332971,71.7828248 80.2208801,71.527144 78.822812,70.651929 C77.4085125,69.7652411 76.4470702,68.3666453 76.1164899,66.7134614 C76.0905196,66.5834357 76.0688776,66.4588733 76.0542693,66.3337645 C76.0374969,66.2168507 76.0234296,66.0884639 76.0158549,65.9628089 L76.0061161,65.768863 C75.9990825,65.6126136 75.9985414,65.4563642 76.0023287,65.3028465 C76.0093624,65.1373096 76.0228886,64.9810602 76.0369558,64.8286351 C76.3350733,62.4215206 77.9912212,60.4334386 80.2582124,59.7467062 C81.7796394,59.2899773 83.3838468,59.4511436 84.7770454,60.1990645 C85.3402764,60.5017294 85.955989,60.616458 86.5441082,60.5350553 L84.9512629,54.530381 C84.9339493,54.4538953 84.9225873,54.401448 84.9139306,54.3500933 C84.8993223,54.2599494 84.896617,54.15724 84.9068969,54.0572623 C84.9436882,53.4229773 85.3749035,52.8897626 85.9846646,52.726411 L94.1360939,50.5203447 C93.9104769,49.9663697 93.505773,49.489973 92.9690534,49.1507042 C91.5374403,48.2481729 90.5743749,46.8217145 90.2594849,45.1346583 C89.7178959,42.1948755 91.4254434,39.2643803 94.2318594,38.3175965 C95.8198353,37.7827429 97.5019536,37.9269731 98.9681937,38.7235171 C100.412792,39.5085883 101.483526,40.8760434 101.907708,42.475141 C102.305378,43.9715292 102.12088,45.5460421 101.388843,46.909673 C101.102087,47.445073 100.99496,48.0498564 101.076658,48.6431669 L109.230251,46.4354616 C110.005573,46.2262186 110.809029,46.6916888 111.019497,47.4767599 L112.60585,53.4546642 C113.154473,53.230124 113.620856,52.833491 113.935205,52.3150272 C114.736497,50.9951024 115.995516,50.0477723 117.480693,49.6451297 C119.067586,49.2168097 120.777839,49.4708515 122.173743,50.3438812 C123.589666,51.2300228 124.55219,52.6297112 124.883852,54.2861731 C124.931465,54.5194545 124.96501,54.7691257 124.983405,55.0269918 L124.994226,55.2324105 C125.00126,55.3870209 125.00126,55.5432703 124.997473,55.6967881 C124.997473,55.6995197 124.997473,55.7022513 124.997473,55.7055293 C124.891427,58.2891072 123.181174,60.5175729 120.741048,61.2501967 C119.222867,61.7102036 117.618119,61.5501299 116.222756,60.80057 C115.660607,60.4989978 115.044353,60.3837229 114.456234,60.4651255 L116.048538,66.4659755 C116.081001,66.5817968 116.097774,66.7096371 116.097774,66.8407555 C116.097774,66.8740814 116.097233,66.9123243 116.094528,66.9478355 C116.093986,66.9778834 116.091281,67.0221359 116.079919,67.0740369 C115.99281,67.6525966 115.578368,68.1218911 115.016219,68.2732235 L106.864248,70.4798362 C107.089324,71.0316259 107.494028,71.5091152 108.029666,71.8445597 C109.445588,72.7372572 110.433542,74.2030511 110.740316,75.8655226 C111.286234,78.804759 109.578686,81.7352542 106.768483,82.682038 C106.138703,82.894559 105.494315,83 104.854255,83 L104.854255,83 Z" id="Fill-1" fill="#4A4A4A"></path>
                    <path d="M2.93265111,9.34344496 C2.06206287,9.34344496 1.35327984,10.0467938 1.35327984,10.9101667 L1.35327984,95.0892927 C1.35327984,95.9537468 2.06206287,96.656555 2.93265111,96.656555 L71.0668041,96.656555 C71.9379371,96.656555 72.6461754,95.9537468 72.6461754,95.0892927 L72.6461754,10.9101667 C72.6461754,10.0467938 71.9379371,9.34344496 71.0668041,9.34344496 L58.8840168,9.34344496 L58.8840168,13.820874 C58.8840168,15.4254393 57.5683281,16.7315813 55.9508209,16.7315813 L18.0486343,16.7315813 C16.4311271,16.7315813 15.1154384,15.4254393 15.1154384,13.820874 L15.1154384,9.34344496 L2.93265111,9.34344496 Z M71.0668041,98 L2.93265111,98 C1.31568873,98 0,96.6943986 0,95.0892927 L0,10.9101667 C0,9.30614206 1.31568873,8 2.93265111,8 L15.7920783,8 C16.166355,8 16.469263,8.30058567 16.469263,8.67199279 L16.469263,13.820874 C16.469263,14.6847875 17.1775013,15.3881364 18.0486343,15.3881364 L55.9508209,15.3881364 C56.8219539,15.3881364 57.5301922,14.6847875 57.5301922,13.820874 L57.5301922,8.67199279 C57.5301922,8.30058567 57.8331002,8 58.2068321,8 L71.0668041,8 C72.6843113,8 74,9.30614206 74,10.9101667 L74,95.0892927 C74,96.6943986 72.6843113,98 71.0668041,98 L71.0668041,98 Z" id="Fill-3" fill="#4A4A4A"></path>
                    <path d="M4.33799427,93.6376719 L67.6620057,93.6376719 L67.6620057,12.3623281 L57.6283947,12.3623281 L57.6283947,13.2701814 C57.6283947,14.8973 56.3280905,16.2218009 54.7294969,16.2218009 L17.2705031,16.2218009 C15.6719095,16.2218009 14.3716053,14.8973 14.3716053,13.2701814 L14.3716053,12.3623281 L4.33799427,12.3623281 L4.33799427,93.6376719 Z M68.3312721,95 L3.66926635,95 C3.29990455,95 3,94.6951894 3,94.3191101 L3,11.6808899 C3,11.3048106 3.29990455,11 3.66926635,11 L15.0403332,11 C15.4102334,11 15.7095995,11.3048106 15.7095995,11.6808899 L15.7095995,13.2701814 C15.7095995,14.1462378 16.4095563,14.8594728 17.2705031,14.8594728 L54.7294969,14.8594728 C55.5904437,14.8594728 56.2904005,14.1462378 56.2904005,13.2701814 L56.2904005,11.6808899 C56.2904005,11.3048106 56.5897666,11 56.9591284,11 L68.3312721,11 C68.7006339,11 69,11.3048106 69,11.6808899 L69,94.3191101 C69,94.6951894 68.7006339,95 68.3312721,95 L68.3312721,95 Z" id="Fill-5" fill="#4A4A4A"></path>
                    <path d="M17.8816888,1.33297558 C17.0258529,1.33297558 16.3300514,2.03112423 16.3300514,2.88811376 L16.3300514,13.110813 C16.3300514,13.9683391 17.0258529,14.6664878 17.8816888,14.6664878 L55.1183112,14.6664878 C55.9741471,14.6664878 56.6699486,13.9683391 56.6699486,13.110813 L56.6699486,2.88811376 C56.6699486,2.03112423 55.9741471,1.33297558 55.1183112,1.33297558 L17.8816888,1.33297558 Z M55.1183112,16 L17.8816888,16 C16.2925852,16 15,14.7035149 15,13.110813 L15,2.88811376 C15,1.29594848 16.2925852,0 17.8816888,0 L55.1183112,0 C56.7074148,0 58,1.29594848 58,2.88811376 L58,13.110813 C58,14.7035149 56.7074148,16 55.1183112,16 L55.1183112,16 Z" id="Fill-7" fill="#4A4A4A"></path>
                    <path d="M22.5027089,23.3747117 C22.3361501,23.3747117 22.1684847,23.3846712 21.9986058,23.4056968 C19.7414859,23.6817958 18.1295736,25.7434091 18.4062493,28.0003389 C18.5401603,29.0942222 19.0918515,30.0702517 19.9595063,30.7486032 C20.8277145,31.4275081 21.9078562,31.7290591 23.0012784,31.5934995 C25.2589517,31.3168472 26.870864,29.2552339 26.5947417,26.9983041 C26.33854,24.9101322 24.5550888,23.3747117 22.5027089,23.3747117 M22.4888751,33 C21.2681821,33 20.0895439,32.5955343 19.1128789,31.8314205 C17.955268,30.9267673 17.2198641,29.625948 17.0411316,28.1674369 C16.6725997,25.158566 18.8218161,22.4097483 21.8320471,22.0406941 C24.8411714,21.6744064 27.5902206,23.8217819 27.9587526,26.8312061 C28.3278379,29.8406303 26.1786215,32.5888946 23.1689438,32.9579488 C22.9415164,32.9856141 22.7146424,33 22.4888751,33" id="Fill-9" fill="#4A4A4A"></path>
                    <path d="M58.3192398,50 C57.9915128,50 57.7031787,49.7678786 57.6490135,49.4421599 C55.3199088,35.4271641 42.1916806,25.7984062 27.7618455,27.5286196 C27.3887073,27.5676631 27.050585,27.3136132 27.0051737,26.9499207 C26.9592154,26.5856934 27.2245703,26.2540915 27.5971614,26.2096996 C42.756312,24.3987251 56.543824,34.5061664 58.9911074,49.2292929 C59.051291,49.590846 58.7996142,49.9326099 58.4292116,49.9914425 C58.3920072,49.9973258 58.3553499,50 58.3192398,50" id="Fill-11" fill="#4A4A4A"></path>
                    <polygon id="Fill-13" fill="#4A4A4A" points="61 45.4723733 60.1548844 45 57.5527195 48.7183892 53.5879995 46.1294017 53 46.8484588 57.8296138 50"></polygon>
                    <path d="M21.5065522,39.3747569 C21.4340435,39.3747569 21.3615348,39.3764171 21.2884725,39.3802909 C20.1881108,39.4367374 19.1752024,39.9187466 18.4373845,40.737775 C17.6995665,41.5551431 17.3237387,42.6126858 17.3807494,43.7122867 C17.4377601,44.8129943 17.9198602,45.8257118 18.7384895,46.5633907 C19.5571187,47.3010696 20.6159678,47.6735061 21.7141154,47.6192732 C22.8150306,47.5628266 23.8273855,47.0808174 24.5652035,46.2617891 C26.0889941,44.5733732 25.9539396,41.9596767 24.2640985,40.4367267 C23.5002659,39.7471934 22.5277632,39.3747569 21.5065522,39.3747569 M21.4949287,49 C20.1327606,49 18.8364593,48.503049 17.8169089,47.5849625 C16.7259567,46.6004683 16.0833411,45.2507318 16.0075113,43.7836749 C15.9316816,42.3160647 16.4320473,40.907668 17.4156201,39.8169215 C18.3997464,38.7256216 19.7502909,38.0831271 21.2176243,38.0067582 C22.6838507,37.9353699 24.0941734,38.4312141 25.1851256,39.4151549 C27.4378781,41.4461238 27.6183197,44.930868 25.5869679,47.1831959 C24.6028416,48.2739424 23.2528506,48.916437 21.7849637,48.9928058 C21.6881009,48.9977864 21.591238,49 21.4949287,49" id="Fill-15" fill="#4A4A4A"></path>
                    <path d="M19.3006643,86 C19.1244705,86 18.9482767,85.937025 18.8120501,85.8094603 C7.57505092,75.3286989 7.01438309,58.3787371 17.5359116,47.2213983 C17.7942917,46.9468919 18.2367464,46.9242855 18.5238354,47.1724177 C18.8103614,47.4200117 18.8334411,47.8430745 18.5744981,48.1175809 C8.5584713,58.7388249 9.09155608,74.874956 19.7892784,84.8524557 C20.0656719,85.1108146 20.0707382,85.5338774 19.8010997,85.7986953 C19.6643103,85.932719 19.4824873,86 19.3006643,86" id="Fill-17" fill="#4A4A4A"></path>
                    <polygon id="Fill-19" fill="#4A4A4A" points="20.8634574 79 19.6953293 79.0212728 19.8086972 84.7693064 14.0613815 84.4621023 14 85.6277261 21 86"></polygon>
                    <path d="M55.7720634,76 C55.6382953,76 55.5026606,75.9675918 55.3788474,75.8993031 C55.0117627,75.6973305 54.8904381,75.2563475 55.1082002,74.9149039 L60.5622068,66.3527725 C60.7799689,66.0107502 61.254068,65.8979002 61.6211526,66.1010302 C61.9882373,66.3030027 62.1095619,66.7439858 61.8917998,67.0860081 L56.4377932,75.6481395 C56.293448,75.8744182 56.0358666,76 55.7720634,76" id="Fill-21" fill="#4A4A4A"></path>
                    <path d="M63.280172,75 C63.1557511,75 63.0290155,74.9651568 62.9144326,74.8917371 L54.3525437,69.4381475 C54.0111098,69.2203773 53.898263,68.7462603 54.1002299,68.3785397 C54.3027754,68.0120634 54.7437459,67.8901121 55.0851798,68.1085045 L63.6470687,73.5620941 C63.9890813,73.7798643 64.1019281,74.2539813 63.8993826,74.6217019 C63.7651238,74.8649824 63.5255414,75 63.280172,75" id="Fill-23" fill="#4A4A4A"></path>
                    <path d="M53.6267199,73 C43.5500327,73 34.2428688,66.6522698 31.0316806,56.8419528 C30.9207679,56.503165 31.1103759,56.1399929 31.4552617,56.0315601 C31.8001475,55.9215708 32.1703848,56.108345 32.2807694,56.4476516 C35.8991658,67.5015738 47.7150705,73.9022234 59.1813359,71.0217495 C59.5325596,70.9319941 59.889593,71.1410775 59.9793796,71.486091 C60.0691661,71.8305857 59.8573755,72.1823439 59.50668,72.2705428 C57.5440525,72.7634193 55.5703338,73 53.6267199,73" id="Fill-25" fill="#4A4A4A"></path>
                    <polygon id="Fill-27" fill="#4A4A4A" points="37 57.6500373 36.4128758 58.8565805 30.6749042 55.8575986 28.2041555 62 27 61.4798072 30.0106511 54"></polygon>
                    <g id="Group-31" transform="translate(67.000000, 85.000000)">
                        <mask id="mask-2" fill="white">
                            <use xlink:href="#path-1"></use>
                        </mask>
                        <g id="Clip-30"></g>
                        <path d="M11.8835012,15.3803408 L5.55135309,21.2832618 C5.44677284,21.3809066 5.38625432,21.5136171 5.37988395,21.6576566 C5.37351358,21.8022355 5.42288395,21.9403408 5.51897037,22.0466171 L10.0621062,27.0788276 C10.2319827,27.2676434 10.2197728,27.5600382 10.0345012,27.7332092 L9.92726667,27.8324724 C9.22174815,28.4906303 8.2794642,28.8477618 7.27347654,28.8391303 C5.92348889,28.8272618 4.6451679,29.3494724 3.67315556,30.3091961 C1.7997358,32.1585118 1.61764938,35.2221829 3.25801975,37.2829724 C4.15677284,38.4126303 5.4340321,39.0934461 6.8530321,39.2008013 C8.27362469,39.3081566 9.63476049,38.828025 10.684279,37.8499592 C11.6525753,36.9479592 12.2354642,35.7195776 12.326242,34.3908539 C12.3936617,33.4063145 12.8236617,32.4989197 13.5366123,31.8337487 L13.6449086,31.7334066 C13.733563,31.6503276 13.8514148,31.6060908 13.9724519,31.6114855 C14.092958,31.6168803 14.2070938,31.6708276 14.288316,31.7614592 L18.8319827,36.7936697 C19.0299951,37.0132355 19.366563,37.0278013 19.5826247,36.8265776 L26.2635506,30.5988934 C26.3522049,30.5158145 26.4700568,30.4721171 26.5910938,30.4775118 C26.7116,30.4823671 26.8257358,30.5368539 26.906958,30.6269461 L27.0056988,30.7369987 C27.6602543,31.4620513 28.0122173,32.4045118 27.9957605,33.3912092 C27.9734642,34.7237092 28.4496494,35.9984855 29.3372543,36.9814066 C30.2991802,38.0468671 31.6125383,38.6440645 33.0357852,38.6629461 C34.4579704,38.6807487 35.7877852,38.1153803 36.7810321,37.0698803 C38.5376617,35.220025 38.6847111,32.3014724 37.1245012,30.2800645 C36.2268099,29.1180382 34.9389333,28.4156434 33.4981679,28.3023539 C32.4953654,28.2235908 31.5870568,27.7849987 30.9394025,27.0674987 L30.8417235,26.9590645 C30.6718469,26.7707882 30.6835259,26.4783934 30.8693284,26.3052224 L37.5502543,20.0769987 C37.7657852,19.875775 37.7806494,19.5342882 37.582637,19.3141829 L33.0395012,14.2814329 C32.9577481,14.1908013 32.9147481,14.0715776 32.9200568,13.9485776 C32.9248346,13.8255776 32.977921,13.7106697 33.0671062,13.6270513 L33.1759333,13.5267092 C33.888884,12.8615382 34.8157728,12.5044066 35.7867235,12.5211303 C37.0963654,12.5432487 38.3513284,12.0588013 39.3190938,11.1562618 C40.3686123,10.1781961 40.956279,8.84191974 40.9736435,7.39397237 C40.9902543,5.94764342 40.432316,4.59626184 39.4024395,3.58906447 C37.5231802,1.75107763 34.5041556,1.671775 32.5298716,3.40888026 C31.5053037,4.31034079 30.8831309,5.55922237 30.7785506,6.92732763 C30.6999827,7.94639342 30.268921,8.86997237 29.5639333,9.52759079 L29.4566988,9.62739342 C29.3680444,9.71101184 29.2496617,9.75470921 29.1291556,9.74931447 C29.0081185,9.74338026 28.8945136,9.68997237 28.8127605,9.59988026 L24.2701556,4.56659079 C24.0716123,4.347025 23.7350444,4.33245921 23.5189827,4.53368289 L17.1863037,10.4371434 C17.6539951,10.8552355 18.2427235,11.1055513 18.873921,11.1497882 C20.4160815,11.2587618 21.840921,11.9568408 22.8867235,13.1145513 C24.0041926,14.3521039 24.5748716,16.0228539 24.4533037,17.6979197 C24.3301432,19.3967224 23.5434025,20.9261303 22.2353531,22.0034592 C19.9191926,23.9126566 16.5306864,23.7928934 14.3530815,21.7245513 C13.1023654,20.5366303 12.4217975,18.9289987 12.4371926,17.1983671 C12.4430321,16.5245645 12.2482049,15.8906829 11.8835012,15.3803408 L11.8835012,15.3803408 Z M3.6503284,21.2309329 C3.7288963,20.9773803 3.87169877,20.7481039 4.06971111,20.5636039 L11.0569457,14.0505382 C11.2507111,13.8698145 11.552242,13.8827618 11.7300815,14.0796697 L11.8325383,14.1934987 C12.509921,14.9433671 12.877279,15.9451697 12.8677235,17.0144066 C12.8544519,18.5492092 13.4591062,19.9761171 14.5702049,21.0313276 C16.5014889,22.8660776 19.5077728,22.9728934 21.5627481,21.2789461 C22.724279,20.3219197 23.4228963,18.9640645 23.5327852,17.456775 C23.6421432,15.9478671 23.1479086,14.5031566 22.141921,13.3891434 C21.2139704,12.3614461 19.9499827,11.7415908 18.580884,11.645025 C17.5679951,11.5738145 16.6331432,11.1168803 15.9488593,10.3589197 L15.8453407,10.2440118 C15.6675012,10.0465645 15.6797111,9.74014342 15.8745383,9.55941974 L22.861242,3.04635395 C23.4743901,2.47451184 24.4304765,2.51659079 24.9931926,3.13968289 L29.4099827,8.03216974 C29.8352049,7.53423553 30.0937358,6.89118289 30.147884,6.18824868 C30.2774148,4.50131447 31.0434519,2.96165658 32.3058469,1.85088026 C34.7398593,-0.290290789 38.4612173,-0.192646053 40.7784395,2.07368289 C42.0472049,3.31501184 42.7341432,4.97982763 42.7129086,6.76278816 C42.6927358,8.52093289 41.9489951,10.2111039 40.6743901,11.3995645 C39.4810074,12.5119592 37.9346,13.1086171 36.3197111,13.0821829 C35.6582543,13.0703145 35.0233407,13.2774724 34.4988469,13.6696697 L38.9161679,18.563775 C39.4783531,19.1868671 39.4369457,20.1584592 38.8243284,20.7297618 L32.2023284,26.9034987 C32.6917852,27.3350776 33.3245753,27.5988803 34.0162914,27.6528276 C35.7920321,27.7925513 37.3787852,28.6584066 38.4845753,30.0896303 C40.4094889,32.5814592 40.2274025,36.1802882 38.0609457,38.4611829 C36.8378346,39.7483671 35.1995877,40.4448276 33.4466741,40.4221697 C31.7176494,40.3995118 30.0565753,39.6447882 28.8881432,38.3500513 C27.794563,37.1383934 27.2068963,35.5669066 27.2345012,33.9242092 C27.2456494,33.252025 27.0417975,32.606275 26.6558593,32.073275 L20.0327975,38.2475513 C19.4196494,38.8193934 18.463563,38.776775 17.9008469,38.1542224 L13.4835259,33.2606566 C13.0535259,33.7580513 12.7960568,34.3833013 12.7498716,35.0533276 C12.6378593,36.6911697 11.9190691,38.2060118 10.7262173,39.3173276 C9.45161235,40.5063276 7.73001975,41.1132355 6.00418025,40.9826829 C4.25498272,40.8505118 2.6820321,40.0116303 1.57411852,38.6197882 C-0.44794321,36.0788671 -0.22285679,32.3030908 2.08534074,30.0227355 C3.28297037,28.8407487 4.85857531,28.1971566 6.52283457,28.2117224 C7.21720494,28.2171171 7.8701679,28.0099592 8.39466173,27.6231566 L3.9778716,22.7301303 C3.70553827,22.4285645 3.56485926,22.0369066 3.58237778,21.6274461 C3.58768642,21.4909592 3.61104444,21.3577092 3.6503284,21.2309329 L3.6503284,21.2309329 Z" id="Fill-29" fill="#4A4A4A" mask="url(#mask-2)"></path>
                    </g>
                </g>
            </g>
        </g>
    </g>
</svg>