<?xml version="1.0" encoding="UTF-8"?>
<svg width="133px" height="116px" viewBox="0 0 133 116" version="1.1" xmlns="http://www.w3.org/2000/svg" xmlns:xlink="http://www.w3.org/1999/xlink">
    <!-- Generator: Sketch 63.1 (92452) - https://sketch.com -->
    <title>inveni_icon_mejoradecalidad</title>
    <desc>Created with Sketch.</desc>
    <defs>
        <polygon id="path-1" points="0.35450495 0.359059701 61.8370198 0.359059701 61.8370198 80.8737246 0.35450495 80.8737246"></polygon>
        <polygon id="path-3" points="0 0.210313725 14.5749808 0.210313725 14.5749808 30.6286078 0 30.6286078"></polygon>
        <polygon id="path-5" points="0.566410811 0.340748065 21.5151676 0.340748065 21.5151676 30 0.566410811 30"></polygon>
    </defs>
    <g id="Symbols" stroke="none" stroke-width="1" fill="none" fill-rule="evenodd">
        <g id="inveni_servicios_article4" transform="translate(-153.000000, -43.000000)">
            <g id="inveni_icon_mejoradecalidad" transform="translate(153.000000, 43.000000)">
                <g id="Group-28">
                    <g id="Group-3" transform="translate(13.000000, 0.000000)">
                        <mask id="mask-2" fill="white">
                            <use xlink:href="#path-1"></use>
                        </mask>
                        <g id="Clip-2"></g>
                        <path d="M2.00333663,1.98214254 L2.00333663,50.6026948 C2.00333663,64.9535978 12.8846436,77.165859 27.3140693,79.0113291 C29.5350198,79.2893888 31.7645644,79.3232396 33.8866832,79.1146948 C48.8833168,77.7135157 60.188802,65.4565231 60.188802,50.6026948 L60.188802,1.98214254 L2.00333663,1.98214254 Z M31.0960693,80.8737246 C29.7830198,80.8737246 28.4398911,80.7884933 27.1041287,80.6216575 C11.8533564,78.6710082 0.35450495,65.7666201 0.35450495,50.6026948 L0.35450495,1.1703291 C0.35450495,0.722411194 0.724049505,0.358515672 1.17892079,0.358515672 L61.012604,0.358515672 C61.4680891,0.358515672 61.8370198,0.722411194 61.8370198,1.1703291 L61.8370198,50.6026948 C61.8370198,66.297956 49.8900495,79.2507022 34.046901,80.729859 C33.0837525,80.8253664 32.089297,80.8737246 31.0960693,80.8737246 L31.0960693,80.8737246 Z" id="Fill-1" fill="#4A4A4A" mask="url(#mask-2)"></path>
                    </g>
                    <path d="M45.4693011,40.4401235 L54.7299081,47.1273074 L51.193164,36.3075609 C51.0855033,35.9800302 51.2032758,35.6211653 51.4828368,35.4195625 L60.7434438,28.7323786 L49.2969076,28.7323786 C48.9507278,28.7323786 48.6438056,28.5106746 48.5373344,28.1837351 L44.9999955,17.3633975 L41.4626566,28.1837351 C41.3561855,28.5106746 41.0492632,28.7323786 40.7030834,28.7323786 L29.2565472,28.7323786 L38.5171542,35.4195625 C38.7973101,35.6211653 38.9144878,35.9800302 38.8074218,36.3075609 L35.2700829,47.1273074 L44.5306899,40.4401235 C44.6704704,40.3396177 44.835233,40.2887736 44.9999955,40.2887736 C45.1647581,40.2887736 45.3295206,40.3396177 45.4693011,40.4401235 Z M55.7797489,49.8480589 L45,42.0641792 L34.2202421,49.8480589 C33.9406811,50.0502529 33.5617867,50.0502529 33.2816309,49.8480589 C33.0014751,49.6458648 32.8842974,49.2875911 32.9913633,48.9606516 L37.1086426,36.3649084 L26.329484,28.5804375 C26.0493282,28.3782434 25.9321505,28.0199698 26.0392164,27.6924391 C26.1462824,27.3660908 26.4526098,27.144978 26.7987896,27.144978 L40.123143,27.144978 L44.2404223,14.5486435 C44.3474882,14.2211128 44.6538157,14 45,14 C45.3461753,14 45.6525028,14.2211128 45.7595687,14.5486435 L49.876848,27.144978 L63.2017962,27.144978 C63.5473812,27.144978 63.8543035,27.3660908 63.9607746,27.6924391 C64.0678405,28.0199698 63.9506628,28.3782434 63.6711018,28.5804375 L52.8913484,36.3649084 L57.0086277,48.9606516 C57.1156936,49.2875911 56.9985159,49.6458648 56.7183601,49.8480589 C56.5785796,49.9491559 56.4138171,50 56.2490545,50 C56.084292,50 55.9195294,49.9491559 55.7797489,49.8480589 Z" id="Fill-4" fill="#4A4A4A"></path>
                    <g id="Group-8" transform="translate(0.000000, 13.000000)">
                        <mask id="mask-4" fill="white">
                            <use xlink:href="#path-3"></use>
                        </mask>
                        <g id="Clip-7"></g>
                        <path d="M1.54921154,1.84298039 L1.54921154,18.6583529 C1.54921154,24.3593137 5.95113462,28.996549 11.3615192,28.996549 L13.0259423,28.996549 L13.0259423,1.84298039 L1.54921154,1.84298039 Z M13.8001731,30.6286078 L11.3615192,30.6286078 C5.09671154,30.6286078 -0.000403846154,25.2589216 -0.000403846154,18.6583529 L-0.000403846154,1.02664706 C-0.000403846154,0.576235294 0.346903846,0.210313725 0.774403846,0.210313725 L13.8001731,0.210313725 C14.22825,0.210313725 14.5749808,0.576235294 14.5749808,1.02664706 L14.5749808,29.8128824 C14.5749808,30.2632941 14.22825,30.6286078 13.8001731,30.6286078 L13.8001731,30.6286078 Z" id="Fill-6" fill="#4A4A4A" mask="url(#mask-4)"></path>
                    </g>
                    <path d="M74.5942287,42.3897848 L76.3072082,42.3897848 C81.8754305,42.3897848 86.4057713,37.816318 86.4057713,32.1937534 L86.4057713,15.6096157 L74.5942287,15.6096157 L74.5942287,42.3897848 Z M76.3072082,44 L73.7968175,44 C73.356846,44 73,43.6391104 73,43.1948924 L73,14.8045081 C73,14.3602902 73.356846,14 73.7968175,14 L87.2025888,14 C87.643154,14 88,14.3602902 88,14.8045081 L88,32.1937534 C88,38.7041544 82.7547797,44 76.3072082,44 L76.3072082,44 Z" id="Fill-9" fill="#4A4A4A"></path>
                    <path d="M40.7639974,103.417081 L46.2353456,103.417081 L46.2353456,80.7552953 C44.443755,80.8649092 42.6114315,80.838979 40.7639974,80.6763261 L40.7639974,103.417081 Z M47.1176728,105 L39.8816702,105 C39.3948463,105 39,104.645228 39,104.208541 L39,79.7905753 C39,79.5636863 39.1084021,79.3474052 39.2989269,79.1965387 C39.4894518,79.0474403 39.741733,78.9790789 39.9933572,79.0055984 C42.3736039,79.2778652 44.7584495,79.3108672 47.0296372,79.1069618 C47.2760055,79.0845676 47.5250018,79.1576435 47.7096138,79.3079206 C47.8942259,79.4576084 48,79.6709429 48,79.8942959 L48,104.208541 C48,104.645228 47.6051537,105 47.1176728,105 L47.1176728,105 Z" id="Fill-11" fill="#4A4A4A"></path>
                    <path d="M29.7467933,105.583726 C28.026967,105.583726 26.6277144,106.945165 26.6277144,108.617925 L26.6277144,110.381486 C26.6277144,112.055425 28.026967,113.416274 29.7467933,113.416274 L56.2538127,113.416274 C57.973639,113.416274 59.3728916,112.055425 59.3728916,110.381486 L59.3728916,108.617925 C59.3728916,106.945165 57.973639,105.583726 56.2538127,105.583726 L29.7467933,105.583726 Z M56.2538127,115 L29.7467933,115 C27.1294819,115 25,112.928066 25,110.381486 L25,108.617925 C25,106.071344 27.1294819,104 29.7467933,104 L56.2538127,104 C58.8711241,104 61,106.071344 61,108.617925 L61,110.381486 C61,112.928066 58.8711241,115 56.2538127,115 L56.2538127,115 Z" id="Fill-13" fill="#4A4A4A"></path>
                    <path d="M104.5,69.9848724 C104.590596,69.9848724 104.680691,70.0126097 104.757773,70.0675892 L109.753062,73.6590822 L107.845542,67.8471143 C107.78648,67.6683074 107.851048,67.4726599 108.004711,67.3617104 L113,63.7702174 L106.823961,63.7702174 C106.63426,63.7702174 106.466082,63.6493617 106.40752,63.4705548 L104.5,57.6590822 L102.59248,63.4705548 C102.533918,63.6493617 102.36574,63.7702174 102.176039,63.7702174 L96,63.7702174 L100.995289,67.3617104 C101.148952,67.4726599 101.21302,67.6683074 101.154458,67.8471143 L99.2469379,73.6590822 L104.242227,70.0675892 C104.319309,70.0126097 104.409404,69.9848724 104.5,69.9848724 M111.895928,77 C111.78584,77 111.675753,76.9671269 111.582696,76.9019678 L104.5,71.9346112 L97.4173043,76.9019678 C97.2305814,77.0322861 96.978171,77.0322861 96.7914482,76.9019678 C96.6047253,76.7710625 96.5268735,76.5386029 96.5974267,76.327276 L99.3021711,68.2892218 L92.2194753,63.3224522 C92.0327525,63.1909599 91.9549006,62.9596743 92.0260621,62.7477604 C92.0972236,62.5358465 92.3015847,62.3926138 92.5327075,62.3926138 L101.289218,62.3926138 L103.993355,54.3557336 C104.065124,54.1432327 104.269485,54 104.5,54 C104.730515,54 104.934876,54.1432327 105.006645,54.3557336 L107.710782,62.3926138 L116.467293,62.3926138 C116.697807,62.3926138 116.902776,62.5358465 116.973938,62.7477604 C117.045099,62.9596743 116.967248,63.1909599 116.780525,63.3224522 L109.697221,68.2892218 L112.401965,76.327276 C112.473127,76.5386029 112.395275,76.7710625 112.208552,76.9019678 C112.115494,76.9671269 112.005407,77 111.895928,77" id="Fill-15" fill="#4A4A4A"></path>
                    <path d="M105.000289,46.9997003 C95.0746908,46.9997003 87,55.0735652 87,64.99739 C87,71.3085082 90.2138216,77.0484088 95.5973338,80.3526924 C98.4236489,82.0842502 101.675008,82.9997003 105.000289,82.9997003 C108.324992,82.9997003 111.576351,82.0842502 114.403244,80.3526924 C119.786178,77.0484088 123,71.3085082 123,64.99739 C123,55.0735652 114.925309,46.9997003 105.000289,46.9997003 L105.000289,46.9997003 Z M105.000304,84.7315416 C101.298509,84.7315416 97.6776912,83.7280448 94.5293389,81.8289539 C88.5352316,78.2070137 84.9570327,71.9150764 84.9570327,64.9973024 C84.9570327,54.118893 93.948498,45.2678589 105.000304,45.2678589 C116.052111,45.2678589 125.042967,54.118893 125.042967,64.9973024 C125.042967,71.9150764 121.464768,78.2070137 115.47127,81.8289539 L115.470661,81.8289539 C112.322918,83.7280448 108.702099,84.7315416 105.000304,84.7315416 L105.000304,84.7315416 Z M92.8671842,85.4820661 C93.8230753,85.4820661 94.7357383,85.7752023 95.5059308,86.3315016 C96.105646,86.7613148 96.5927243,87.3373963 96.9123694,87.9968029 C97.4932103,89.1987212 98.6938582,89.9450495 100.044283,89.9450495 C100.835176,89.9450495 101.584668,89.6812868 102.21239,89.1819363 C103.007545,88.5471076 104.009709,88.1976221 105.032573,88.1976221 C106.050567,88.1976221 107.050295,88.5453092 107.847886,89.1765411 C108.473781,89.6716955 109.222056,89.9336597 110.012949,89.9336597 C111.366418,89.9336597 112.568283,89.1843341 113.148515,87.9782196 C113.459637,87.3296034 113.924188,86.7661105 114.491634,86.3500849 C115.256347,85.7710061 116.220153,85.4496953 117.197963,85.4496953 C117.528567,85.4496953 117.871348,85.4892597 118.217174,85.5659906 C119.259521,85.8069737 120.33292,85.5665901 121.167042,84.9107803 C122.001163,84.2537716 122.474238,83.2742532 122.466323,82.2227995 L122.466323,82.1832351 C122.466323,80.1037067 123.908684,78.3340993 125.973896,77.8791088 C127.570904,77.5314217 128.685095,76.1634529 128.685095,74.5521031 C128.685095,74.0329703 128.564543,73.5288241 128.327701,73.0552503 C128.023278,72.4473973 127.86863,71.793386 127.86863,71.1129983 C127.86863,69.7510241 128.490264,68.4867619 129.575231,67.6451194 C130.411179,66.9947048 130.890951,66.0205815 130.890951,64.9739235 C130.890951,63.9194725 130.408743,62.9435508 129.567925,62.2949346 L129.567316,62.2949346 C128.477478,61.4514937 127.852191,60.1860326 127.852191,58.82226 C127.852191,58.1538615 128.009274,57.4842642 128.306392,56.8854031 C128.541407,56.4124288 128.660741,55.9112798 128.660741,55.3951444 C128.660741,53.7819962 127.542897,52.412229 125.942844,52.0645419 C123.902595,51.6215406 122.421268,49.8075732 122.421268,47.7520232 C122.427966,46.82226 122.074225,45.9656309 121.425193,45.3218104 C120.776161,44.6785893 119.881764,44.3099211 118.96971,44.3099211 C118.695119,44.3099211 118.426618,44.3398941 118.169075,44.4004396 C117.840906,44.47777 117.491427,44.5179339 117.133425,44.5179339 C115.414647,44.5179339 113.826772,43.5282246 113.087631,41.9984014 C112.508007,40.7994805 111.307968,40.0549505 109.955717,40.0549505 C109.16178,40.0549505 108.411679,40.3169148 107.78761,40.8138675 C106.995499,41.451094 105.992726,41.8023779 104.967427,41.8023779 C103.949433,41.8023779 102.949705,41.4546908 102.152723,40.8228594 C101.526827,40.3283045 100.777944,40.0663403 99.98766,40.0663403 C98.6335823,40.0663403 97.4323255,40.8156659 96.8514846,42.0217804 C95.9716994,43.85553 93.8827424,44.909981 91.7816084,44.4328105 C90.7459582,44.1954241 89.6762125,44.4316115 88.8439175,45.0820262 C88.0116225,45.7318413 87.5342857,46.7041663 87.5342857,47.7490259 L87.5342857,47.8167649 C87.5342857,49.8974923 86.0913163,51.6665001 84.0254955,52.116695 C82.4297053,52.4673794 81.3149048,53.8353482 81.3149048,55.4431012 C81.3149048,55.9628334 81.4354567,56.4663803 81.6729074,56.9405535 C81.9773313,57.5484064 82.1319786,58.2036167 82.1319786,58.8870017 C82.1319786,60.2441802 81.510345,61.5084424 80.4265958,62.3536817 C79.58943,63.0052952 79.1096578,63.9788191 79.1096578,65.0260765 C79.1096578,66.0799281 79.5918654,67.0564492 80.4326843,67.704466 C81.5231308,68.5485063 82.1478087,69.813368 82.1478087,71.1771406 C82.1478087,71.8461385 81.9907259,72.5157358 81.6936082,73.1139974 C81.4585929,73.5869717 81.3392587,74.0887202 81.3392587,74.6042562 C81.3392587,76.215606 82.4571034,77.5835748 84.0571556,77.9306624 C86.0974048,78.3736637 87.5787316,80.1894295 87.5787316,82.2467779 C87.5720343,83.17774 87.9257749,84.0343691 88.5754156,84.6775902 C89.2238386,85.3208113 90.1188449,85.6900789 91.030899,85.6900789 C91.3048806,85.6900789 91.5739913,85.6595064 91.8309251,85.5995604 C92.1590941,85.5216305 92.5085728,85.4820661 92.8671842,85.4820661 L92.8671842,85.4820661 Z M95.6240473,89.3749625 C95.3677224,88.8462384 94.976842,88.3846538 94.4940257,88.0381657 C93.8760451,87.592167 93.1448188,87.3571785 92.3782794,87.3571785 C92.0890766,87.3571785 91.8102243,87.3883505 91.5478109,87.4506944 C91.1977233,87.532221 90.8354589,87.5729843 90.4683236,87.5729843 C89.2372332,87.5729843 88.0304968,87.076631 87.1568001,86.2110101 C86.2800591,85.3405935 85.8021136,84.1848336 85.8106374,82.9547407 C85.8106374,81.290039 84.6221664,79.8327505 82.9837568,79.4772705 C80.8266088,79.0084924 79.3203192,77.1639524 79.3203192,74.9915076 C79.3203192,74.2937356 79.4804462,73.6169447 79.7970471,72.9797183 C80.0351066,72.5007493 80.1611381,71.9624338 80.1611381,71.4259167 C80.1611381,70.3313018 79.6594475,69.3158158 78.7845331,68.6390249 C77.6508584,67.7650115 77,66.4479968 77,65.0272755 C77,63.6143471 77.6465964,62.3015286 78.7747915,61.4239185 C79.6448351,60.7447297 80.1440904,59.7304426 80.1440904,58.640024 C80.1440904,58.0915176 80.0204943,57.5663902 79.7763463,57.0790289 C79.4567011,56.4406035 79.2947476,55.7608153 79.2947476,55.0582476 C79.2947476,52.8905985 80.7973841,51.0460585 82.9484436,50.5724848 C84.6069452,50.2110101 85.764365,48.793286 85.764365,47.1243881 L85.764365,47.0530523 C85.764365,45.6449196 86.4079172,44.3338995 87.5300238,43.4568888 C88.6521304,42.5804776 90.0950999,42.2615646 91.4893615,42.581077 C93.1856116,42.9653312 94.8532459,42.118893 95.5595094,40.646618 C96.3418789,39.0214807 97.9608054,38.0119892 99.7855225,38.0119892 C100.853442,38.0119892 101.862911,38.3638725 102.705557,39.031072 C103.346674,39.5382156 104.149135,39.8175642 104.966209,39.8175642 C105.788154,39.8175642 106.591833,39.5358178 107.228079,39.0250774 C108.070724,38.3536817 109.082629,38 110.155419,38 C111.977092,38 113.594192,39.0040963 114.376562,40.6202418 C114.969579,41.8491358 116.243898,42.6428215 117.622329,42.6428215 C117.910923,42.6428215 118.190385,42.6110501 118.452189,42.5493056 C118.802277,42.4671795 119.164541,42.4264162 119.532285,42.4264162 C120.763376,42.4264162 121.970112,42.923369 122.8432,43.7889899 C123.72055,44.6588071 124.198495,45.8151664 124.189363,47.0452593 C124.189363,48.7069637 125.378442,50.1624538 127.016243,50.5185333 C129.173391,50.986712 130.68029,52.8330503 130.68029,55.0084924 C130.68029,55.7062644 130.519554,56.3830553 130.203562,57.0196823 C129.964893,57.4992507 129.839471,58.0369667 129.839471,58.5734839 C129.839471,59.6674993 130.341161,60.6835848 131.216076,61.3609751 C132.34975,62.235588 133,63.5514037 133,64.9727245 C133,66.384454 132.353404,67.6978719 131.225208,68.5760815 C130.355165,69.251074 129.85591,70.2653612 129.85591,71.3593766 C129.85591,71.9048856 129.980115,72.4282146 130.223654,72.9161754 C130.543299,73.5546009 130.705252,74.234389 130.705252,74.9375562 C130.705252,77.110001 129.202616,78.9545409 127.050948,79.4227196 C125.393664,79.787791 124.236244,81.2079129 124.236244,82.8756119 L124.236244,82.913378 C124.247203,84.3263063 123.608522,85.6469178 122.48398,86.5323209 C121.359438,87.417724 119.911597,87.7396343 118.510639,87.417724 C118.231786,87.3559796 117.95476,87.3236088 117.689912,87.3236088 C116.905716,87.3236088 116.133696,87.5807773 115.516934,88.0471576 C115.060298,88.3828554 114.690118,88.8330503 114.440491,89.3527825 C113.658121,90.9785193 112.039195,91.9874113 110.214478,91.9874113 C109.147167,91.9874113 108.137697,91.6349286 107.294443,90.968928 C106.653935,90.4611849 105.850865,90.1818363 105.033791,90.1818363 C104.213064,90.1818363 103.409385,90.4623839 102.770704,90.9719253 C101.925623,91.6445199 100.914326,92 99.8445807,92 C98.0241256,92 96.4070257,90.9941053 95.6240473,89.3749625 Z" id="Fill-17" fill="#4A4A4A"></path>
                    <g id="Group-27" transform="translate(93.000000, 86.000000)">
                        <mask id="mask-6" fill="white">
                            <use xlink:href="#path-5"></use>
                        </mask>
                        <g id="Clip-26"></g>
                        <path d="M11.0407892,14.52234 C11.1995459,14.52234 11.3487892,14.59314 11.4433297,14.71194 L20.1368973,25.67334 L20.1368973,2.66754 C20.0607892,2.77974 19.9918162,2.89734 19.930573,3.01854 C19.1938703,4.47654 17.6693297,5.38194 15.9509514,5.38194 C14.9454919,5.38194 13.9947351,5.06574 13.2015459,4.46754 C12.5980324,4.01274 11.8417081,3.76194 11.0728973,3.76194 C10.2993297,3.76194 9.54241081,4.01334 8.94127568,4.47054 C8.14570811,5.07414 7.19316757,5.39274 6.18592432,5.39274 C4.47170811,5.39274 2.94895135,4.49034 2.21105946,3.03774 C2.13435676,2.88774 2.04576216,2.74314 1.94468108,2.60634 L1.94468108,25.67334 L10.6382486,14.71194 C10.7327892,14.59314 10.8820324,14.52234 11.0407892,14.52234 M20.9943027,30.0000074 C20.8331676,30.0000074 20.6767892,29.92434 20.5768973,29.78814 L11.0407892,16.85034 L1.50468108,29.78814 C1.3708973,29.96994 1.13603243,30.04434 0.923167568,29.97354 C0.710302703,29.90214 0.566410811,29.70114 0.566410811,29.47494 L0.566410811,0.86574 C0.566410811,0.66834 0.676410811,0.48774 0.850627027,0.39774 C1.02543784,0.30834 1.23473514,0.32514 1.3928973,0.44094 C2.00473514,0.88974 2.49943784,1.48914 2.82408649,2.17674 C3.41451892,3.42774 4.63403243,4.20534 6.00635676,4.20534 C6.80965405,4.20534 7.57132973,3.93054 8.20873514,3.41034 C9.01678919,2.74974 10.0341405,2.38494 11.0740865,2.38494 C12.1080865,2.38494 13.1236541,2.74794 13.9340865,3.40494 C14.5697081,3.92034 15.3301946,4.19274 16.1328973,4.19274 C17.5087892,4.19274 18.7294919,3.41274 19.3187351,2.15754 C19.6356541,1.48194 20.1071676,0.89514 20.6833297,0.46134 C20.8408973,0.34254 21.0513838,0.32454 21.2279784,0.41274 C21.4039784,0.50274 21.5151676,0.68454 21.5151676,0.88314 L21.5151676,29.47494 C21.5151676,29.70114 21.3712757,29.90214 21.1578162,29.97354 C21.1043027,29.99154 21.0490054,30.0000074 20.9943027,30.0000074" id="Fill-25" fill="#4A4A4A" mask="url(#mask-6)"></path>
                    </g>
                </g>
            </g>
        </g>
    </g>
</svg>