<?xml version="1.0" encoding="UTF-8"?>
<svg width="136px" height="111px" viewBox="0 0 136 111" version="1.1" xmlns="http://www.w3.org/2000/svg" xmlns:xlink="http://www.w3.org/1999/xlink">
    <!-- Generator: Sketch 63.1 (92452) - https://sketch.com -->
    <title>inveni_icon_desarrollodecontenidos</title>
    <desc>Created with Sketch.</desc>
    <defs>
        <polygon id="path-1" points="0 0.263157895 20.5890429 0.263157895 20.5890429 23.7126737 0 23.7126737"></polygon>
        <polygon id="path-3" points="0.000380952381 0.267381923 79.930963 0.267381923 79.930963 111 0.000380952381 111"></polygon>
    </defs>
    <g id="Symbols" stroke="none" stroke-width="1" fill="none" fill-rule="evenodd">
        <g id="inveni_servicios_article4" transform="translate(-152.000000, -46.000000)">
            <g id="inveni_icon_desarrollo_de_contenidos" transform="translate(153.000000, 43.000000)">
                <g id="Group-47" transform="translate(-1.000000, 3.000000)">
                    <path d="M109.500206,66.0557466 C109.60115,66.0557466 109.702093,66.0868485 109.787958,66.1494727 L115.37293,70.2213052 L113.240136,63.6318967 C113.174376,63.4297341 113.246418,63.2078175 113.418148,63.0825692 L119.002701,59.0107367 L112.098345,59.0107367 C111.885987,59.0107367 111.697923,58.87372 111.632163,58.6711371 L109.500206,52.0829895 L107.367831,58.6711371 C107.302071,58.87372 107.114425,59.0107367 106.902067,59.0107367 L99.9977114,59.0107367 L105.582265,63.0825692 C105.753994,63.2078175 105.825618,63.4297341 105.759858,63.6318967 L103.627483,70.2213052 L109.212036,66.1494727 C109.297901,66.0868485 109.399263,66.0557466 109.500206,66.0557466 M116.304457,72 C116.203095,72 116.102151,71.9680575 116.016287,71.9058536 L109.500206,67.1548219 L102.984126,71.9058536 C102.812397,72.0306816 102.579934,72.0306816 102.408205,71.9058536 C102.236475,71.7806052 102.164433,71.5586887 102.230192,71.3561058 L104.718173,63.6680422 L98.2020929,58.9174308 C98.0303636,58.7917622 97.9583211,58.5698456 98.0240808,58.3672627 C98.0898406,58.1651001 98.2779051,58.0276632 98.4898442,58.0276632 L106.546043,58.0276632 L109.034024,50.3395996 C109.099784,50.137437 109.287848,50 109.500206,50 C109.712145,50 109.900629,50.137437 109.96597,50.3395996 L112.454369,58.0276632 L120.510149,58.0276632 C120.722507,58.0276632 120.910572,58.1651001 120.975913,58.3672627 C121.041673,58.5698456 120.96963,58.7917622 120.79832,58.9174308 L114.282239,63.6680422 L116.77022,71.3561058 C116.83598,71.5586887 116.763937,71.7806052 116.592208,71.9058536 C116.506343,71.9680575 116.4054,72 116.304457,72" id="Fill-1" fill="#4A4A4A"></path>
                    <path d="M110,43.8552815 C100.283538,43.8552815 92.3787558,51.769893 92.3787558,61.4978811 C92.3787558,67.6838729 95.5247567,73.3104683 100.794752,76.5494582 C103.561997,78.2467177 106.745239,79.1442947 110,79.1442947 C113.254761,79.1442947 116.438003,78.2467177 119.205248,76.5494582 C124.475243,73.3104683 127.621244,67.6838729 127.621244,61.4978811 C127.621244,51.769893 119.716462,43.8552815 110,43.8552815 L110,43.8552815 Z M110,80.1355282 C106.562844,80.1355282 103.200592,79.1879446 100.27719,77.3944858 C94.7113838,73.9736921 91.3884892,68.0309529 91.3884892,61.4978811 C91.3884892,51.2232101 99.7376217,42.8644718 110,42.8644718 C120.262378,42.8644718 128.611511,51.2232101 128.611511,61.4978811 C128.611511,68.0309529 125.288616,73.9736921 119.723233,77.394062 C119.723233,77.394062 119.72281,77.3944858 119.72281,77.3944858 C116.799408,79.1879446 113.437156,80.1355282 110,80.1355282 L110,80.1355282 Z M98.7333898,80.8445207 C99.6212442,80.8445207 100.468895,81.1216762 101.183665,81.6463222 C101.741007,82.0518846 102.192975,82.5960247 102.489632,83.2194127 C103.029623,84.3543093 104.143885,85.0594878 105.398223,85.0594878 C106.132882,85.0594878 106.829031,84.8098783 107.411342,84.3386293 C108.14981,83.7393971 109.079983,83.4088446 110.03047,83.4088446 C110.975455,83.4088446 111.903936,83.7372781 112.644096,84.3335438 C113.225561,84.8014026 113.92044,85.0484694 114.654676,85.0484694 C115.911553,85.0484694 117.027507,84.3407482 117.566653,83.2016137 C117.855692,82.5892442 118.286923,82.0573938 118.813373,81.6641212 C119.52391,81.1174383 120.418536,80.8140082 121.326703,80.8140082 C121.633517,80.8140082 121.952179,80.8508775 122.273381,80.9237685 C123.241219,81.1509174 124.237833,80.9246161 125.011849,80.3041946 C125.786289,79.6837732 126.226407,78.759074 126.218366,77.7665692 L126.218366,77.7284285 C126.218366,75.7650319 127.557766,74.0936233 129.475667,73.6639051 C130.958527,73.3358954 131.993229,72.0437745 131.993229,70.521962 C131.993229,70.0316426 131.881507,69.5557319 131.661447,69.1082148 C131.378333,68.5335621 131.234871,67.9165309 131.234871,67.2736489 C131.234871,65.9866134 131.812526,64.7932344 132.819721,63.9986372 C133.595853,63.3841488 134.041473,62.4641112 134.041473,61.4754205 C134.041473,60.4799491 133.593737,59.5582164 132.81295,58.9458469 C132.812526,58.9458469 132.812526,58.9454231 132.812526,58.9454231 C131.800254,58.148707 131.220059,56.9536329 131.220059,55.6661736 C131.220059,55.0338862 131.36606,54.4015988 131.641557,53.8362694 C131.859924,53.3900236 131.9708,52.9162318 131.9708,52.4293027 C131.9708,50.9049475 130.933136,49.6115552 129.44689,49.2835455 C127.552264,48.8652696 126.176894,47.15233 126.176894,45.2109702 C126.183242,44.3320398 125.854846,43.523034 125.251799,42.9153261 C124.649598,42.3080419 123.818451,41.9596906 122.971646,41.9596906 C122.717309,41.9596906 122.467203,41.9880842 122.228523,42.0448714 C121.923826,42.11861 121.599238,42.1559031 121.26661,42.1559031 C119.670758,42.1559031 118.196361,41.2218806 117.509945,39.7763495 C116.971646,38.6444193 115.856961,37.9405122 114.601777,37.9405122 C113.864156,37.9405122 113.168007,38.1888503 112.588658,38.6579805 C111.85273,39.2593316 110.92171,39.5911554 109.96953,39.5911554 C109.024545,39.5911554 108.096064,39.2627219 107.355904,38.6664562 C106.774439,38.1990211 106.07956,37.9519544 105.345324,37.9519544 C104.088447,37.9519544 102.972493,38.6596756 102.433347,39.7983863 C101.616166,41.53082 99.676259,42.5262913 97.7253491,42.0758077 C96.7642827,41.8516253 95.7706306,42.0749601 94.9974609,42.6894486 C94.2247143,43.3030895 93.7816335,44.2210081 93.7816335,45.2071562 L93.7816335,45.2715715 C93.7816335,47.237087 92.4418113,48.9072243 90.5230639,49.3322808 C89.0418959,49.6636808 88.0067711,50.9558017 88.0067711,52.4742239 C88.0067711,52.9649671 88.1184934,53.440454 88.3389759,53.8879711 C88.6216674,54.4630476 88.7651291,55.0813501 88.7651291,55.7263511 C88.7651291,57.0091488 88.1878967,58.202104 87.1815489,59.000939 C86.4041473,59.616275 85.9585273,60.5358888 85.9585273,61.5250033 C85.9585273,62.5196271 86.4062632,63.4417836 87.1870504,64.0545769 C88.1997461,64.8508692 88.7799408,66.0463671 88.7799408,67.3338264 C88.7799408,67.96569 88.6339399,68.5984012 88.3584427,69.1633069 C88.1400762,69.6104002 88.0292002,70.0837682 88.0292002,70.5711211 C88.0292002,72.0925098 89.0668642,73.3846307 90.5531105,73.7130642 C92.4477359,74.1309164 93.8231062,75.8455511 93.8231062,77.7894536 C93.8167584,78.6679602 94.1455777,79.476966 94.7482014,80.0850977 C95.350402,80.6919581 96.1815489,81.0407332 97.0283538,81.0407332 C97.2826915,81.0407332 97.5327973,81.0119158 97.7714769,80.9551286 C98.0761744,80.8818138 98.4007617,80.8445207 98.7333898,80.8445207 L98.7333898,80.8445207 Z M105.212865,87 C103.522641,87 102.020736,86.0502975 101.293694,84.5208569 C101.055861,84.021638 100.693187,83.5851393 100.244604,83.2588247 C99.6703343,82.8375823 98.9915362,82.6146713 98.279306,82.6146713 C98.0114262,82.6146713 97.7520102,82.64476 97.5086754,82.7032424 C97.1836648,82.7803713 96.8472281,82.8193595 96.5057131,82.8193595 C95.3626746,82.8193595 94.2420652,82.3498056 93.4312315,81.532324 C92.6170123,80.7106046 92.1730851,79.6189341 92.1811257,78.457339 C92.1811257,76.8850961 91.0770207,75.5086419 89.5560728,75.1730041 C87.5531105,74.7305724 86.1540415,72.9888154 86.1540415,70.9364239 C86.1540415,70.277438 86.3030047,69.6379462 86.5966991,69.0365951 C86.8180279,68.5839926 86.9348286,68.0762979 86.9348286,67.5690271 C86.9348286,66.5354151 86.4688955,65.5763894 85.6567922,64.9373213 C84.6043165,64.1113641 84,62.8679785 84,61.5258509 C84,60.1917752 84.6005078,58.9522037 85.647482,58.1228561 C86.4557766,57.4816692 86.9191705,56.523491 86.9191705,55.4936931 C86.9191705,54.9762514 86.8044858,54.479999 86.5780787,54.0197683 C86.2809987,53.4162983 86.1303428,52.7742638 86.1303428,52.11104 C86.1303428,50.0633102 87.525603,48.3211294 89.5234871,47.8744599 C91.0634786,47.5328891 92.1379602,46.193728 92.1379602,44.6172472 L92.1379602,44.550713 C92.1379602,43.2200276 92.7359289,41.982575 93.7778248,41.154075 C94.8197207,40.3264226 96.1599661,40.0251113 97.4540838,40.3272702 C99.0296234,40.6900302 100.577656,39.8903477 101.234025,38.4999086 C101.96022,36.9649588 103.463394,36.011866 105.15785,36.011866 C106.149386,36.011866 107.086754,36.3445373 107.869234,36.9738583 C108.464664,37.4531593 109.209903,37.7171774 109.968684,37.7171774 C110.731697,37.7171774 111.477359,37.4510404 112.06898,36.9683491 C112.85146,36.3339427 113.790944,36 114.787135,36 C116.478629,36 117.980533,36.9484312 118.706306,38.4744815 C119.257723,39.635229 120.440542,40.3849049 121.720694,40.3849049 C121.988574,40.3849049 122.24799,40.3556638 122.491325,40.2967576 C122.816335,40.2192049 123.152772,40.1810643 123.494287,40.1810643 C124.637325,40.1810643 125.757935,40.6501944 126.568769,41.467676 C127.382988,42.2893954 127.827338,43.3810659 127.818874,44.542661 C127.818874,46.112785 128.922979,47.487544 130.443927,47.8231819 C132.44689,48.2656136 133.845959,50.0094895 133.845959,52.0639999 C133.845959,52.722562 133.696995,53.3620538 133.403301,53.9634049 C133.181972,54.4160074 133.065171,54.9237021 133.065171,55.4309729 C133.065171,56.4641611 133.531105,57.4236106 134.343208,58.0631024 C135.396107,58.8890597 136,60.1324453 136,61.4745729 C136,62.8082248 135.399492,64.0482201 134.352518,64.8771439 C133.544223,65.5153643 133.080829,66.4735425 133.080829,67.5063069 C133.080829,68.0216297 133.195514,68.5161869 133.421921,68.9768414 C133.719001,69.5794639 133.869657,70.2214984 133.869657,70.8855697 C133.869657,72.9371136 132.473974,74.6792944 130.475667,75.1217261 C128.937368,75.4662634 127.86204,76.8075434 127.86204,78.3827528 L127.86204,78.4179269 C127.87262,79.7528502 127.279306,81.0004736 126.235294,81.8366017 C125.190859,82.6723061 123.846382,82.9770076 122.545493,82.6727298 C122.2865,82.6138237 122.0292,82.583735 121.783326,82.583735 C121.055015,82.583735 120.338553,82.8261401 119.765552,83.2668766 C119.341938,83.5838679 118.997884,84.0085006 118.765975,84.5005152 C118.03978,86.035465 116.536606,86.9885578 114.84215,86.9885578 C113.850614,86.9885578 112.913246,86.6558865 112.130766,86.0261417 C111.535336,85.5468407 110.790097,85.2828226 110.031316,85.2828226 C109.269149,85.2828226 108.523064,85.5476883 107.92975,86.0291082 C107.145578,86.6643622 106.205671,87 105.212865,87 L105.212865,87 Z" id="Fill-3" fill="#4A4A4A"></path>
                    <path d="M109.5,66.5610588 C109.601378,66.5610588 109.702756,66.5921908 109.78899,66.6548756 L115.398008,70.7306477 L113.256031,64.1348638 C113.189988,63.9325056 113.262341,63.7103743 113.43481,63.5850048 L119.043407,59.5092327 L112.109325,59.5092327 C111.896053,59.5092327 111.707178,59.3720835 111.641136,59.1693046 L109.5,52.5747828 L107.358444,59.1693046 C107.292401,59.3720835 107.103947,59.5092327 106.890675,59.5092327 L99.9565929,59.5092327 L105.56519,63.5850048 C105.737659,63.7103743 105.809591,63.9325056 105.743548,64.1348638 L103.601992,70.7306477 L109.210589,66.6548756 C109.296823,66.5921908 109.398622,66.5610588 109.5,66.5610588 M116.333546,72.5110634 C116.231747,72.5110634 116.130369,72.4790899 116.044135,72.4168259 L109.5,67.6611975 L102.955865,72.4168259 C102.783397,72.5417747 102.549933,72.5417747 102.377464,72.4168259 C102.204996,72.2914563 102.132643,72.0693251 102.198686,71.8665461 L104.697378,64.1710443 L98.1532436,59.4158366 C97.9807749,59.2900464 97.9084222,59.0679151 97.9744651,58.8651362 C98.040508,58.662778 98.2293822,58.5252081 98.4422338,58.5252081 L106.533118,58.5252081 L109.031811,50.8297062 C109.097854,50.627348 109.286728,50.4897781 109.5,50.4897781 C109.712852,50.4897781 109.902146,50.627348 109.967769,50.8297062 L112.466882,58.5252081 L120.557346,58.5252081 C120.770618,58.5252081 120.959492,58.662778 121.025114,58.8651362 C121.091157,59.0679151 121.018804,59.2900464 120.846756,59.4158366 L114.302622,64.1710443 L116.801314,71.8665461 C116.867357,72.0693251 116.795004,72.2914563 116.622536,72.4168259 C116.536301,72.4790899 116.434923,72.5110634 116.333546,72.5110634 M109.5,44.6659844 C100.21782,44.6659844 92.665795,52.2171852 92.665795,61.4983172 C92.665795,67.3999409 95.6713772,72.7685337 100.70578,75.8585983 C103.349599,77.4778847 106.390516,78.3340156 109.5,78.3340156 C112.609484,78.3340156 115.650401,77.4778847 118.29422,75.8581776 C123.328202,72.7685337 126.333784,67.3999409 126.333784,61.4983172 C126.333784,52.2171852 118.78218,44.6659844 109.5,44.6659844 M109.5,80 C106.083017,80 102.741331,79.0593078 99.8354442,77.2793128 C94.3029855,73.8829763 91,67.9838768 91,61.4983172 C91,51.2983695 99.2991087,43 109.5,43 C119.700891,43 128,51.2983695 128,61.4983172 C128,67.9838768 124.697014,73.8829763 119.164976,77.2788921 C116.258669,79.0593078 112.916562,80 109.5,80" id="Fill-5" fill="#4A4A4A"></path>
                    <path d="M109.500206,66.0557466 C109.60115,66.0557466 109.702093,66.0868485 109.787958,66.1494727 L115.37293,70.2213052 L113.240136,63.6318967 C113.174376,63.4297341 113.246418,63.2078175 113.418148,63.0825692 L119.002701,59.0107367 L112.098345,59.0107367 C111.885987,59.0107367 111.697923,58.87372 111.632163,58.6711371 L109.500206,52.0829895 L107.367831,58.6711371 C107.302071,58.87372 107.114425,59.0107367 106.902067,59.0107367 L99.9977114,59.0107367 L105.582265,63.0825692 C105.753994,63.2078175 105.825618,63.4297341 105.759858,63.6318967 L103.627483,70.2213052 L109.212036,66.1494727 C109.297901,66.0868485 109.399263,66.0557466 109.500206,66.0557466 M116.304457,72 C116.203095,72 116.102151,71.9680575 116.016287,71.9058536 L109.500206,67.1548219 L102.984126,71.9058536 C102.812397,72.0306816 102.579934,72.0306816 102.408205,71.9058536 C102.236475,71.7806052 102.164433,71.5586887 102.230192,71.3561058 L104.718173,63.6680422 L98.2020929,58.9174308 C98.0303636,58.7917622 97.9583211,58.5698456 98.0240808,58.3672627 C98.0898406,58.1651001 98.2779051,58.0276632 98.4898442,58.0276632 L106.546043,58.0276632 L109.034024,50.3395996 C109.099784,50.137437 109.287848,50 109.500206,50 C109.712145,50 109.900629,50.137437 109.96597,50.3395996 L112.454369,58.0276632 L120.510149,58.0276632 C120.722507,58.0276632 120.910572,58.1651001 120.975913,58.3672627 C121.041673,58.5698456 120.96963,58.7917622 120.79832,58.9174308 L114.282239,63.6680422 L116.77022,71.3561058 C116.83598,71.5586887 116.763937,71.7806052 116.592208,71.9058536 C116.506343,71.9680575 116.4054,72 116.304457,72" id="Fill-7" fill="#4A4A4A"></path>
                    <path d="M109.500206,65.4421137 C109.588584,65.4421137 109.676962,65.469433 109.752355,65.5240715 L114.637845,69.0865047 L112.772278,63.3217179 C112.714895,63.144773 112.777723,62.9501758 112.928091,62.841319 L117.81358,59.2788858 L111.773316,59.2788858 C111.587346,59.2788858 111.422737,59.158681 111.365773,58.9817362 L109.500206,53.21779 L107.63464,58.9817362 C107.577257,59.158681 107.412648,59.2788858 107.227097,59.2788858 L101.186413,59.2788858 L106.072322,62.841319 C106.222271,62.9501758 106.285517,63.144773 106.228135,63.3217179 L104.362149,69.0865047 L109.248057,65.5240715 C109.323451,65.469433 109.411828,65.4421137 109.500206,65.4421137 M116.304457,72 C116.203095,72 116.102151,71.9680575 116.016287,71.9058536 L109.500206,67.1548219 L102.984126,71.9058536 C102.812397,72.0306816 102.579934,72.0306816 102.408205,71.9058536 C102.236475,71.7806052 102.164433,71.5586887 102.230192,71.3561058 L104.718173,63.6680422 L98.2020929,58.9174308 C98.0303636,58.7917622 97.9583211,58.5698456 98.0240808,58.3672627 C98.0898406,58.1651001 98.2779051,58.0276632 98.4898442,58.0276632 L106.546043,58.0276632 L109.034024,50.3395996 C109.099784,50.137437 109.287848,50 109.500206,50 C109.712145,50 109.900629,50.137437 109.96597,50.3395996 L112.454369,58.0276632 L120.510149,58.0276632 C120.722507,58.0276632 120.910572,58.1651001 120.975913,58.3672627 C121.041673,58.5698456 120.96963,58.7917622 120.79832,58.9174308 L114.282239,63.6680422 L116.77022,71.3561058 C116.83598,71.5586887 116.763937,71.7806052 116.592208,71.9058536 C116.506343,71.9680575 116.4054,72 116.304457,72" id="Fill-9" fill="#4A4A4A"></path>
                    <path d="M110,95.3883913 C110.151271,95.3883913 110.294043,95.454958 110.38455,95.5673158 L118.684032,105.915262 L118.684032,84.1967012 C118.611371,84.3026991 118.545509,84.413361 118.487295,84.5278388 C117.784057,85.9041165 116.328291,86.7584602 114.688111,86.7584602 C113.728223,86.7584602 112.8206,86.4603939 112.062548,85.8960607 C111.48636,85.4665569 110.764851,85.2295454 110.030169,85.2295454 C109.292088,85.2295454 108.569729,85.4674049 107.995666,85.8986046 C107.235914,86.4684497 106.326591,86.76906 105.365004,86.76906 C103.728223,86.76906 102.274157,85.9172603 101.570494,84.5464945 C101.496983,84.4048812 101.412,84.2679318 101.315968,84.1390383 L101.315968,105.915262 L109.61545,95.5673158 C109.705957,95.454958 109.848305,95.3883913 110,95.3883913 M119.502847,110 C119.348602,110 119.199456,109.928345 119.10385,109.799876 L110,97.5855173 L100.895725,109.799876 C100.767825,109.971593 100.543894,110.041975 100.340784,109.97456 C100.137248,109.90757 100,109.717621 100,109.503929 L100,82.4960697 C100,82.3090892 100.104955,82.1386445 100.271522,82.0538461 C100.43809,81.9694717 100.638226,81.9851594 100.789071,82.0945493 C101.372907,82.5181173 101.845415,83.0841464 102.15518,83.733278 C102.719045,84.9145194 103.883318,85.6480254 105.193337,85.6480254 C105.960313,85.6480254 106.687771,85.3885424 107.295827,84.8979838 C108.067477,84.2738677 109.038837,83.9304343 110.031444,83.9304343 C111.018951,83.9304343 111.988612,84.2721717 112.761961,84.8924719 C113.369168,85.3792146 114.095351,85.6365776 114.861477,85.6365776 C116.174896,85.6365776 117.340444,84.9001037 117.903459,83.7146224 C118.20515,83.0769386 118.655987,82.5236291 119.20583,82.114053 C119.356251,82.0021191 119.557661,81.9847354 119.725504,82.0682618 C119.893771,82.1526362 120,82.324353 120,82.5117574 L120,109.503929 C120,109.717621 119.862327,109.90757 119.658792,109.97456 C119.607801,109.99152 119.555112,110 119.502847,110" id="Fill-11" fill="#4A4A4A"></path>
                    <g id="Group-15">
                        <mask id="mask-2" fill="white">
                            <use xlink:href="#path-1"></use>
                        </mask>
                        <g id="Clip-14"></g>
                        <path d="M2.39918571,22.2246737 L19.0744714,22.2246737 L19.0744714,3.02551579 L2.39918571,22.2246737 Z M19.8317571,23.7126737 L0.757328571,23.7126737 C0.462042857,23.7126737 0.193328571,23.5442526 0.0694714286,23.2802526 C-0.0543857143,23.0166737 -0.0106714286,22.7067789 0.181328571,22.4857263 L19.2557571,0.524463158 C19.4610429,0.286989474 19.7953286,0.201094737 20.0936143,0.309305263 C20.3910429,0.417094737 20.5890429,0.695831579 20.5890429,1.00741053 L20.5890429,22.9686737 C20.5890429,23.3792 20.2500429,23.7126737 19.8317571,23.7126737 L19.8317571,23.7126737 Z" id="Fill-13" fill="#4A4A4A" mask="url(#mask-2)"></path>
                    </g>
                    <path d="M40.7330681,83.7027431 L38.1308669,92.2580669 L45.2294288,86.8710198 L86.2161024,27.9638341 L81.7193198,24.7947081 L40.7330681,83.7027431 Z M36.7455861,95 C36.5962137,95 36.4464194,94.954563 36.3181449,94.8636889 C36.0531567,94.6772698 35.9379627,94.3405262 36.0329028,94.0292614 L39.3418799,83.1494306 C39.3646655,83.0746931 39.3992659,83.0037774 39.4439932,82.9392313 L80.925621,23.3199158 C81.0387051,23.1564275 81.2121289,23.0455951 81.4070725,23.0107742 C81.6011722,22.9776519 81.8020231,23.0213904 81.9640541,23.1351952 L87.6819768,27.1650767 C88.0191194,27.4024533 88.1014008,27.8708368 87.8651056,28.2101282 L46.3834778,87.8294437 C46.3387505,87.8935651 46.2843182,87.9504676 46.2218687,87.9976032 L37.194547,94.8479771 C37.061631,94.9486179 36.9038195,95 36.7455861,95 L36.7455861,95 Z" id="Fill-16" fill="#4A4A4A"></path>
                    <path d="M82.8535595,23.0247388 L87.5255766,26.2009898 L89.9337018,22.8613085 C90.8359268,21.6108964 90.5215947,19.881259 89.2335788,19.0058003 C88.6092987,18.5819029 87.8521838,18.4176214 87.1025217,18.5470038 C86.3524212,18.6755349 85.6987684,19.0798547 85.2621231,19.6854831 L82.8535595,23.0247388 Z M87.7154034,28 C87.5575798,28 87.4023865,27.953184 87.2713053,27.8642337 L81.3301233,23.825292 C80.9798426,23.5873817 80.8947932,23.1183708 81.1402966,22.7783166 L83.9929583,18.8227924 C84.6672158,17.8886009 85.6759717,17.2642461 86.8337832,17.0659166 C87.9907179,16.8680127 89.159051,17.1191166 90.1222133,17.773689 C91.0853757,18.4282614 91.7280685,19.4075665 91.931924,20.532001 C92.1362179,21.6551588 91.8771242,22.7893822 91.2028666,23.7239992 L88.350205,27.679949 C88.2322757,27.8429537 88.0525321,27.9544608 87.8499918,27.9889344 C87.8052751,27.9965952 87.7605584,28 87.7154034,28 L87.7154034,28 Z" id="Fill-18" fill="#4A4A4A"></path>
                    <path d="M43.4918812,86 C43.3944594,86 43.2957833,85.9704528 43.2100689,85.9087891 C42.9872114,85.7486348 42.933274,85.4343213 43.0888143,85.20608 L84.1037975,25.2154481 C84.2601741,24.9867786 84.5666555,24.9315382 84.7899311,25.0912643 C85.0127886,25.2514186 85.066726,25.5657321 84.9111857,25.7935452 L43.8957843,85.7846053 C43.8000351,85.9250615 43.6474215,86 43.4918812,86" id="Fill-20" fill="#4A4A4A"></path>
                    <path d="M45.4810946,88 C45.3785617,88 45.2747086,87.9708741 45.1840572,87.9100896 L39.2208673,83.9050663 C38.9867578,83.7471955 38.9295506,83.4369413 39.0936913,83.2123763 C39.258272,82.9869671 39.5808325,82.9325143 39.8158221,83.0899631 L45.779012,87.0949863 C46.0135615,87.2528572 46.0703287,87.5631114 45.906188,87.7876764 C45.8054153,87.9261299 45.6447951,88 45.4810946,88" id="Fill-22" fill="#4A4A4A"></path>
                    <g id="Group-26">
                        <mask id="mask-4" fill="white">
                            <use xlink:href="#path-3"></use>
                        </mask>
                        <g id="Clip-25"></g>
                        <path d="M1.49583069,23.5667088 L1.49583069,103.43377 C1.49583069,106.774017 4.19001058,109.491382 7.50133333,109.491382 L72.429164,109.491382 C75.7409101,109.491382 78.4346667,106.774017 78.4346667,103.43377 L78.4346667,41.5188242 L46.4075767,87.6521319 C46.362709,87.7165973 46.3081058,87.773805 46.2454603,87.8211935 L37.1897989,94.7083165 C36.9307513,94.905555 36.5760423,94.9123858 36.3106455,94.7241127 C36.0448254,94.5366935 35.9292698,94.1981435 36.0245079,93.8852088 L39.343873,82.9470127 C39.3667302,82.8714473 39.4014392,82.8001512 39.4463069,82.7356858 L78.4346667,26.5748088 L78.4346667,7.83331269 C78.4346667,4.49349346 75.7409101,1.77570115 72.429164,1.77570115 L19.9313862,1.77570115 L1.49583069,23.5667088 Z M72.429164,111.000128 L7.50133333,111.000128 C3.36503704,111.000128 0.000380952381,107.605663 0.000380952381,103.43377 L0.000380952381,23.2887819 C0.000380952381,23.1094742 0.0634497354,22.9357165 0.179005291,22.7991012 L19.0175238,0.531647308 C19.159746,0.364293462 19.3675767,0.267381923 19.586836,0.267381923 L72.429164,0.267381923 C76.5654603,0.267381923 79.930963,3.66142038 79.930963,7.83331269 L79.930963,26.812605 C79.930963,26.9671512 79.8835556,27.1187088 79.7955132,27.245505 L40.7394286,83.5032935 L38.1294815,92.1045127 L45.2499048,86.6885665 L78.5701164,38.6934473 C78.7572063,38.4236319 79.0966772,38.3079358 79.4077884,38.406555 C79.7188995,38.5056012 79.930963,38.7967627 79.930963,39.1263473 L79.930963,103.43377 C79.930963,107.605663 76.5654603,111.000128 72.429164,111.000128 L72.429164,111.000128 Z" id="Fill-24" fill="#4A4A4A" mask="url(#mask-4)"></path>
                    </g>
                    <path d="M40.2429198,83 L11.7570802,83 C11.338908,83 11,82.5523486 11,82 C11,81.4482173 11.338908,81 11.7570802,81 L40.2429198,81 C40.661092,81 41,81.4482173 41,82 C41,82.5523486 40.661092,83 40.2429198,83" id="Fill-27" fill="#4A4A4A"></path>
                    <path d="M68.2607932,83 L49.7392068,83 C49.330907,83 49,82.5523486 49,82 C49,81.4482173 49.330907,81 49.7392068,81 L68.2607932,81 C68.669093,81 69,81.4482173 69,82 C69,82.5523486 68.669093,83 68.2607932,83" id="Fill-29" fill="#4A4A4A"></path>
                    <path d="M48.2540825,72 L11.7459175,72 C11.333911,72 11,71.5517827 11,70.9994341 C11,70.4476514 11.333911,70 11.7459175,70 L48.2540825,70 C48.666089,70 49,70.4476514 49,70.9994341 C49,71.5517827 48.666089,72 48.2540825,72" id="Fill-31" fill="#4A4A4A"></path>
                    <path d="M68.2615449,72 L57.7384551,72 C57.3305705,72 57,71.5517827 57,70.9994341 C57,70.4476514 57.3305705,70 57.7384551,70 L68.2615449,70 C68.6694295,70 69,70.4476514 69,70.9994341 C69,71.5517827 68.6694295,72 68.2615449,72" id="Fill-33" fill="#4A4A4A"></path>
                    <path d="M56.2515401,60 L11.7484599,60 C11.3350491,60 11,59.5523486 11,59 C11,58.4482173 11.3350491,58 11.7484599,58 L56.2515401,58 C56.6649509,58 57,58.4482173 57,59 C57,59.5523486 56.6649509,60 56.2515401,60" id="Fill-35" fill="#4A4A4A"></path>
                    <path d="M68.2727647,60 L65.7272353,60 C65.3255479,60 65,59.5523486 65,59 C65,58.4482173 65.3255479,58 65.7272353,58 L68.2727647,58 C68.6744521,58 69,58.4482173 69,59 C69,59.5523486 68.6744521,60 68.2727647,60" id="Fill-37" fill="#4A4A4A"></path>
                    <path d="M64.2543022,49 L11.7456978,49 C11.3338127,49 11,48.5517827 11,48 C11,47.4482173 11.3338127,47 11.7456978,47 L64.2543022,47 C64.6666094,47 65,47.4482173 65,48 C65,48.5517827 64.6666094,49 64.2543022,49" id="Fill-39" fill="#4A4A4A"></path>
                    <path d="M67.2597511,37 L11.7402489,37 C11.3313734,37 11,36.5517827 11,35.9994341 C11,35.4476514 11.3313734,35 11.7402489,35 L67.2597511,35 C67.6686266,35 68,35.4476514 68,35.9994341 C68,36.5517827 67.6686266,37 67.2597511,37" id="Fill-41" fill="#4A4A4A"></path>
                    <path d="M68.257555,24 L30.742445,24 C30.3323565,24 30,23.5517827 30,22.9994341 C30,22.4476514 30.3323565,22 30.742445,22 L68.257555,22 C68.6676435,22 69,22.4476514 69,22.9994341 C69,23.5517827 68.6676435,24 68.257555,24" id="Fill-43" fill="#4A4A4A"></path>
                    <path d="M68.257555,13 L30.742445,13 C30.3323565,13 30,12.5517827 30,12 C30,11.4482173 30.3323565,11 30.742445,11 L68.257555,11 C68.6676435,11 69,11.4482173 69,12 C69,12.5517827 68.6676435,13 68.257555,13" id="Fill-45" fill="#4A4A4A"></path>
                </g>
            </g>
        </g>
    </g>
</svg>