<?xml version="1.0" encoding="UTF-8"?>
<svg width="132px" height="124px" viewBox="0 0 132 124" version="1.1" xmlns="http://www.w3.org/2000/svg" xmlns:xlink="http://www.w3.org/1999/xlink">
    <!-- Generator: Sketch 63.1 (92452) - https://sketch.com -->
    <title>iveni_icon_apoyoenimplementacion</title>
    <desc>Created with Sketch.</desc>
    <defs>
        <polygon id="path-1" points="0.3068759 0.00312965416 29.2239044 0.00312965416 29.2239044 28.7417219 0.3068759 28.7417219"></polygon>
        <polygon id="path-3" points="0 0.339556597 40.9099276 0.339556597 40.9099276 41.4260981 0 41.4260981"></polygon>
        <polygon id="path-5" points="0.464802714 0.172581722 25.768606 0.172581722 25.768606 26.1091115 0.464802714 26.1091115"></polygon>
    </defs>
    <g id="Symbols" stroke="none" stroke-width="1" fill="none" fill-rule="evenodd">
        <g id="inveni_servicios_article3" transform="translate(-178.000000, -37.000000)">
            <g id="iveni_icon_apoyoenimplementacion" transform="translate(178.000000, 37.000000)">
                <g id="Group-36">
                    <g id="Group-3" transform="translate(92.794702, 95.258278)">
                        <mask id="mask-2" fill="white">
                            <use xlink:href="#path-1"></use>
                        </mask>
                        <g id="Clip-2"></g>
                        <path d="M14.7657115,1.7186911 C7.74516211,1.7186911 2.033093,7.39550052 2.033093,14.3727132 C2.033093,21.3499258 7.74516211,27.0267352 14.7657115,27.0267352 C21.7862609,27.0267352 27.49833,21.3499258 27.49833,14.3727132 C27.49833,7.39550052 21.7862609,1.7186911 14.7657115,1.7186911 M14.7657115,28.7422967 C6.79336481,28.7422967 0.3068759,22.2958478 0.3068759,14.3727132 C0.3068759,6.44957851 6.79336481,0.00312965416 14.7657115,0.00312965416 C22.7380582,0.00312965416 29.2239044,6.44957851 29.2239044,14.3727132 C29.2239044,22.2958478 22.7380582,28.7422967 14.7657115,28.7422967" id="Fill-1" fill="#4A4A4A" mask="url(#mask-2)"></path>
                    </g>
                    <g id="Group-6">
                        <mask id="mask-4" fill="white">
                            <use xlink:href="#path-3"></use>
                        </mask>
                        <g id="Clip-5"></g>
                        <path d="M20.4551883,2.06974887 C10.126132,2.06974887 1.72302773,10.5096955 1.72302773,20.8826019 C1.72302773,31.2567969 10.126132,39.6960992 20.4551883,39.6960992 C30.7842446,39.6960992 39.1873489,31.2567969 39.1873489,20.8826019 C39.1873489,10.5096955 30.7842446,2.06974887 20.4551883,2.06974887 M20.4551883,41.4260981 C9.17598717,41.4260981 -0.000192466887,32.2103903 -0.000192466887,20.8826019 C-0.000192466887,9.55545769 9.17598717,0.339105573 20.4551883,0.339105573 C31.7343895,0.339105573 40.9099276,9.55545769 40.9099276,20.8826019 C40.9099276,32.2103903 31.7343895,41.4260981 20.4551883,41.4260981" id="Fill-4" fill="#4A4A4A" mask="url(#mask-4)"></path>
                    </g>
                    <path d="M98.4798144,100.18543 C98.2538919,100.18543 98.0273107,100.099143 97.8547402,99.9265687 L78.2725948,80.3446289 C77.9267951,79.9988212 77.9267951,79.438942 78.2725948,79.0937929 C78.6177359,78.7479852 79.1782608,78.7479852 79.5234019,79.0937929 L99.1048886,98.6757327 C99.4506883,99.0208817 99.4506883,99.5807609 99.1048886,99.9265687 C98.9323181,100.099143 98.7063956,100.18543 98.4798144,100.18543" id="Fill-7" fill="#4A4A4A"></path>
                    <path d="M49.2401739,50.9139073 C49.0217608,50.9139073 48.8039826,50.8307277 48.6369982,50.6643685 L33.9188747,35.9453915 C33.5855407,35.6120382 33.5855407,35.0729583 33.9188747,34.739605 C34.2515737,34.4068866 34.7912573,34.4068866 35.1245913,34.739605 L49.8427148,49.458582 C50.1760487,49.7913003 50.1760487,50.3316502 49.8427148,50.6643685 C49.6763652,50.8307277 49.4579521,50.9139073 49.2401739,50.9139073" id="Fill-9" fill="#4A4A4A"></path>
                    <path d="M107.151806,119.072848 L107.151806,116.669873 C105.746729,116.644842 104.318422,116.212728 103.470199,115.611984 L104.052274,114.001438 C104.898506,114.554096 106.158894,115.034295 107.514856,115.034295 C109.234532,115.034295 110.396691,114.049524 110.396691,112.679406 C110.396691,111.357375 109.45223,110.540574 107.659545,109.819287 C105.189875,108.858229 103.664666,107.727882 103.664666,105.637136 C103.664666,103.642561 105.092973,102.127528 107.296495,101.767872 L107.296495,99.3642384 L108.822368,99.3642384 L108.822368,101.695414 C110.251338,101.742841 111.244914,102.127528 111.971015,102.536587 L111.36571,104.12342 C110.857307,103.834246 109.864395,103.281588 108.313965,103.281588 C106.448936,103.281588 105.746729,104.387562 105.746729,105.372334 C105.746729,106.598853 106.642739,107.22331 108.750023,108.112569 C111.244914,109.122371 112.503311,110.34889 112.503311,112.487722 C112.503311,114.410497 111.171906,116.188356 108.677015,116.573042 L108.677015,119.072848 L107.151806,119.072848 Z" id="Fill-11" fill="#4A4A4A"></path>
                    <path d="M18.3075068,25.1541575 C19.9763957,26.1685004 22.1925876,25.9002659 23.577547,24.5128688 C24.5533138,23.5356361 25.0203201,22.1905576 24.8584417,20.8239942 C24.6965633,19.4567798 23.9289258,18.2620949 22.7520958,17.546586 C21.0825646,16.530941 18.867015,16.7998265 17.482698,18.1878747 C16.5062888,19.1651074 16.0392826,20.510186 16.2011609,21.8774004 C16.3630393,23.2439637 17.1306768,24.4386486 18.3075068,25.1541575 M20.5108513,27.5090215 C19.440013,27.5090215 18.3672477,27.2297191 17.4203877,26.6535359 C15.7829752,25.6574226 14.714064,23.9933274 14.4879482,22.0850867 C14.2624748,20.1774971 14.9119154,18.3037624 16.269895,16.9437096 C18.206654,15.0042183 21.3054685,14.6285599 23.6398573,16.0478586 C25.2766275,17.0426699 26.3455386,18.7080672 26.5710121,20.6150057 C26.7971279,22.5225953 26.1476873,24.3969811 24.7897076,25.7570339 C23.639215,26.9087493 22.0776026,27.5090215 20.5108513,27.5090215 M21.0196119,30.1164947 C21.3343754,30.1164947 21.6266557,30.2916283 21.7776137,30.5735349 L23.2563598,33.335308 L26.7264667,31.9238219 L25.913863,28.8951165 C25.8271424,28.5708914 25.9312071,28.2245304 26.1817331,28.005125 C26.6057003,27.6327219 26.9956216,27.2186512 27.3405767,26.77333 L27.341219,26.77333 C27.6855318,26.3293108 27.9900173,25.8468795 28.2469671,25.3410101 C28.3985674,25.0421761 28.7139733,24.837094 29.0370877,24.8676935 L32.1326902,24.9503774 L32.6645763,21.1990016 L29.6666146,20.3962514 C29.3454274,20.3103122 29.1019675,20.044682 29.0396572,19.7145974 C28.8270312,18.5824137 28.4094878,17.5257523 27.7985897,16.5719575 C27.6180824,16.2900509 27.6129434,15.9267625 27.7870269,15.6396475 L29.4058106,12.9644647 L26.4682321,10.625877 L24.2867284,12.8518322 C24.0522617,13.0920713 23.7034524,13.1741042 23.3893313,13.0621228 C22.3313405,12.6851623 21.2187479,12.5250029 20.0836723,12.5829467 C19.7528494,12.5927126 19.440013,12.4227873 19.2819889,12.1272086 L17.8032429,9.36543555 L14.333136,10.7762706 L15.1450973,13.804976 C15.2318179,14.1285501 15.1283956,14.4755621 14.8778695,14.6956185 C14.45326,15.0680217 14.0633387,15.4827434 13.7183836,15.9267625 C13.3740709,16.3720838 13.068943,16.8538641 12.8126356,17.3597334 C12.6610352,17.6579163 12.3488412,17.8519306 12.022515,17.833701 L8.92691241,17.7510171 L8.39502635,21.502393 L11.392988,22.3044921 C11.7141752,22.3904313 11.9582775,22.6560615 12.0199455,22.9867972 C12.230002,24.1105172 12.646903,25.1678296 13.2597282,26.128135 C13.4402355,26.4106926 13.4447321,26.7726789 13.2706486,27.0597939 L11.6518649,29.7343257 L14.5913705,32.0755176 L16.7728742,29.8482602 C17.0073409,29.6086722 17.3561502,29.5285925 17.6702714,29.6392717 C18.7321164,30.0155812 19.8447089,30.1750896 20.9746456,30.1177968 C20.9894203,30.1171457 21.0048372,30.1164947 21.0196119,30.1164947 M22.8645113,35.3112583 C22.556814,35.3112583 22.2613217,35.1432862 22.1065095,34.853567 L20.5134208,31.877597 C19.5312302,31.877597 18.5638143,31.7376203 17.6253051,31.4602711 L15.274857,33.8594068 C14.9665172,34.1738661 14.473816,34.2051167 14.1295033,33.9310228 L9.98233367,30.6282235 C9.63802095,30.3541295 9.5513004,29.8625834 9.77998571,29.4836697 L11.5246748,26.6014516 C11.0364702,25.7407576 10.674171,24.8221197 10.4416314,23.8585591 L7.21177257,22.9939588 C6.78844779,22.8806753 6.51608102,22.4633494 6.57839134,22.0245387 L7.32868472,16.7321169 C7.39099505,16.2933062 7.76357224,15.944341 8.20488351,15.9827532 L11.5420189,16.0719476 C11.7880483,15.6448559 12.0623422,15.2346916 12.3623311,14.8466631 C12.66232,14.4599368 12.9905733,14.0927421 13.3425945,13.7489853 L12.4670381,10.4845982 C12.3520531,10.0568554 12.5717452,9.60892993 12.9783682,9.44356209 L17.8739041,7.45263752 C18.2798847,7.28987391 18.7443215,7.4571949 18.9530932,7.84717653 L20.5461819,10.8231465 C21.5302996,10.8237976 22.4977155,10.9637743 23.4342975,11.2404724 L25.7847457,8.84068565 C26.0930854,8.52622634 26.5851443,8.49497573 26.929457,8.76972071 L31.0753419,12.0705669 C31.4196546,12.3446608 31.5063751,12.8362069 31.2776898,13.2151206 L29.5336431,16.0973388 C30.020563,16.9541265 30.3835045,17.8727643 30.6173289,18.8428355 L33.8478301,19.7074358 C34.2711549,19.8207193 34.5435216,20.2367431 34.4812113,20.6762049 L33.7309179,25.9686266 C33.6686076,26.4080884 33.290249,26.7583557 32.8547191,26.7179903 L29.5169414,26.6287959 C29.2715543,27.0571897 28.9972604,27.467354 28.6966292,27.8534293 C28.3972827,28.2401557 28.0690293,28.6086525 27.7170081,28.9511072 L28.5925645,32.2161453 C28.7075495,32.6438881 28.4878575,33.0911625 28.0812344,33.2558793 L23.1856986,35.2474549 C23.0809915,35.2904245 22.9717879,35.3112583 22.8645113,35.3112583" id="Fill-13" fill="#4A4A4A"></path>
                    <path d="M64.0529801,70.243901 C64.2298076,70.243901 64.406635,70.2995017 64.5566511,70.4100567 L69.5059047,74.0519046 L67.6157022,68.1588735 C67.5007963,67.8019944 67.6265544,67.4089101 67.9265866,67.1878003 L72.8758401,63.5472453 L66.7583763,63.5472453 C66.3874855,63.5472453 66.0580885,63.3054468 65.9431826,62.9472746 L64.0529801,57.05489 L62.1627777,62.9472746 C62.0478717,63.3054468 61.7191131,63.5472453 61.3475839,63.5472453 L55.2301201,63.5472453 L60.1793737,67.1878003 C60.4794058,67.4089101 60.605164,67.8019944 60.4902581,68.1588735 L58.6000556,74.0519046 L63.5493092,70.4100567 C63.6993252,70.2995017 63.8761527,70.243901 64.0529801,70.243901 M71.1362921,77.192053 C70.9594646,77.192053 70.7826372,77.1370988 70.6326211,77.0265438 L64.0529801,72.185401 L57.4733392,77.0265438 C57.173307,77.2470072 56.7660293,77.2470072 56.4659972,77.0265438 C56.1659651,76.8054339 56.0402069,76.4136427 56.1544745,76.0554706 L58.6677224,68.2222325 L52.0880814,63.3817362 C51.7880493,63.1606263 51.6622911,62.7681885 51.7771971,62.4106629 C51.8914646,62.0524907 52.2208616,61.8106922 52.5923908,61.8106922 L60.7245385,61.8106922 L63.2377864,53.9768076 C63.3526924,53.619282 63.681451,53.3774834 64.0529801,53.3774834 C64.4245093,53.3774834 64.7532679,53.619282 64.8681738,53.9768076 L67.3814218,61.8106922 L75.5142079,61.8106922 C75.8850987,61.8106922 76.2144956,62.0524907 76.3287632,62.4106629 C76.4436691,62.7681885 76.317911,63.1606263 76.0178788,63.3817362 L69.4382379,68.2222325 L71.9514858,76.0554706 C72.0663917,76.4136427 71.9406336,76.8054339 71.6399631,77.0265438 C71.489947,77.1370988 71.3131195,77.192053 71.1362921,77.192053" id="Fill-15" fill="#4A4A4A"></path>
                    <path d="M106.702021,65.6953642 L84.6350767,65.6953642 C84.1527711,65.6953642 83.7615894,65.3278762 83.7615894,64.8741722 C83.7615894,64.4210796 84.1527711,64.0529801 84.6350767,64.0529801 L106.702021,64.0529801 C107.184977,64.0529801 107.576159,64.4210796 107.576159,64.8741722 C107.576159,65.3278762 107.184977,65.6953642 106.702021,65.6953642" id="Fill-17" fill="#4A4A4A"></path>
                    <path d="M43.4732327,65.6953642 L18.1161713,65.6953642 C17.6348723,65.6953642 17.2450331,65.3278762 17.2450331,64.8741722 C17.2450331,64.4210796 17.6348723,64.0529801 18.1161713,64.0529801 L43.4732327,64.0529801 C43.9545317,64.0529801 44.3443709,64.4210796 44.3443709,64.8741722 C44.3443709,65.3278762 43.9545317,65.6953642 43.4732327,65.6953642" id="Fill-19" fill="#4A4A4A"></path>
                    <path d="M64.0529801,44.474732 C58.8083413,44.474732 53.87322,46.5952943 50.159009,50.4463623 C46.4511536,54.3033702 44.4091002,59.4269075 44.4091002,64.8738422 C44.4091002,70.3214368 46.4511536,75.4456342 50.1596446,79.3033021 C53.87322,83.15305 58.8083413,85.2736124 64.0529801,85.2736124 C69.297619,85.2736124 74.2327402,83.15305 77.9475868,79.3019821 C81.6548067,75.4456342 83.6974957,70.3214368 83.6974957,64.8738422 C83.6974957,59.4269075 81.6548067,54.3033702 77.9463157,50.4457023 C74.2327402,46.5952943 69.297619,44.474732 64.0529801,44.474732 M64.0529801,87.0463576 C58.352645,87.0463576 52.989792,84.7416568 48.9527166,80.5559716 C44.9213613,76.3623666 42.7019868,70.7939929 42.7019868,64.8738422 C42.7019868,58.9543515 44.9213613,53.3853178 48.9520811,49.1930327 C52.989792,45.0073476 58.352645,42.7019868 64.0529801,42.7019868 C69.7533153,42.7019868 75.1161683,45.0073476 79.1532436,49.1917127 C83.184599,53.3853178 85.4039735,58.9543515 85.4039735,64.8738422 C85.4039735,70.7939929 83.184599,76.3623666 79.1545147,80.5553116 C75.1161683,84.7416568 69.7533153,87.0463576 64.0529801,87.0463576" id="Fill-21" fill="#4A4A4A"></path>
                    <path d="M78.8880766,50.9139073 C78.6639946,50.9139073 78.4405641,50.8285714 78.2692456,50.6578997 C77.9279115,50.3165562 77.9279115,49.7621988 78.2692456,49.4208553 L100.334803,27.3553453 C100.676138,27.0140019 101.23048,27.0140019 101.571814,27.3553453 C101.913148,27.6966888 101.913148,28.2503948 101.571814,28.5923897 L79.5062561,50.6578997 C79.3355891,50.8285714 79.1115071,50.9139073 78.8880766,50.9139073" id="Fill-23" fill="#4A4A4A"></path>
                    <path d="M34.5048499,96.0794702 C34.2907206,96.0794702 34.0772137,95.9973066 33.9135044,95.8342244 C33.5873308,95.50806 33.5873308,94.9789765 33.9135044,94.6528121 L48.6660166,79.9007193 C48.9921903,79.5739324 49.5219113,79.5739324 49.848085,79.9007193 C50.1742587,80.2268837 50.1742587,80.7559672 49.848085,81.0827541 L35.0955728,95.8342244 C34.932486,95.9973066 34.7183567,96.0794702 34.5048499,96.0794702" id="Fill-25" fill="#4A4A4A"></path>
                    <path d="M25.8675497,92.8842677 C19.803791,92.8842677 14.8703778,97.817036 14.8703778,103.880795 C14.8703778,109.943909 19.803791,114.877322 25.8675497,114.877322 C31.9313083,114.877322 36.8640767,109.943909 36.8640767,103.880795 C36.8640767,97.817036 31.9313083,92.8842677 25.8675497,92.8842677 M25.8675497,116.609272 C18.8488328,116.609272 13.1390728,110.898867 13.1390728,103.880795 C13.1390728,96.8627227 18.8488328,91.1523179 25.8675497,91.1523179 C32.8856217,91.1523179 38.5960265,96.8627227 38.5960265,103.880795 C38.5960265,110.898867 32.8856217,116.609272 25.8675497,116.609272" id="Fill-27" fill="#4A4A4A"></path>
                    <g id="Group-31" transform="translate(105.933775, 51.735099)">
                        <mask id="mask-6" fill="white">
                            <use xlink:href="#path-5"></use>
                        </mask>
                        <g id="Clip-30"></g>
                        <path d="M13.1167685,1.93715921 C7.08945915,1.93715921 2.18570079,6.96285457 2.18570079,13.1408466 C2.18570079,19.3188387 7.08945915,24.344534 13.1167685,24.344534 C19.1440778,24.344534 24.0471952,19.3188387 24.0471952,13.1408466 C24.0471952,6.96285457 19.1440778,1.93715921 13.1167685,1.93715921 M13.1167685,26.1091115 C6.14024125,26.1091115 0.464802714,20.2911301 0.464802714,13.1408466 C0.464802714,5.99056318 6.14024125,0.172581722 13.1167685,0.172581722 C20.0926548,0.172581722 25.7687342,5.99056318 25.7687342,13.1408466 C25.7687342,20.2911301 20.0926548,26.1091115 13.1167685,26.1091115" id="Fill-29" fill="#4A4A4A" mask="url(#mask-6)"></path>
                    </g>
                    <path d="M104.702318,18.2024803 C101.833852,18.2024803 99.5004091,20.5353715 99.5004091,23.4039735 C99.5004091,26.2725755 101.833852,28.606129 104.702318,28.606129 C107.570784,28.606129 109.903564,26.2725755 109.903564,23.4039735 C109.903564,20.5353715 107.570784,18.2024803 104.702318,18.2024803 M104.702318,30.384106 C100.853859,30.384106 97.7218543,27.2532772 97.7218543,23.4039735 C97.7218543,19.555332 100.853859,16.4238411 104.702318,16.4238411 C108.550777,16.4238411 111.682119,19.555332 111.682119,23.4039735 C111.682119,27.2532772 108.550777,30.384106 104.702318,30.384106" id="Fill-32" fill="#4A4A4A"></path>
                    <path d="M11.9069537,60.0831906 C9.03848774,60.0831906 6.70504499,62.4166333 6.70504499,65.2844371 C6.70504499,68.1535652 9.03848774,70.487008 11.9069537,70.487008 C14.7754196,70.487008 17.1088624,68.1535652 17.1088624,65.2844371 C17.1088624,62.4166333 14.7754196,60.0831906 11.9069537,60.0831906 M11.9069537,72.2649007 C8.05849476,72.2649007 4.92715232,69.1335582 4.92715232,65.2844371 C4.92715232,61.4366404 8.05849476,58.3046358 11.9069537,58.3046358 C15.7554126,58.3046358 18.8874172,61.4366404 18.8874172,65.2844371 C18.8874172,69.1335582 15.7554126,72.2649007 11.9069537,72.2649007" id="Fill-34" fill="#4A4A4A"></path>
                </g>
            </g>
        </g>
    </g>
</svg>