<?xml version="1.0" encoding="UTF-8"?>
<svg width="280px" height="338px" viewBox="0 0 280 338" version="1.1" xmlns="http://www.w3.org/2000/svg" xmlns:xlink="http://www.w3.org/1999/xlink">
    <!-- Generator: Sketch 63.1 (92452) - https://sketch.com -->
    <title>inveni_nosotros_ancla</title>
    <desc>Created with Sketch.</desc>
    <defs>
        <polygon id="path-1" points="0 0.00810578626 35.5769239 0.00810578626 35.5769239 15.9513806 0 15.9513806"></polygon>
        <polygon id="path-3" points="0.0445988161 0.458898816 3.771 0.458898816 3.771 2.66690118 0.0445988161 2.66690118"></polygon>
    </defs>
    <g id="Symbols" stroke="none" stroke-width="1" fill="none" fill-rule="evenodd">
        <g id="inveni_quehacemos_item1" transform="translate(-550.000000, -108.000000)">
            <g id="inveni_nosotros_ancla" transform="translate(550.000000, 108.000000)">
                <path d="M88.5064062,249.5785 C88.5204063,249.5425 88.5294062,249.5055 88.5364062,249.4675 C88.5434063,249.4295 88.5464062,249.3915 88.5454062,249.3525 C88.5444063,249.3415 88.5414062,249.3295 88.5404062,249.3185 L88.4544063,249.6815 C88.4754062,249.6485 88.4924062,249.6145 88.5064062,249.5785" id="Fill-1" fill="#4A4A4A"></path>
                <path d="M76.515,241.4515 C76.482,241.4725 76.453,241.4965 76.425,241.5225 C76.397,241.5495 76.371,241.5785 76.349,241.6095 L76.651,241.3905 C76.64,241.3935 76.628,241.3955 76.618,241.3995 C76.581,241.4145 76.548,241.4305 76.515,241.4515" id="Fill-3" fill="#4A4A4A"></path>
                <path d="M78.568306,254.818292 L78.5388388,254.774317 C78.3635866,254.517273 78.2850075,254.288499 78.2581252,254.09637 C77.8114648,253.174991 78.4814553,252.12954 78.4814553,252.12954 L79.6006911,250.426036 L79.8638278,250.067955 C79.9036344,250.009845 79.9393051,249.95697 79.9816965,249.896243 C79.989451,249.889438 79.9977225,249.882632 80.0054771,249.875826 L81.1469424,248.320999 C81.1247128,248.331993 81.1019662,248.34194 81.0797366,248.353457 C82.4807199,246.420655 84.2363433,244.089985 84.8975454,243.214675 L84.8980624,243.214675 C84.9657852,243.125154 85.0252365,243.046104 85.0681448,242.989042 C85.0722806,242.995324 85.0774503,243.002653 85.081586,243.008412 L85.5034319,242.534111 C85.8358423,242.252985 86.3672855,241.913227 86.9070001,242.022641 C86.9757568,242.036775 87.0486493,242.067139 87.1225757,242.106402 L87.1230927,242.105355 L87.1241266,242.107449 C87.5945675,242.358735 88.1472063,243.079609 88.3379675,243.738186 C88.4692774,244.19364 88.8435623,245.065285 89.0674094,245.586702 C89.1216911,245.711298 89.1749388,245.836417 89.2261186,245.962059 C89.6831183,247.134724 89.7353321,247.388103 89.3734545,248.213679 L89.3734545,248.214203 C89.1568449,249.34708 88.2345739,249.598889 88.2345739,249.598889 C88.3529596,249.918231 88.557162,250.641199 88.3700196,251.469917 C88.2185479,252.143675 87.7563785,252.482387 87.3851955,252.755136 C87.1928834,252.89596 87.0274536,253.021603 86.9235431,253.177609 C86.8852874,253.185985 86.8506506,253.200643 86.8180816,253.222631 C86.7669017,253.257183 86.7162389,253.290687 86.665059,253.324715 L86.553394,254.127257 C86.5254777,254.225677 86.5089347,254.292163 86.5068668,254.30054 L86.4996293,254.402624 C86.5006632,254.436652 86.5239268,255.394154 84.5951191,256.017131 C84.1789599,256.151674 83.9840629,255.997238 83.659924,255.740718 C83.3445735,255.49205 82.9527117,255.182655 82.2935775,255.170091 C81.8303742,255.160668 81.5434569,255.432893 81.2906595,255.673185 C81.0011575,255.948028 80.7726576,256.164761 80.2711986,256.084664 C79.327215,255.932846 78.9922197,255.440223 78.568306,254.818292 L78.568306,254.818292 Z M78.1748933,251.923277 C78.1748933,251.923277 77.4806053,252.953023 76.4688988,252.890201 C76.2833073,252.939411 76.0449851,252.954593 75.7430758,252.889678 L75.6918959,252.879208 C74.9609031,252.723201 74.3834499,252.600176 73.880957,251.776694 C73.6142015,251.339562 73.7232817,251.042208 73.8623461,250.665804 C73.9838336,250.336516 74.1208301,249.9643 73.9336877,249.535021 C73.6679661,248.92356 73.2347469,248.67751 72.8863105,248.479099 C72.5275347,248.27493 72.311959,248.152429 72.2737034,247.711633 C72.0969003,245.668893 72.9783308,245.321282 73.0098658,245.309242 L73.0998183,245.262649 C73.1065389,245.257414 73.1608205,245.21658 73.2399166,245.152712 L73.9274841,244.738615 C73.9388574,244.677887 73.9497137,244.617684 73.961604,244.556433 C73.9693585,244.517693 73.9693585,244.478953 73.961604,244.440737 C74.0634467,244.28316 74.1146265,244.080038 74.1689081,243.846029 C74.2733357,243.394239 74.4041286,242.831988 74.9588353,242.430456 C75.642267,241.935738 76.3794634,241.847265 76.7160096,241.8347 C76.7160096,241.8347 76.5893524,240.875629 77.5385057,240.236422 L77.5385057,240.236422 C78.1511128,239.579416 78.4023592,239.530729 79.6467012,239.504554 C79.7811129,239.504554 79.9155246,239.505601 80.0499363,239.508742 C80.6108466,239.516594 81.5501775,239.529159 82.0154487,239.476284 C82.689058,239.400375 83.5585982,239.638573 83.9695878,239.980949 L83.9716557,239.980949 L83.9706217,239.981472 C84.0357597,240.035917 84.0915923,240.092456 84.1303649,240.150566 C84.4384778,240.612826 84.3340503,241.240516 84.2063592,241.659848 L83.9370188,242.23728 C83.9442564,242.238327 83.9525279,242.240945 83.9592484,242.241992 C83.9240946,242.30429 83.8754996,242.390669 83.820184,242.487518 L83.8196671,242.488042 C83.2778846,243.443449 81.8319251,245.983523 80.6118805,248.038303 C80.6139484,248.012651 80.6144654,247.988046 80.6154993,247.962394 L79.6399807,249.629253 C79.6363619,249.639199 79.633777,249.64967 79.6301583,249.659616 C79.5913857,249.722438 79.5567488,249.775836 79.5190101,249.834992 L79.2941291,250.219773 L78.1748933,251.923277 Z M90.4260014,300.384672 L71.601128,308.238904 L74.9495298,312.59242 C74.9495298,312.59242 54.0211136,319.867126 48.1845447,311.740145 L49.3249762,302.446781 L68.3271696,274.168821 L83.6278719,283.643843 C83.6278719,283.643843 92.0394585,283.444386 84.9621664,277.834968 L73.6762376,268.550504 L75.0105321,262.741628 L78.2410652,261.067964 C84.0941771,262.736393 90.4182468,260.717211 93.7883613,255.589947 C98.0337027,249.131394 95.9839245,240.194017 89.2100926,235.62848 C82.4367776,231.062419 73.5040873,232.596829 69.2587459,239.054858 C65.9289549,244.119825 66.4733222,250.709255 70.130354,255.519796 L69.8465386,259.260804 L65.0692371,262.748433 L52.2561848,255.788881 C44.4148139,251.341133 47.4788834,259.277033 47.4788834,259.277033 L62.015507,269.914249 L43.5871481,298.579083 L35.5612197,303.231524 C25.9052911,300.914988 24.4557127,278.555842 24.4557127,278.555842 L29.7143114,280.003873 L29.6041972,259.386447 C19.2839647,263.74991 17,278.561601 17,278.561601 L21.396813,278.170538 C19.0249637,303.823614 34.0428846,319.397014 34.0428846,319.397014 C34.0428846,319.397014 54.0262833,327.417199 76.4807891,315.301589 L77.8223211,319.559826 C77.8223211,319.559826 90.4342729,311.710305 90.4260014,300.384672 L90.4260014,300.384672 Z" id="Fill-5" fill="#4A4A4A"></path>
                <g id="Group-9" transform="translate(0.000000, 309.000000)">
                    <mask id="mask-2" fill="white">
                        <use xlink:href="#path-1"></use>
                    </mask>
                    <g id="Clip-8"></g>
                    <path d="M0.714726761,14.1309935 C0.347628169,13.8822194 0.105261972,13.6014452 0.0302197183,13.2819613 C-0.206569014,12.2796387 1.00931831,11.5792516 1.40886761,11.3480258 L1.51483944,11.2876387 L1.63652958,11.2814452 C3.52526197,11.1973161 5.51945915,11.4285419 7.27838873,11.6313806 C9.78824789,11.9224774 12.1581634,12.1970581 12.7275718,11.3258323 C13.0870648,10.7761548 13.3973746,10.5278968 13.6214873,10.3931871 C13.5865014,10.3008 13.5428958,10.1898323 13.4987831,10.0773161 C13.3451493,9.68660645 13.113431,9.09615484 12.7924732,8.18776774 C12.7691493,8.12273548 10.6258817,1.62260645 12.2692056,0.885058065 C13.0480225,0.535122581 13.8942761,1.44557419 15.2856,4.13357419 C16.1967549,5.89150968 16.9684732,7.5451871 17.649431,9.00376774 C18.3273465,10.4561548 19.0235155,11.9482839 19.449431,12.5851871 C19.5046986,12.2368 19.5569239,11.5844129 19.5503324,10.3663484 C19.5467831,9.79757419 19.5396845,9.22570323 19.5325859,8.65950968 C19.4763042,4.22338065 19.4326986,0.718348387 21.0800789,0.0989935484 C22.1357408,-0.298425806 23.4834592,0.596541935 25.4523042,2.99963871 C30.1505577,8.73538065 31.0120225,8.88144516 33.8651493,9.36299355 C34.3691493,9.44763871 34.929938,9.54209032 35.5769239,9.67731613 L35.373093,10.688929 C34.7403042,10.5568 34.1921915,10.4644129 33.6993465,10.3808 C30.7255437,9.88015484 29.6136,9.69176774 24.6729803,3.6608 C22.5180507,1.02957419 21.6885296,0.970219355 21.4314592,1.06673548 C20.4559099,1.43370323 20.5056,5.4331871 20.5466704,8.64660645 C20.553769,9.21538065 20.5613746,9.78931613 20.5639099,10.360671 C20.5786141,12.8984774 20.3849239,13.7186065 19.7364169,13.8693161 C18.9261634,14.0571871 18.4079662,13.0331871 16.7337127,9.44712258 C16.0568113,7.99731613 15.2896563,6.35447742 14.3886423,4.61512258 C13.4511211,2.80557419 12.9303887,2.17538065 12.693093,1.95757419 C12.5369239,2.76428387 12.8928676,5.42183226 13.7467268,7.83938065 C14.0616,8.7291871 14.289262,9.30983226 14.4403606,9.69331613 C14.7359662,10.4468645 14.9144451,10.9015742 14.2613746,11.216929 C14.1280225,11.2814452 13.9044169,11.3893161 13.5717972,11.8977032 C12.6591211,13.2938323 10.233938,13.0130581 7.16379718,12.6579613 C5.48092394,12.4628645 3.57850141,12.2424774 1.80436056,12.3080258 C1.10920563,12.7276387 1.00424789,12.9913806 1.0164169,13.040929 C1.20047324,13.824929 5.71264225,14.7002839 10.6710085,14.920671 L10.6268958,15.9513806 C8.08002254,15.8393806 2.65619155,15.4460903 0.714726761,14.1309935" id="Fill-7" fill="#4A4A4A" mask="url(#mask-2)"></path>
                </g>
                <path d="M87.6286848,316.298581 C87.4852683,316.342597 87.1396497,316.506085 86.4636156,317.106064 C84.1238484,319.633311 83.4523753,321.748695 83.6550842,324.279086 C83.702214,324.23507 83.7508641,324.190006 83.800021,324.143894 C85.7916357,321.946767 87.8136567,317.292608 87.6286848,316.298581 L87.6286848,316.298581 Z M92.4354189,337.940264 L92.9497927,328.62985 C93.12919,325.396776 92.5894777,324.764309 92.3472406,324.649553 C91.7046534,324.329914 90.1402477,325.780343 89.1049122,326.739785 C88.3072528,327.478624 87.6185494,328.117379 87.0484307,328.377806 C85.0405993,329.297425 84.2505415,329.45934 83.2648696,327.676172 L83.2141924,327.547792 C83.1032093,327.104489 83.0043887,326.675858 82.9202645,326.257182 C81.9295249,326.991305 81.1531499,327.263784 80.4249183,327.138549 C79.1093377,326.907465 78.1687686,325.466992 76.4629734,322.849093 C75.7524788,321.759699 74.8691749,320.40359 73.7786012,318.867749 C72.0515216,316.8383 71.2873092,316.272905 70.9852729,316.114658 C70.9680427,317.108684 72.3135228,320.618953 73.7091734,323.559636 L72.7990106,324.021279 C69.0281188,316.076406 70.044197,315.375295 70.3781599,315.14526 C70.9938881,314.719248 71.9101322,315.086572 74.5681522,318.211702 C75.6982542,319.800991 76.5881461,321.166008 77.3032017,322.263786 C78.801727,324.56257 79.7068221,325.950643 80.5921531,326.104175 C81.0715596,326.186967 81.6629627,325.929683 82.509779,325.268396 C82.5792068,325.214948 82.6506617,325.157309 82.7241437,325.097573 C82.3060566,321.982923 82.9288796,319.409563 85.7673106,316.346265 C86.2979011,315.872046 87.610441,314.700384 88.3508352,315.507343 C89.5265466,316.777517 86.4595614,322.742721 84.5100088,324.890593 C84.2576363,325.129013 84.0280685,325.339136 83.8157309,325.525156 C83.9084702,326.065399 84.0311091,326.626602 84.178073,327.217149 C84.720826,328.195455 84.8019096,328.259907 86.638452,327.419412 C87.0611,327.226057 87.7563914,326.581538 88.4283713,325.959551 C89.9547691,324.54423 91.5333644,323.081224 92.786612,323.705307 C93.763162,324.18791 94.1255041,325.728467 93.9623235,328.689586 L93.447443,338 L92.4354189,337.940264 Z" id="Fill-10" fill="#4A4A4A"></path>
                <path d="M87.1938573,234 C87.1802347,233.878729 85.8839948,221.654333 90.1813916,204.92939 C94.1455593,189.504593 103.813916,166.962822 127.363671,147.17176 C130.079802,144.426255 132.663899,141.864477 134.943583,139.604054 C153.089894,121.610193 159.20276,115.548741 162.961017,88 L164,88.1400078 C160.193016,116.036947 154.017276,122.161376 135.683917,140.340526 C133.405281,142.599388 130.82328,145.160124 128.075712,147.933736 C104.719293,167.565532 95.138959,189.877253 91.2088477,205.142264 C86.9470792,221.692848 88.2218373,233.765266 88.234936,233.884975 L87.1938573,234 Z" id="Fill-12" fill="#4A4A4A"></path>
                <path d="M89.5441007,233 C86.4526266,227.840751 88.007926,219.391949 94.1681314,207.889275 C100.179991,196.662174 109.012996,185.485988 113.742988,179.822834 L113.796226,179.768245 C145.9856,151.140685 167.251178,132.227988 183.783664,108.054735 C196.122683,87.9242685 196.958999,53.3469594 196.966235,53 L198,53.0215209 C197.992247,53.3711048 197.148695,88.2371093 184.647375,108.631601 C168.032705,132.925581 146.73663,151.868197 114.506423,180.531975 C109.796073,186.173083 101.033364,197.266335 95.0762939,208.39108 C89.1047506,219.541546 87.5411811,227.637089 90.426936,232.454103 L89.5441007,233 Z" id="Fill-14" fill="#4A4A4A"></path>
                <path d="M88,234.809818 C96.093073,190.732548 122.903392,177.528752 156.846246,160.812606 C161.215736,158.660873 165.733441,156.435266 170.316673,154.089683 C219.247469,131.964078 213.788467,111.505058 213.727621,111.301777 L214.724043,111 C214.79009,111.221618 216.288884,116.524197 211.546516,124.659605 C203.737392,138.055155 185.05915,148.570725 170.765479,155.033784 C166.197329,157.373605 161.675983,159.600259 157.303373,161.754088 C123.623147,178.340826 97.0208485,191.442458 89.0229453,235 L88,234.809818 Z" id="Fill-16" fill="#4A4A4A"></path>
                <path d="M88.0527037,235 C87.2436798,227.960354 95.8819676,221.047822 104.801587,217.319878 L104.852216,217.301645 C116.490678,213.787292 157.043655,197.317866 189.610784,168.712827 C210.383909,149.398473 219.976845,123.059061 224.364886,104.365684 C229.125079,84.0839203 228.95701,68.1734775 228.954401,68.0151077 L230,68 C230,68.1594118 230.172634,84.1750872 225.387388,104.576671 C220.967507,123.418519 211.294713,149.975169 190.311242,169.48488 C157.618323,198.201403 116.908761,214.743763 105.180001,218.291456 C96.9055134,221.755798 88.347084,228.419836 89.0898202,234.880702 L88.0527037,235 Z" id="Fill-18" fill="#4A4A4A"></path>
                <path d="M90,233.704135 C91.0735597,230.05496 96.4028496,229.636253 106.077897,228.875682 C108.603858,228.677045 111.466511,228.452271 114.607571,228.140201 C133.693308,226.757582 163.800335,217.604064 185.882985,196.357197 C231.578224,150.35072 243.182348,90.2425674 246.03095,58.5086995 C247.363663,43.6663156 246.871897,34.1510689 246.866693,34.0569775 L247.905387,34 C247.911111,34.0951368 248.407561,43.6783383 247.068083,58.6017454 C244.205951,90.477273 232.546666,150.8562 186.611528,197.103132 C164.320202,218.551772 133.940492,227.787882 114.696557,229.182524 C111.558619,229.493025 108.690243,229.719367 106.158557,229.918005 C97.2474387,230.618462 91.868712,231.040828 90.9986239,234 L90,233.704135 Z" id="Fill-20" fill="#4A4A4A"></path>
                <path d="M88,234.923409 L88.1431917,233.893446 C88.2738411,233.911132 101.402013,235.680797 120.255762,234.624824 C120.435013,234.605057 120.826439,234.590492 121.475505,234.566043 C141.31226,233.829463 179.644786,228.278062 213.498652,199.36989 C242.341853,172.019148 254.490154,142.657895 259.598544,122.846697 C265.129716,101.395879 263.827403,86.2455267 263.813293,86.0951936 L264.85483,86 C264.868417,86.1524138 266.186408,101.48275 260.610816,123.105748 C255.468456,143.048553 243.242288,172.602274 214.199455,200.141842 C180.084291,229.273173 141.487331,234.864629 121.514177,235.60589 C120.932003,235.627738 120.510267,235.643344 120.340946,235.66155 C101.351321,236.725846 88.131172,234.941616 88,234.923409" id="Fill-22" fill="#4A4A4A"></path>
                <path d="M166.53339,78.3835194 L166.2788,78.574193 L166.481539,79.8818961 L158.116896,81.2362082 L157.914158,79.9290348 L157.613939,79.8278719 C154.666715,78.8353099 152.563629,76.4598347 152.12393,73.6299207 C151.439494,69.215827 154.864268,64.9802249 159.759025,64.1878702 C164.653782,63.3955154 169.19284,66.3419521 169.877795,70.7555162 C170.316975,73.5854302 169.035731,76.5085624 166.53339,78.3835194 L166.53339,78.3835194 Z M166.856942,82.3008025 L158.492299,83.6556443 L158.271932,82.2345964 L166.636574,80.8808138 L166.856942,82.3008025 Z M166.952866,84.2965195 L159.005108,85.5835662 C158.859406,85.2922593 158.744815,84.9802962 158.665483,84.6513842 L166.993829,83.3028982 C167.018199,83.6408141 167.003681,83.9734336 166.952866,84.2965195 L166.952866,84.2965195 Z M163.436315,87.8864795 C161.969444,88.1242919 160.558053,87.5559786 159.629916,86.5062146 L166.638648,85.371177 C166.073469,86.6629906 164.903187,87.6491968 163.436315,87.8864795 L163.436315,87.8864795 Z M159.596731,63.1418136 C154.136795,64.0257976 150.325729,68.8053491 151.099868,73.7957008 C151.584677,76.9211588 153.828799,79.5513952 156.988095,80.726686 L157.567273,84.4580624 C158.022009,87.3901985 160.727606,89.3980974 163.59861,88.9330657 C166.469613,88.468034 168.434775,85.7043262 167.980039,82.7716603 L167.400861,79.0408136 C170.049422,76.9248664 171.387184,73.7151942 170.901857,70.5897361 C170.127718,65.5988548 165.056148,62.2578296 159.596731,63.1418136 L159.596731,63.1418136 Z" id="Fill-24" fill="#4A4A4A"></path>
                <path d="M165.852428,67.5430506 C163.098149,65.0402167 159.165561,66.321144 159,66.3766587 L159.4511,68.0555384 C159.485679,68.0461886 162.758645,66.9937478 164.859588,68.9016985 C165.632379,69.6035204 166.175166,70.6466114 166.473804,72 L168,71.5810105 C167.618058,69.849538 166.895564,68.4908901 165.852428,67.5430506" id="Fill-26" fill="#4A4A4A"></path>
                <path d="M159.319953,58.980507 C159.775017,58.8706781 160.073846,58.3247635 159.984065,57.7680814 L159.671154,55.831 C159.581373,55.2748563 159.135111,54.9092981 158.680047,55.0196654 C158.224983,55.1294944 157.926154,55.6743322 158.015935,56.2315527 L158.328846,58.1680957 C158.418627,58.7247778 158.864889,59.090336 159.319953,58.980507" id="Fill-28" fill="#4A4A4A"></path>
                <path d="M170.207905,57.4932411 L169.16497,59.2652827 C168.865018,59.7749046 168.985612,60.4712716 169.433241,60.8121831 C169.88087,61.1536763 170.492527,61.0163809 170.79248,60.5067589 L171.835414,58.7347173 C172.134856,58.2250954 172.014262,57.5293102 171.566633,57.1878169 C171.119004,56.8463237 170.507346,56.9836191 170.207905,57.4932411" id="Fill-30" fill="#4A4A4A"></path>
                <path d="M177.76824,68.0160589 L175.831947,68.3285609 C175.275337,68.4187903 174.909287,68.8646558 175.01964,69.3197643 C175.129455,69.7748729 175.675299,70.0741705 176.23191,69.9839411 L178.168203,69.6714391 C178.724813,69.5812097 179.090324,69.1353442 178.98051,68.6802357 C178.870156,68.2251271 178.324851,67.9258295 177.76824,68.0160589" id="Fill-32" fill="#4A4A4A"></path>
                <path d="M172.734717,80.16497 C172.225095,79.8650176 171.52931,79.9856118 171.187817,80.4332408 C170.846324,80.8808698 170.983619,81.4925273 171.493241,81.7924796 L173.265864,82.8354144 C173.774905,83.1348557 174.471272,83.0142616 174.812183,82.5666326 C175.153676,82.1190035 175.016381,81.5078571 174.506759,81.2079047 L172.734717,80.16497 Z" id="Fill-34" fill="#4A4A4A"></path>
                <path d="M150.207905,83.4932411 L149.16497,85.2652827 C148.865018,85.7749046 148.985612,86.4706898 149.433241,86.8121831 C149.88087,87.1536763 150.492527,87.0163809 150.79248,86.5067589 L151.835414,84.7347173 C152.134856,84.2250954 152.014262,83.5293102 151.566633,83.1878169 C151.119004,82.8463237 150.507346,82.9836191 150.207905,83.4932411" id="Fill-36" fill="#4A4A4A"></path>
                <path d="M146.768194,73.0159347 L144.831828,73.3288463 C144.275197,73.4186269 143.909672,73.8648891 144.019491,74.3199533 C144.12931,74.7750175 144.675175,75.0738459 145.231806,74.9840653 L147.168172,74.6711537 C147.724803,74.5813731 148.090328,74.1351109 147.980509,73.6800467 C147.870152,73.2249825 147.324825,72.9261541 146.768194,73.0159347" id="Fill-38" fill="#4A4A4A"></path>
                <path d="M148.265559,64.8350227 C148.774571,65.1349884 149.4709,65.0143889 149.812375,64.56674 C150.153849,64.1196021 150.01598,63.5074065 149.506386,63.2074409 L147.734441,62.1644599 C147.224847,61.8650052 146.5291,61.9861157 146.187625,62.4332536 L146.187625,62.4337646 C145.846151,62.8809025 145.98402,63.4925871 146.493614,63.7920417 L148.265559,64.8350227 Z" id="Fill-40" fill="#4A4A4A"></path>
                <path d="M198.268376,43.2742589 L198.036934,43.4897104 L198.397129,44.7243145 L190.214825,47.0454318 L189.85463,45.8103135 L189.542914,45.7491232 C186.483085,45.1505897 184.097775,43.1179408 183.318483,40.4445937 C182.103413,36.2749126 185.009989,31.7776835 189.797812,30.4196705 C194.586157,29.0611433 199.470414,31.3488373 200.685484,35.5185184 C201.464776,38.1918655 200.538487,41.1639653 198.268376,43.2742589 L198.268376,43.2742589 Z M199.063306,47.0104659 L190.881002,49.3305548 L190.490053,47.9889963 L198.671836,45.667879 L199.063306,47.0104659 Z M199.399522,48.9207342 L191.624848,51.1266698 C191.443969,50.8633973 191.292281,50.5764714 191.173432,50.2694915 L199.320811,47.9581441 C199.385448,48.2810643 199.41099,48.6034702 199.399522,48.9207342 L199.399522,48.9207342 Z M196.323535,52.8070888 C194.888491,53.2143384 193.412267,52.8384552 192.359311,51.9396265 L199.215515,49.9943923 C198.807365,51.3081838 197.758579,52.4003533 196.323535,52.8070888 L196.323535,52.8070888 Z M189.510074,29.4313702 C184.169188,30.9457013 180.942555,36.0142112 182.316611,40.7289486 C183.17722,43.6809943 185.732984,45.942464 189.026861,46.6916594 L190.054275,50.2165285 C190.861715,52.986546 193.803216,54.5924054 196.611795,53.7959033 C199.419852,52.9988869 201.048285,50.0977474 200.240323,47.3272156 L199.212909,43.8023465 C201.600826,41.4421497 202.547966,38.1867235 201.687878,35.2341635 C200.313301,30.5194261 194.850439,27.9165249 189.510074,29.4313702 L189.510074,29.4313702 Z" id="Fill-42" fill="#4A4A4A"></path>
                <path d="M197.290518,31.760029 C194.125138,30.1856554 190.166483,31.5361162 190,31.5941676 L190.66538,32.7927343 C190.70011,32.7826953 193.996141,31.6679323 196.410695,32.8686813 C197.298787,33.3099599 197.986218,34.0270921 198.454245,35 L200,34.5334058 C199.401323,33.2894455 198.489526,32.3558205 197.290518,31.760029" id="Fill-44" fill="#4A4A4A"></path>
                <path d="M188.471005,23.9477996 C188.873118,23.767903 189.094059,23.1724396 188.961494,22.6245478 L188.501133,20.7205962 C188.36897,20.1727043 187.931507,19.8719653 187.529394,20.0524087 C187.126879,20.2323053 186.905938,20.8277686 187.038503,21.3751137 L187.498864,23.2796121 C187.631428,23.827504 188.068892,24.1276962 188.471005,23.9477996" id="Fill-46" fill="#4A4A4A"></path>
                <path d="M200.015778,22.5920359 L199.111897,24.4348432 C198.852004,24.9652203 199.060466,25.6172127 199.575328,25.8852164 C200.09019,26.1520941 200.723782,25.9375785 200.984222,25.4077644 L201.888103,23.5649571 C202.147996,23.0351429 201.939534,22.3825876 201.424672,22.1151469 C200.90981,21.8477061 200.275671,22.0622217 200.015778,22.5920359" id="Fill-48" fill="#4A4A4A"></path>
                <path d="M207.624866,33.0383159 L205.720345,33.4987215 C205.172994,33.631299 204.872251,34.0684032 205.05215,34.470555 C205.232596,34.8731086 205.827519,35.0940712 206.375417,34.9614937 L208.279938,34.5014898 C208.827289,34.369314 209.128032,33.9318081 208.947587,33.5292545 C208.767688,33.1271026 208.172218,32.9061401 207.624866,33.0383159" id="Fill-50" fill="#4A4A4A"></path>
                <path d="M204.565035,44.1118709 C204.035195,43.8520072 203.382607,44.0604453 203.115153,44.575796 C202.847699,45.0900525 203.062225,45.72412 203.592065,45.9839836 L205.434965,46.8877622 C205.964805,47.148173 206.617393,46.9397349 206.884847,46.4249313 C207.152301,45.9095806 206.937775,45.2760602 206.407935,45.0156495 L204.565035,44.1118709 Z" id="Fill-52" fill="#4A4A4A"></path>
                <path d="M184.015778,49.5919489 L183.111897,51.4348033 C182.852004,51.9651939 183.060466,52.6172029 183.575328,52.8852135 C184.09019,53.152098 184.723782,52.9375769 184.984222,52.4077492 L185.888103,50.5648949 C186.147996,50.0350673 185.939534,49.3824953 185.424672,49.1150478 C184.90981,48.8476002 184.275671,49.0626843 184.015778,49.5919489" id="Fill-54" fill="#4A4A4A"></path>
                <path d="M177.62451,41.0383159 L175.720248,41.4987215 C175.17297,41.631299 174.872269,42.0684032 175.052143,42.470555 C175.232564,42.8731086 175.827954,43.0940712 176.375231,42.9614937 L178.279493,42.5014898 C178.827317,42.3689122 179.128019,41.9314064 178.947598,41.5292545 C178.767177,41.1271026 178.171787,40.9061401 177.62451,41.0383159" id="Fill-56" fill="#4A4A4A"></path>
                <path d="M178.434965,31.8877764 C178.964805,32.148186 179.617393,31.9397489 179.884847,31.4244005 C180.152301,30.9095992 179.937775,30.2760818 179.407935,30.0156722 L177.565035,29.1118977 C177.035195,28.8520352 176.382607,29.0604723 176.115153,29.5747265 L176.115153,29.5752736 C175.847699,30.0900749 176.062225,30.7241394 176.592065,30.9840019 L178.434965,31.8877764 Z" id="Fill-58" fill="#4A4A4A"></path>
                <path d="M235.780354,59.572148 L235.486255,59.6894378 L235.353186,61.0028723 L226.941352,60.1142171 L227.074421,58.8013109 L226.810354,58.6248479 C224.216282,56.8950874 222.784106,54.0547721 223.072509,51.2112868 C223.521941,46.7769924 227.892512,43.5927326 232.815035,44.1120834 C237.737557,44.6324909 241.376507,48.6626109 240.926557,53.096377 C240.638672,55.939334 238.666453,58.4209116 235.780354,59.572148 L235.780354,59.572148 Z M235.106723,63.43373 L226.694889,62.5450748 L226.83935,61.1180488 L235.251702,62.0056473 L235.106723,63.43373 Z M234.69716,65.3816918 L226.704727,64.5379448 C226.636898,64.218832 226.604796,63.8880959 226.611009,63.5499631 L234.987117,64.4343917 C234.924983,64.7667128 234.827641,65.0837123 234.69716,65.3816918 L234.69716,65.3816918 Z M230.400632,67.9203293 C228.92548,67.7644712 227.706629,66.8467577 227.074939,65.5914398 L234.123462,66.3353319 C233.253075,67.4321501 231.875784,68.0761874 230.400632,67.9203293 L230.400632,67.9203293 Z M232.921697,43.0612302 C227.431171,42.4811211 222.550588,46.0885752 222.042129,51.1024503 C221.723695,54.2423301 223.227325,57.3658316 225.979837,59.3270017 L225.599787,63.0760489 C225.301029,66.0215024 227.406835,68.6663347 230.29397,68.9711825 C233.181104,69.2760304 235.773105,67.1273022 236.071863,64.1818488 L236.451913,60.4328016 C239.539945,59.0881955 241.638503,56.3450933 241.956937,53.2052135 C242.465396,48.1918667 238.412223,43.6413392 232.921697,43.0612302 L232.921697,43.0612302 Z" id="Fill-60" fill="#4A4A4A"></path>
                <path d="M237.777829,48.8464225 C235.554518,45.895776 231.184484,45.9957069 231,46.0016167 L231.051991,47.6123302 C231.089447,47.6134047 234.723222,47.5414115 236.419915,49.7920047 C237.043807,50.6193892 237.346808,51.6885419 237.321651,52.9699133 L238.998219,53 C239.030643,51.3618862 238.620306,49.9633915 237.777829,48.8464225" id="Fill-62" fill="#4A4A4A"></path>
                <path d="M232.880133,38.997795 C233.396814,39.0346374 233.847191,38.6053435 233.880589,38.0436305 L233.997972,36.0899159 C234.031861,35.528203 233.636983,35.038573 233.120302,35.0022645 C232.60362,34.9648882 232.153244,35.3947161 232.119355,35.956429 L232.001972,37.9101436 C231.968574,38.4718565 232.363452,38.9614866 232.880133,38.997795" id="Fill-64" fill="#4A4A4A"></path>
                <path d="M243.551934,42.2274522 L242.296401,43.3886666 C241.935139,43.7224317 241.899149,44.307361 242.215766,44.6877092 C242.532383,45.0680573 243.086804,45.1064763 243.448066,44.7727112 L244.703599,43.6114968 C245.064861,43.2777317 245.100851,42.6928024 244.784234,42.3124542 C244.467617,41.9316258 243.912741,41.8936871 243.551934,42.2274522" id="Fill-66" fill="#4A4A4A"></path>
                <path d="M247.043256,54.1194593 L245.089742,54.0020829 C244.528621,53.9677048 244.039041,54.3630524 244.002202,54.8797053 C243.965364,55.3963583 244.395147,55.8467108 244.956269,55.8805977 L246.909783,55.9979742 C247.471438,56.0318611 247.961018,55.6365135 247.997857,55.1198606 C248.034161,54.6032076 247.604911,54.1528552 247.043256,54.1194593" id="Fill-68" fill="#4A4A4A"></path>
                <path d="M241.611273,64.2964161 C241.277505,63.9351354 240.693049,63.899144 240.312217,64.2157772 C239.931865,64.5324103 239.893446,65.0868599 240.227694,65.447685 L241.388921,66.7037389 C241.722689,67.064564 242.307145,67.1010109 242.687977,66.7843778 C243.068329,66.4677447 243.106268,65.9128395 242.7725,65.5520144 L241.611273,64.2964161 Z" id="Fill-70" fill="#4A4A4A"></path>
                <path d="M219.552014,60.2271093 L218.296416,61.3888792 C217.935135,61.7221856 217.899144,62.3071528 218.215777,62.6875256 C218.53241,63.0683786 219.08686,63.1063198 219.448141,62.7725331 L220.703739,61.6112436 C221.064564,61.2774569 221.101011,60.6929699 220.784378,60.3121169 C220.467289,59.9317441 219.91284,59.8938029 219.552014,60.2271093" id="Fill-72" fill="#4A4A4A"></path>
                <path d="M217.04337,50.1189941 L215.090088,50.0020833 C214.528499,49.9676978 214.038977,50.3631312 214.002143,50.8798963 C213.965843,51.3966614 214.395042,51.8471117 214.95663,51.8810059 L216.909912,51.9979167 C217.471501,52.0323022 217.961023,51.6368688 217.997857,51.1201037 C218.034157,50.6033386 217.604958,50.1528883 217.04337,50.1189941" id="Fill-74" fill="#4A4A4A"></path>
                <path d="M222.388591,41.7037504 C222.722338,42.0645615 223.307235,42.101007 223.687563,41.7843862 C224.06837,41.4673098 224.106307,40.9128817 223.77256,40.5520706 L222.610929,39.2960654 C222.277182,38.9352544 221.692765,38.8992644 221.312437,39.2154296 L221.312437,39.2158852 C220.93163,39.5320505 220.893693,40.0869341 221.22744,40.4477452 L222.388591,41.7037504 Z" id="Fill-76" fill="#4A4A4A"></path>
                <path d="M218.527079,102.077693 L218.247256,102.225881 L218.251394,103.543749 L209.803442,103.572754 L209.799304,102.254886 L209.518447,102.108807 C206.761599,100.672811 205.043872,98.0080703 205.034519,95.1550625 C205.019562,90.7057415 209.029662,87.0717162 213.97285,87.0547781 C218.916554,87.037438 222.950448,90.6440406 222.965485,95.0933616 C222.974758,97.9463694 221.274098,100.622712 218.527079,102.077693 L218.527079,102.077693 Z M218.25967,105.982781 L209.811717,106.011785 L209.807062,104.579481 L218.255014,104.550476 L218.25967,105.982781 Z M218.055363,107.960901 L210.028955,107.988851 C209.928094,107.679292 209.862406,107.354439 209.832924,107.018512 L218.24467,106.989507 C218.217774,107.325962 218.154154,107.650815 218.055363,107.960901 L218.055363,107.960901 Z M214.051986,110.945221 C212.570116,110.950495 211.264105,110.171587 210.50636,108.993996 L217.585199,108.96921 C216.834695,110.152602 215.533339,110.940475 214.051986,110.945221 L214.051986,110.945221 Z M213.969746,86.000062 C208.455535,86.0191093 203.983028,90.1277569 204.000048,95.158754 C204.010442,98.3091918 205.828513,101.247104 208.766908,102.895626 L208.779322,106.657272 C208.789149,109.613114 211.156004,112.009957 214.055607,111.999969 C216.95521,111.990445 219.30603,109.577254 219.296203,106.620884 L219.283789,102.859238 C222.211323,101.190677 224.010256,98.2411626 223.999956,95.0901974 C223.982843,90.0592004 219.483441,85.9816669 213.969746,86.000062 L213.969746,86.000062 Z" id="Fill-78" fill="#4A4A4A"></path>
                <path d="M220.466624,90.424631 C218.140935,87.4380141 214.167072,88.0403172 214,88.066994 L214.210122,89.8282561 C214.244971,89.825292 217.550032,89.3374028 219.324279,91.6150094 C219.976682,92.4520684 220.361563,93.5914645 220.468674,95 L222,94.8446817 C221.863677,93.0431079 221.34811,91.5551348 220.466624,90.424631" id="Fill-80" fill="#4A4A4A"></path>
                <path d="M214.077788,80.9991433 C214.606241,80.9756679 215.020774,80.49709 214.999194,79.9352811 L214.923414,77.9804209 C214.901332,77.418612 214.451168,76.9779148 213.922212,77.0008567 C213.393759,77.0243321 212.979226,77.5023765 213.000806,78.0647189 L213.077088,80.0195791 C213.098668,80.581388 213.549334,81.0220852 214.077788,80.9991433" id="Fill-82" fill="#4A4A4A"></path>
                <path d="M224.420153,82.2833677 L223.239562,83.5232155 C222.900214,83.8799534 222.924453,84.4398846 223.292794,84.7681202 C223.661134,85.0963558 224.240498,85.0733701 224.579847,84.7166323 L225.760438,83.4767845 C226.099786,83.1200466 226.075547,82.5601154 225.707206,82.2318798 C225.338866,81.9036442 224.759502,81.9266299 224.420153,82.2833677" id="Fill-84" fill="#4A4A4A"></path>
                <path d="M229.935253,94.0008069 L227.980411,94.0766061 C227.418608,94.0981913 226.977915,94.5489704 227.000857,95.0780585 C227.024332,95.6061427 227.502905,96.0207792 228.065242,95.999194 L230.01955,95.9233948 C230.581354,95.9013077 231.02258,95.4515325 230.999105,94.9224444 C230.976163,94.3933562 230.497056,93.9792217 229.935253,94.0008069" id="Fill-86" fill="#4A4A4A"></path>
                <path d="M223.476809,104.239549 C223.120537,103.90022 222.560155,103.924457 222.231925,104.292777 C221.903694,104.661572 221.92668,105.240429 222.282952,105.579758 L223.523239,106.760283 C223.879512,107.099612 224.439894,107.07585 224.768124,106.707055 C225.096354,106.338735 225.073369,105.759403 224.716637,105.420074 L223.476809,104.239549 Z" id="Fill-88" fill="#4A4A4A"></path>
                <path d="M202.420037,104.282952 L201.23996,105.523239 C200.900148,105.879972 200.924386,106.439894 201.292714,106.768124 C201.661518,107.096354 202.240863,107.073369 202.579725,106.716637 L203.760277,105.476809 C204.099615,105.120077 204.075852,104.560155 203.707048,104.231925 C203.33872,103.903694 202.759374,103.92668 202.420037,104.282952" id="Fill-90" fill="#4A4A4A"></path>
                <path d="M199.935253,94.000806 L197.980411,94.0766038 C197.418608,94.0986906 196.977915,94.5489598 197.000857,95.0780386 C197.024332,95.6061135 197.502905,96.0212447 198.064709,95.9991579 L200.01955,95.9233601 C200.581354,95.9017753 201.02258,95.4515061 200.999105,94.9224272 C200.97563,94.3938503 200.497056,93.9792212 199.935253,94.000806" id="Fill-92" fill="#4A4A4A"></path>
                <path d="M202.523239,84.7604509 C202.879512,85.0997805 203.439894,85.0755427 203.768124,84.7072228 C204.096354,84.3384276 204.073369,83.7595713 203.716637,83.4202418 L202.476809,82.2397171 C202.120537,81.9003875 201.560155,81.9241501 201.231925,82.2929452 C200.903694,82.6612651 200.92668,83.2405967 201.282952,83.5799263 L202.523239,84.7604509 Z" id="Fill-94" fill="#4A4A4A"></path>
                <path d="M269.311143,76.5401205 L269.050072,76.7220018 L269.207544,78.0332392 L260.809757,79.0843441 L260.652803,77.7731067 L260.35599,77.661017 C257.447948,76.5649705 255.429827,74.1206759 255.088466,71.2814239 C254.556482,66.8533539 258.121864,62.7504496 263.035595,62.1355427 C267.949844,61.5206358 272.380283,64.6221353 272.912785,69.0502053 C273.253628,71.8894573 271.873681,74.7593754 269.311143,76.5401205 L269.311143,76.5401205 Z M269.499177,80.4606147 L261.10139,81.5111908 L260.93045,80.0862775 L269.328237,79.0351727 L269.499177,80.4606147 Z M269.526631,82.4549645 L261.547386,83.4531969 C261.411671,83.1576398 261.308071,82.8419911 261.240213,82.5110094 L269.60174,81.4641343 C269.613654,81.8025182 269.588273,82.1340286 269.526631,82.4549645 L269.526631,82.4549645 Z M265.891837,85.9101809 C264.419168,86.0941772 263.029897,85.4766266 262.13894,84.3959132 L269.175428,83.5155864 C268.56678,84.7839972 267.365024,85.725656 265.891837,85.9101809 L265.891837,85.9101809 Z M262.909722,61.0854953 C257.428782,61.77178 253.458844,66.4034091 254.06024,71.409904 C254.436825,74.5457706 256.586517,77.2496691 259.700205,78.5355278 L260.149827,82.2788992 C260.50362,85.2207238 263.136087,87.3202899 266.018229,86.9596996 C268.900371,86.5985806 270.95786,83.9116013 270.604585,80.9703054 L270.154445,77.226934 C272.871863,75.2114351 274.317596,72.0570631 273.941012,68.9217252 C273.339098,63.9147016 268.391179,60.3997392 262.909722,61.0854953 L262.909722,61.0854953 Z" id="Fill-96" fill="#4A4A4A"></path>
                <path d="M266.941972,64.6634005 C264.216981,62.1360283 260.169811,63.2271106 260,63.2740815 L260.405304,64.9157982 C260.441082,64.9090072 263.808473,64.0142971 265.887326,65.9412345 C266.651477,66.6497589 267.171057,67.6785907 267.431648,69 L269,68.6530947 C268.666251,66.9627094 267.97419,65.6197953 266.941972,64.6634005" id="Fill-98" fill="#4A4A4A"></path>
                <path d="M261.270319,56.9869921 C261.741679,56.8968239 262.064975,56.3660123 261.988905,55.8072915 L261.724473,53.8649182 C261.648403,53.3061974 261.201041,52.9229826 260.729681,53.0131508 C260.258321,53.1027823 259.935025,53.6335939 260.011095,54.1923147 L260.275074,56.1346879 C260.351144,56.6934087 260.798959,57.0766236 261.270319,56.9869921" id="Fill-100" fill="#4A4A4A"></path>
                <path d="M271.258914,56.4660536 L270.181113,58.2144211 C269.871377,58.716643 269.968766,59.4246936 270.397979,59.7875401 C270.826689,60.1509747 271.431101,60.0362987 271.740837,59.5340768 L272.818638,57.7862974 C273.128876,57.2834874 273.030986,56.5754368 272.602275,56.2120022 C272.173062,55.8491557 271.56865,55.9638317 271.258914,56.4660536" id="Fill-102" fill="#4A4A4A"></path>
                <g id="Group-106" transform="translate(276.000000, 67.000000)">
                    <mask id="mask-4" fill="white">
                        <use xlink:href="#path-3"></use>
                    </mask>
                    <g id="Clip-105"></g>
                    <path d="M2.66035,0.47115 L0.85035,0.76265 C0.32985,0.84665 -0.02715,1.34115 0.05685,1.86115 C0.14035,2.38165 0.63535,2.73865 1.15535,2.65465 L2.96535,2.36315 C3.48585,2.27915 3.84285,1.78465 3.75885,1.26465 C3.67485,0.74415 3.18085,0.38715 2.66035,0.47115" id="Fill-104" fill="#4A4A4A" mask="url(#mask-4)"></path>
                </g>
                <path d="M273.785952,79.1811045 C273.283718,78.8713832 272.575064,78.9687672 272.21221,79.3979597 C271.849355,79.8266501 271.963445,80.4310334 272.465678,80.7407548 L274.214085,81.8185047 C274.716906,82.128728 275.424972,82.031344 275.787827,81.6021515 C276.150681,81.1734611 276.036591,80.5685758 275.53377,80.2583525 L273.785952,79.1811045 Z" id="Fill-107" fill="#4A4A4A"></path>
                <path d="M253.258914,80.4660536 L252.181113,82.2144211 C251.871377,82.716643 251.968766,83.4246936 252.397979,83.7875401 C252.826689,84.1509747 253.431101,84.0362987 253.740837,83.5340768 L254.818638,81.7857094 C255.128876,81.2834874 255.030986,80.5754368 254.602275,80.2120022 C254.173062,79.8491557 253.56865,79.9638317 253.258914,80.4660536" id="Fill-109" fill="#4A4A4A"></path>
                <path d="M246.807728,71.0110829 L244.864887,71.2755186 C244.306187,71.3515891 243.922985,71.7989564 244.01315,72.2703221 C244.103315,72.741235 244.634108,73.0649877 245.192272,72.9889171 L247.135113,72.7244814 C247.693813,72.6484109 248.077015,72.2010436 247.98685,71.7296779 C247.896685,71.258765 247.366429,70.9350123 246.807728,71.0110829" id="Fill-111" fill="#4A4A4A"></path>
                <path d="M250.214065,61.8187093 C250.716293,62.1284531 251.424941,62.031564 251.787792,61.6023404 C252.150644,61.1731168 252.036554,60.5686896 251.534326,60.2589458 L249.785935,59.1811177 C249.283119,58.8713739 248.575059,58.9687649 248.212208,59.3979885 C247.849356,59.8267101 247.963446,60.4311373 248.465674,60.7413831 L250.214065,61.8187093 Z" id="Fill-113" fill="#4A4A4A"></path>
                <path d="M251.519009,23.3939708 L251.263921,23.5840929 L251.464051,24.8916458 L243.096945,26.2267372 L242.897333,24.9191843 L242.597138,24.8175034 C239.652215,23.8176412 237.554476,21.4382021 237.121552,18.6070244 C236.446501,14.1923784 239.880861,9.96573613 244.776795,9.18406417 C249.672729,8.40292179 254.205214,11.3596119 254.880265,15.7742579 C255.31319,18.6054356 254.025304,21.5250545 251.519009,23.3939708 L251.519009,23.3939708 Z M251.833722,27.3118632 L243.467134,28.6464251 L243.249894,27.2255403 L251.616482,25.8909784 L251.833722,27.3118632 Z M251.924973,29.3073509 L243.975756,30.5757143 C243.830065,30.2839113 243.716519,29.9714544 243.637712,29.6425802 L251.968525,28.3138438 C251.991856,28.6517209 251.97682,28.9843022 251.924973,29.3073509 L251.924973,29.3073509 Z M248.400917,32.8889549 C246.93364,33.1230329 245.523914,32.5516073 244.597404,31.4998455 L251.608186,30.3808259 C251.040459,31.671432 249.868193,32.6543474 248.400917,32.8889549 L248.400917,32.8889549 Z M244.616587,8.13759818 C239.155519,9.00877052 235.333859,13.7787701 236.09705,18.7706671 C236.575082,21.8968253 238.812808,24.5315259 241.969268,25.7146256 L242.539587,29.4466326 C242.988066,32.3800208 245.689307,34.3935146 248.560606,33.9348913 C251.432424,33.4773273 253.404174,30.7181735 252.955696,27.7853149 L252.384858,24.0527783 C255.038399,21.9439587 256.382798,18.737303 255.904766,15.6111448 C255.141575,10.6192478 250.077656,7.26695542 244.616587,8.13759818 L244.616587,8.13759818 Z" id="Fill-115" fill="#4A4A4A"></path>
                <path d="M250.858192,12.5508875 C248.105788,10.0461113 244.165763,11.314537 244,11.3693563 L244.44798,13.0460109 C244.482602,13.0372632 247.761672,11.9945298 249.861514,13.9044581 C250.633153,14.6066119 251.175031,15.6487621 251.470887,17 L253,16.5859392 C252.621262,14.8573812 251.900507,13.4991451 250.858192,12.5508875" id="Fill-117" fill="#4A4A4A"></path>
                <path d="M243.3168,3.98089698 C243.77315,3.87217775 244.073416,3.32750521 243.98435,2.77045375 L243.674826,0.833421662 C243.585319,0.276908414 243.139551,-0.0896153014 242.6832,0.0191039212 C242.22685,0.127823144 241.926584,0.672495684 242.01565,1.22900893 L242.325174,3.16604102 C242.414681,3.72309248 242.860449,4.0896162 243.3168,3.98089698" id="Fill-119" fill="#4A4A4A"></path>
                <path d="M254.211118,2.49168716 L253.165883,4.26204497 C252.865276,4.77143764 252.984702,5.4682868 253.431275,5.81059867 C253.877337,6.1534927 254.488248,6.01784872 254.788855,5.50845605 L255.83409,3.73809824 C256.134697,3.22928773 256.015271,2.53185641 255.569209,2.18896238 C255.122636,1.84665051 254.511725,1.98229449 254.211118,2.49168716" id="Fill-121" fill="#4A4A4A"></path>
                <path d="M261.770582,14.0156498 L259.833718,14.3251771 C259.277253,14.4142433 258.910761,14.8604564 259.018933,15.3168107 C259.127643,15.772724 259.672268,16.0734328 260.229271,15.9843666 L262.165596,15.6748393 C262.722599,15.5857731 263.089629,15.13956 262.98092,14.6832057 C262.871672,14.2268514 262.327585,13.9265836 261.770582,14.0156498" id="Fill-123" fill="#4A4A4A"></path>
                <path d="M257.738168,25.165771 C257.22883,24.8651253 256.532055,24.9850773 256.189198,25.4311966 C255.846341,25.877316 255.982552,26.4883055 256.49189,26.7889511 L258.262058,27.8343199 C258.771396,28.1344551 259.46817,28.015524 259.811028,27.5688942 C260.153303,27.1227749 260.017673,26.5117854 259.508917,26.2111398 L257.738168,25.165771 Z" id="Fill-125" fill="#4A4A4A"></path>
                <path d="M236.211235,28.4915321 L235.165922,30.2624628 C234.865293,30.7712706 234.984728,31.4681161 235.430823,31.8110083 C235.877429,32.1533184 236.488386,32.0176751 236.788505,31.5088673 L237.834329,29.7379366 C238.134448,29.2291288 238.015523,28.5317012 237.568917,28.1888089 C237.122822,27.8464989 236.511354,27.9827243 236.211235,28.4915321" id="Fill-127" fill="#4A4A4A"></path>
                <path d="M229.770454,18.0156498 L227.833422,18.3251771 C227.276908,18.4142433 226.910385,18.8604564 227.019104,19.3168107 C227.127285,19.772724 227.672496,20.0734328 228.229009,19.9843666 L230.166041,19.6743984 C230.723092,19.5853322 231.089616,19.1391191 230.980897,18.6832057 C230.872178,18.2268514 230.327505,17.9265836 229.770454,18.0156498" id="Fill-129" fill="#4A4A4A"></path>
                <path d="M233.261977,9.83407032 C233.771348,10.1347133 234.468167,10.0152728 234.811046,9.56915741 C235.153343,9.12253161 235.017705,8.51154751 234.508334,8.21090454 L232.738053,7.16554495 C232.228683,6.86541241 231.531864,6.98485291 231.188984,7.43096828 C230.846687,7.87708366 230.982326,8.48806775 231.491114,8.78871072 L233.261977,9.83407032 Z" id="Fill-131" fill="#4A4A4A"></path>
            </g>
        </g>
    </g>
</svg>