<svg xmlns="http://www.w3.org/2000/svg" id="logo-main" width="4096" height="1609.2433493302788" version="1.1" xmlns:xlink="http://www.w3.org/1999/xlink" xmlns:svgjs="http://svgjs.com/svgjs"><defs id="SvgjsDefs63856"></defs><g id="SvgjsG63857" transform="translate(328, 328.00000000000006) scale(34.400000000000006)" opacity="1"><defs id="SvgjsDefs17588"></defs><g id="SvgjsG17589" transform="scale(0.262683466335878)" opacity="1"><g id="SvgjsG17590" class="Bj4DrbGQ8" transform="translate(-2.3606277336986863, -5.336592843352505) scale(1.179009693201177)" light-content="false" non-strokable="false" fill="#4a4a4a"><path d="M25.306 18.053a1.62 1.62 0 0 0-3.094.961c.343 1.122.904 4.365-.613 5.874-1.351 1.343-4.513 2.253-5.617 2.49a1.621 1.621 0 0 0 .677 3.169c.501-.107 4.958-1.108 7.226-3.361 3.224-3.207 1.497-8.893 1.421-9.133z"></path><path d="M96.641 61.979c-.334-.972-1.04-3.256-1.198-4.824-.035-.365.337-1.364.637-2.169.934-2.508 2.347-6.296.617-10.848-1.606-4.231-4.371-7.044-6.285-8.598 1.156-.986 2.19-2.644 1.721-5.909-1.081-7.532-1.999-8.948-8.932-13.769a92.956 92.956 0 0 0-1.899-1.242c-2.46-1.588-6.576-4.246-8.341-5.727C69.229 5.761 62.27 3.42 58.247 5.071c-6.22 2.549-7.259 11.16-7.301 11.525-.002.012.002.024 0 .037-.002.011-.005.021-.006.033a2262.8 2262.8 0 0 0-1.028 16.09c-.521-8.625-.983-15.432-1.027-16.09-.001-.011-.005-.021-.005-.033l-.001-.037c-.042-.366-1.08-8.977-7.296-11.524-4.023-1.649-10.98.689-14.708 3.822-1.764 1.481-5.877 4.138-8.335 5.726-.898.581-1.59 1.028-1.899 1.243-6.93 4.821-7.848 6.236-8.93 13.769-.469 3.265.564 4.922 1.721 5.909-1.914 1.553-4.676 4.367-6.282 8.598-1.728 4.552-.317 8.34.618 10.848.299.805.671 1.804.635 2.169-.172 1.726-.964 4.137-1.198 4.827-.842 1.312-3.64 7.041 3.945 16.521 2.53 3.162 5.303 2.953 7.751 2.768 1.904-.146 3.703-.281 5.769 1.037.933.596 1.197 1.555 1.582 3.196.519 2.213 1.229 5.245 5.141 7.038C29.701 93.603 31.725 94 33.565 94c2.869 0 5.293-.969 7.669-1.917l.257-.104c5.744-2.289 6.531-6.498 6.631-7.937.742-.74 1.332-1.475 1.79-2.219.458.744 1.049 1.479 1.792 2.219.099 1.438.886 5.649 6.633 7.937l.257.104c2.377.95 4.802 1.917 7.673 1.917 1.841 0 3.865-.399 6.178-1.457 3.911-1.793 4.623-4.825 5.143-7.038.385-1.642.646-2.601 1.582-3.196 2.067-1.318 3.867-1.183 5.772-1.037 2.447.187 5.222.396 7.754-2.767 7.593-9.487 4.784-15.218 3.945-16.526zM59.477 8.07c2.528-1.038 8.177.6 11.399 3.307 1.921 1.612 6.146 4.338 8.667 5.967.854.552 1.512.974 1.807 1.18 6.202 4.313 6.627 4.962 7.576 11.569.359 2.5-.416 2.945-1.585 3.618-.251.143-.49.283-.643.391-1.129.487-7.287-.025-8.667-.887a1.619 1.619 0 1 0-1.717 2.747c1.351.844 5.216 1.562 8.318 1.562.912 0 1.754-.065 2.45-.205.163.071.331.125.506.141 1.466 1.047 4.474 3.602 6.08 7.831 1.296 3.41.23 6.268-.625 8.565-.444 1.191-.812 2.235-.818 3.231a1.598 1.598 0 0 0-.339.508c-2.711 6.53-6.048 12.522-7.396 13.314-1.81-.21-2.02-.979-2.33-3.052-.286-1.915-.768-5.119-5.064-5.119-1.118 0-2.176.229-3.136.574.236-.631.468-1.26.695-1.879.479-1.315.935-2.556 1.343-3.436.829-1.785 1.839-2.755 3.091-2.964 2.609-.446 5.965 2.36 7.045 3.478a1.621 1.621 0 0 0 2.339-2.243c-.515-.536-5.169-5.217-9.912-4.433-2.354.393-4.205 2.006-5.502 4.798-.467 1.002-.942 2.307-1.446 3.686-.22.597-.458 1.25-.714 1.923-1.593-1.382-3.123-1.591-4.17-1.727-.438-.055-.854-.109-.956-.219-.816-.887.904-3.321 2.081-4.528 2.938-1.485 6.89-3.753 7.991-6.744 3.715-.105 11.152-2.613 12.971-7.329a1.623 1.623 0 0 0-.929-2.095 1.623 1.623 0 0 0-2.096.929c-1.12 2.905-6.969 5.264-10.194 5.264-.064 0-.139-.033-.208-.056a1.562 1.562 0 0 0-.291-.148c-1.773-1.2-4.638-7.948-4.901-11.27-.142-1.765.391-3.074.903-4.339.321-.789.624-1.535.748-2.348.296-1.921-1.121-3.193-2.259-4.216-.58-.522-1.183-1.063-1.429-1.557-1.088-2.175 2.032-4.018 2.164-4.095a1.622 1.622 0 0 0 .602-2.207 1.617 1.617 0 0 0-2.209-.606c-2.055 1.17-5.422 4.424-3.455 8.357.522 1.044 1.394 1.826 2.162 2.518.126.114.277.249.43.392-.879-.17-2.187-.623-3.067-.929-2.443-.852-4.751-1.656-6.41-.833a2.785 2.785 0 0 0-1.431 1.679c-.851 2.615 1.131 5.589 2.878 8.215.773 1.161 1.65 2.477 1.816 3.166.44 1.824.302 3.212-.412 4.128-1.146 1.472-3.523 1.522-3.573 1.523a1.62 1.62 0 0 0 .008 3.241c.16 0 3.964-.032 6.103-2.748 1.366-1.736 1.712-4.059 1.025-6.904-.301-1.248-1.213-2.617-2.269-4.202-1.074-1.614-2.667-4.005-2.537-5.214.753-.002 2.598.612 3.735 1.008 1.452.507 2.854.983 4.098 1.118-.503 1.306-1.022 2.982-.851 5.109.184 2.303 2.377 10.268 5.875 13.284-.439 1.442-3 3.322-7.633 5.605-.859.423-1.253.618-1.528.827a.442.442 0 0 1-.347.099c-.161-.034-.348-.22-.514-.506-.113-.2-.188-.626-.259-1.041-.239-1.389-.737-4.276-4.975-4.276-2.225 0-4.078 2.041-5.533 4.625.641-13.95 1.787-31.345 2.062-35.421 1.13.485 2.792 1.04 4.497 1.04.715 0 1.437-.098 2.131-.339 1.52-.531 2.661-1.68 3.306-3.324a1.621 1.621 0 0 0-3.017-1.181c-.396 1.006-.962 1.306-1.354 1.444-1.502.525-3.84-.376-4.952-.929.665-2.222 2.046-5.304 4.751-6.412zm-53.3 37.219c1.595-4.201 4.621-6.776 6.084-7.83.174-.017.339-.069.498-.139.696.139 1.536.204 2.449.204 3.103 0 6.965-.718 8.315-1.562a1.62 1.62 0 0 0-1.717-2.747c-1.378.862-7.533 1.375-8.594.926a12.45 12.45 0 0 0-.71-.43c-1.17-.673-1.943-1.116-1.584-3.618.949-6.608 1.374-7.257 7.573-11.57a93.38 93.38 0 0 1 1.808-1.18c2.521-1.629 6.741-4.355 8.66-5.967 3.221-2.705 8.864-4.343 11.395-3.305 2.726 1.118 4.099 4.19 4.756 6.412-1.097.555-3.43 1.467-4.952.935-.394-.138-.961-.437-1.357-1.446a1.62 1.62 0 0 0-3.016 1.181c.643 1.644 1.786 2.794 3.307 3.324a6.421 6.421 0 0 0 2.128.339c1.703 0 3.364-.555 4.494-1.04.274 4.078 1.419 21.471 2.061 35.419-1.456-2.583-3.307-4.624-5.53-4.624-4.236 0-4.734 2.887-4.973 4.276-.071.413-.145.841-.259 1.041-.165.286-.352.472-.514.506-.102.023-.232-.015-.343-.099-.277-.209-.669-.404-1.529-.827-4.633-2.283-7.19-4.165-7.629-5.606 3.495-3.017 5.689-10.979 5.873-13.283.169-2.127-.348-3.803-.851-5.109 1.244-.135 2.644-.611 4.095-1.118 1.137-.396 2.986-1.004 3.732-1.008.129 1.209-1.462 3.601-2.536 5.214-1.054 1.585-1.965 2.954-2.267 4.202-.687 2.846-.341 5.168 1.026 6.906 2.138 2.714 5.939 2.746 6.1 2.746a1.621 1.621 0 0 0 0-3.241c-.023 0-2.417-.064-3.554-1.51-.721-.917-.864-2.31-.422-4.14.167-.691 1.042-2.006 1.814-3.167 1.747-2.626 3.727-5.601 2.877-8.215a2.79 2.79 0 0 0-1.432-1.679c-1.657-.823-3.965-.019-6.407.833-.881.307-2.186.76-3.063.929.152-.143.304-.278.43-.393.768-.691 1.638-1.473 2.16-2.517 1.967-3.934-1.398-7.187-3.453-8.357a1.62 1.62 0 0 0-1.61 2.812c.134.077 3.252 1.919 2.164 4.095-.246.494-.847 1.035-1.428 1.557-1.139 1.022-2.554 2.295-2.258 4.217.126.812.428 1.558.748 2.348.514 1.266 1.044 2.574.904 4.338-.264 3.321-3.125 10.067-4.899 11.269-.102.041-.2.091-.292.149-.069.023-.141.056-.207.056-3.222 0-9.07-2.359-10.19-5.264a1.62 1.62 0 0 0-3.024 1.166c1.818 4.715 9.252 7.223 12.966 7.329 1.1 2.991 5.053 5.259 7.99 6.745 1.179 1.203 2.901 3.634 2.076 4.527-.101.109-.515.164-.954.219-1.047.136-2.577.345-4.167 1.726a146.67 146.67 0 0 1-.713-1.922c-.505-1.379-.981-2.682-1.447-3.686-1.295-2.792-3.146-4.405-5.5-4.798-4.741-.786-9.394 3.896-9.909 4.435a1.621 1.621 0 0 0 2.34 2.241c.996-1.041 4.431-3.928 7.037-3.479 1.251.208 2.264 1.177 3.093 2.965.409.88.862 2.12 1.342 3.435.227.62.458 1.249.695 1.88-.958-.345-2.017-.574-3.135-.574-4.295 0-4.775 3.204-5.062 5.119-.311 2.072-.519 2.842-2.328 3.052-1.347-.792-4.681-6.784-7.392-13.314a1.596 1.596 0 0 0-.339-.51c-.007-.995-.375-2.038-.817-3.229-.858-2.3-1.922-5.159-.627-8.57zm39.249 36.856c-1.407 1.285-2.887 1.833-4.511 1.67-4.403-.434-8.387-5.748-8.465-5.854a1.62 1.62 0 1 0-2.613 1.915c.197.269 4.882 6.578 10.748 7.164a8.323 8.323 0 0 0 2.942-.22c-.682.766-1.699 1.539-3.234 2.15l-.26.104c-3.711 1.482-6.643 2.652-11.292.521-2.468-1.131-2.852-2.764-3.336-4.83-.423-1.808-.903-3.854-2.993-5.188-2.974-1.899-5.626-1.699-7.757-1.539-2.195.166-3.515.267-4.976-1.559-6.767-8.459-3.86-12.601-3.754-12.747l.265-.472c.015-.043.135-.382.301-.9 3.539 7.837 6.49 11.803 8.792 11.803.061 0 .121-.004.18-.008 4.612-.424 5.119-3.801 5.42-5.817.31-2.063.447-2.36 1.858-2.36 2.441 0 4.658 1.769 5.412 2.44 1.143 2.021 2.521 3.605 4.304 4.168 2.47.778 3.717.577 5.296.324.234-.037.481-.077.749-.116 1.254-.186 2.192.011 2.873.594 1.149.983 1.417 2.977 1.423 3.654a1.62 1.62 0 0 0 3.24 0c0-.401-.072-3.969-2.536-6.098-.974-.842-2.715-1.762-5.47-1.357-.285.043-.547.085-.795.124-1.422.229-2.068.334-3.806-.215-.904-.285-1.766-1.404-2.554-2.854l.036-.03c-.03-.043-.723-1.069-.165-1.643.982-1.01 1.811-1.117 2.769-1.24.902-.116 2.022-.262 2.922-1.237 1.335-1.447 1.277-3.234.619-4.919.031-.005.062-.003.093-.008 1.087-.227 2.036-.962 2.67-2.072.398-.693.526-1.439.64-2.099.232-1.343.273-1.586 1.78-1.586 1.685 0 4.465 5.959 5.907 11.427.047 1.844.069 3.464.059 4.779-.012 1.528.02 2.896.047 4.102.117 5.163.164 7.298-2.828 10.029zm44.739-5.665c-1.463 1.826-2.785 1.725-4.979 1.559-2.131-.161-4.784-.361-7.76 1.538-2.093 1.334-2.571 3.381-2.995 5.188-.484 2.067-.868 3.7-3.339 4.831-4.651 2.135-7.585.961-11.298-.522l-.259-.104c-1.537-.611-2.554-1.385-3.236-2.15a8.341 8.341 0 0 0 2.945.22c5.868-.586 10.556-6.896 10.752-7.163a1.622 1.622 0 0 0-.348-2.265 1.624 1.624 0 0 0-2.266.349c-1.102 1.504-4.77 5.486-8.461 5.854-1.638.17-3.111-.382-4.521-1.669-2.996-2.73-2.947-4.865-2.83-10.026.027-1.207.058-2.574.046-4.103-.009-1.316.013-2.937.06-4.78 1.439-5.468 4.22-11.426 5.91-11.426 1.508 0 1.549.243 1.781 1.588.113.657.241 1.403.64 2.097.634 1.11 1.582 1.845 2.669 2.072.032.005.063.003.095.008-.659 1.685-.717 3.472.62 4.919.901.976 2.021 1.121 2.922 1.237.96.123 1.789.23 2.772 1.24.558.573-.136 1.6-.155 1.631l.034.029c-.79 1.456-1.655 2.579-2.562 2.866-1.74.549-2.388.444-3.81.215-.248-.039-.51-.081-.795-.124-2.758-.401-4.499.516-5.473 1.358-2.464 2.129-2.535 5.695-2.535 6.097a1.62 1.62 0 0 0 3.24 0c0-.63.261-2.648 1.414-3.646.682-.588 1.623-.79 2.884-.602.269.039.517.079.75.116 1.582.255 2.828.454 5.298-.324 1.787-.562 3.162-2.146 4.307-4.168.759-.677 2.974-2.44 5.413-2.44 1.412 0 1.551.297 1.86 2.36.303 2.018.81 5.394 5.422 5.817.061.004.12.008.18.008 2.305-.001 5.257-3.967 8.798-11.805.166.521.287.859.302.902l.265.472c.031.039 3.045 4.248-3.757 12.746z"></path><path d="M83.18 30.547a1.621 1.621 0 0 0 .677-3.169c-1.028-.219-4.268-1.146-5.618-2.49-1.52-1.509-.958-4.751-.616-5.869a1.62 1.62 0 1 0-3.092-.968c-.076.241-1.804 5.926 1.423 9.135 2.267 2.253 6.726 3.254 7.226 3.361z"></path></g><g id="SvgjsG17591" class="text" transform="translate(259.22047857994033, 61.716825825445774) scale(1)" light-content="false" fill="#4a4a4a"><path d="M-111.32 -0.22C-109.74 -0.22 -108.16 -0.13 -106.61 0.06C-105.05 0.25 -103.48 0.4 -101.9 0.51L-101.74 0.51L-101.61 0.51C-101.59 0.51 -101.53 0.47 -101.42 0.4C-101.31 0.32 -101.23 0.29 -101.17 0.29C-100.81 -0.05 -100.54 -0.34 -100.36 -0.57C-100.18 -0.8 -100.09 -1.16 -100.09 -1.65L-100.09 -1.94C-100.09 -2.13 -100.11 -2.29 -100.17 -2.41C-100.22 -2.54 -100.34 -2.67 -100.53 -2.79C-100.66 -2.79 -100.87 -2.8 -101.17 -2.82C-101.46 -2.85 -101.77 -2.87 -102.1 -2.89C-102.43 -2.91 -102.74 -2.93 -103.02 -2.95C-103.31 -2.97 -103.5 -2.99 -103.61 -3.02C-103.65 -3.04 -103.74 -3.07 -103.88 -3.11C-104.02 -3.15 -104.16 -3.2 -104.31 -3.25C-104.46 -3.31 -104.6 -3.35 -104.74 -3.4C-104.87 -3.44 -104.95 -3.48 -104.97 -3.52C-105.23 -3.59 -105.47 -3.64 -105.7 -3.68C-105.94 -3.72 -106.15 -3.79 -106.34 -3.89C-106.53 -3.98 -106.7 -4.12 -106.85 -4.28C-107 -4.45 -107.1 -4.69 -107.16 -4.98C-107.18 -5.07 -107.21 -5.21 -107.23 -5.41C-107.25 -5.61 -107.27 -5.82 -107.29 -6.05C-107.31 -6.27 -107.33 -6.47 -107.35 -6.65C-107.38 -6.83 -107.39 -6.94 -107.39 -6.98C-107.39 -7 -107.38 -7.06 -107.35 -7.16C-107.33 -7.25 -107.31 -7.35 -107.28 -7.44C-107.24 -7.54 -107.22 -7.63 -107.2 -7.73C-107.17 -7.82 -107.16 -7.88 -107.16 -7.9C-107.12 -7.97 -107.07 -8.14 -107.02 -8.43C-106.97 -8.71 -106.92 -8.91 -106.88 -9.01L-106.88 -11.74C-106.88 -12.76 -106.93 -13.77 -107.02 -14.77C-107.12 -15.78 -107.16 -16.8 -107.16 -17.84C-107.16 -18.64 -107.08 -19.43 -106.91 -20.2C-106.74 -20.97 -106.66 -21.76 -106.66 -22.57L-106.66 -23.71C-106.66 -23.75 -106.68 -23.84 -106.72 -23.98C-106.76 -24.12 -106.82 -24.26 -106.88 -24.41C-106.94 -24.55 -107 -24.69 -107.05 -24.8C-107.11 -24.92 -107.14 -25 -107.16 -25.04L-107.16 -25.1C-107.16 -25.82 -107.05 -26.52 -106.83 -27.18C-106.61 -27.85 -106.5 -28.52 -106.5 -29.2C-106.5 -29.81 -106.51 -30.37 -106.55 -30.88C-106.58 -31.39 -106.61 -31.93 -106.66 -32.5C-106.66 -32.54 -106.7 -32.67 -106.78 -32.88C-106.83 -32.97 -106.86 -33.06 -106.88 -33.17L-106.88 -33.64L-106.88 -34.91C-106.92 -34.95 -106.97 -35.07 -107.02 -35.26C-107.07 -35.45 -107.12 -35.58 -107.16 -35.64L-107.16 -36.09C-107.16 -36.3 -107.13 -36.49 -107.05 -36.67C-106.98 -36.85 -106.91 -37.04 -106.83 -37.23L-106.61 -37.8C-106.53 -37.99 -106.5 -38.2 -106.5 -38.44L-106.5 -38.94L-106.53 -39.1C-106.55 -39.21 -106.57 -39.32 -106.58 -39.43C-106.59 -39.55 -106.6 -39.67 -106.62 -39.78C-106.65 -39.9 -106.66 -39.98 -106.66 -40.02C-106.66 -40.09 -106.64 -40.16 -106.61 -40.26C-106.58 -40.36 -106.54 -40.4 -106.5 -40.4C-105.97 -40.32 -105.45 -40.25 -104.94 -40.21C-104.43 -40.17 -103.92 -40.15 -103.39 -40.15C-102.88 -40.15 -102.39 -40.17 -101.93 -40.21C-101.46 -40.25 -101 -40.32 -100.53 -40.4C-100.34 -40.4 -100.16 -40.47 -99.99 -40.59C-99.82 -40.72 -99.68 -40.88 -99.56 -41.07C-99.45 -41.26 -99.36 -41.46 -99.29 -41.66C-99.23 -41.86 -99.2 -42.04 -99.2 -42.21C-99.2 -42.59 -99.28 -42.89 -99.44 -43.1C-99.59 -43.31 -99.8 -43.49 -100.04 -43.62C-100.28 -43.76 -100.54 -43.89 -100.82 -44.01C-101.09 -44.12 -101.36 -44.26 -101.61 -44.43L-103.39 -44.43C-104.34 -44.43 -105.22 -44.35 -106.02 -44.18C-106.83 -44.01 -107.66 -43.93 -108.53 -43.93C-108.68 -43.93 -108.89 -43.94 -109.18 -43.96C-109.47 -43.98 -109.72 -44.06 -109.96 -44.21C-110.11 -44.17 -110.33 -44.15 -110.62 -44.15L-111.54 -44.15L-112.5 -44.15C-112.79 -44.15 -112.99 -44.17 -113.1 -44.21C-113.18 -44.21 -113.39 -44.23 -113.7 -44.27C-114.02 -44.32 -114.36 -44.36 -114.73 -44.4C-115.1 -44.44 -115.45 -44.49 -115.78 -44.53C-116.11 -44.57 -116.32 -44.59 -116.4 -44.59L-116.72 -44.59C-116.99 -44.59 -117.38 -44.58 -117.89 -44.56C-118.4 -44.54 -118.9 -44.47 -119.38 -44.35C-119.87 -44.24 -120.3 -44.06 -120.67 -43.81C-121.04 -43.57 -121.22 -43.23 -121.22 -42.78C-121.22 -42.23 -121.09 -41.81 -120.83 -41.51C-120.56 -41.22 -120.18 -41.02 -119.67 -40.91C-119.48 -40.87 -119.15 -40.8 -118.67 -40.72C-118.19 -40.64 -117.69 -40.55 -117.16 -40.45C-116.63 -40.36 -116.13 -40.27 -115.64 -40.18C-115.15 -40.1 -114.81 -40.04 -114.62 -40.02C-114.31 -39.92 -114 -39.68 -113.7 -39.32C-113.41 -38.96 -113.26 -38.59 -113.26 -38.21L-113.26 -37.99C-113.3 -37.95 -113.36 -37.82 -113.43 -37.59C-113.51 -37.37 -113.54 -37.21 -113.54 -37.1L-113.51 -36.98C-113.49 -36.89 -113.46 -36.8 -113.43 -36.71L-113.34 -36.42C-113.31 -36.32 -113.28 -36.27 -113.26 -36.25L-113.26 -35.8C-113.26 -35.08 -113.31 -34.36 -113.4 -33.64C-113.5 -32.92 -113.54 -32.18 -113.54 -31.42L-113.54 -29.2C-113.44 -29.03 -113.36 -28.86 -113.32 -28.68C-113.28 -28.5 -113.26 -28.31 -113.26 -28.12L-113.26 -27.74C-113.26 -27.34 -113.34 -26.99 -113.51 -26.69C-113.68 -26.4 -113.77 -26.08 -113.77 -25.74L-113.77 -25.49C-113.72 -25.4 -113.68 -25.24 -113.62 -25.01C-113.57 -24.78 -113.54 -24.62 -113.54 -24.53C-113.54 -24.47 -113.54 -24.34 -113.53 -24.14C-113.52 -23.94 -113.51 -23.72 -113.51 -23.49C-113.51 -23.25 -113.51 -23.03 -113.5 -22.8C-113.49 -22.58 -113.48 -22.43 -113.48 -22.34C-113.48 -22.22 -113.49 -22.04 -113.5 -21.8C-113.51 -21.57 -113.51 -21.34 -113.51 -21.11C-113.51 -20.87 -113.52 -20.67 -113.53 -20.49C-113.54 -20.31 -113.54 -20.2 -113.54 -20.15C-113.54 -20.13 -113.55 -20.07 -113.58 -19.98C-113.6 -19.88 -113.62 -19.77 -113.65 -19.65C-113.69 -19.52 -113.71 -19.4 -113.73 -19.28C-113.76 -19.16 -113.77 -19.09 -113.77 -19.04L-113.77 -14.28C-113.77 -14.24 -113.78 -14.14 -113.8 -14C-113.82 -13.85 -113.85 -13.68 -113.88 -13.5C-113.91 -13.32 -113.94 -13.16 -113.96 -13.01C-113.98 -12.86 -113.99 -12.76 -113.99 -12.7L-113.99 -12.12C-113.99 -11.81 -113.95 -11.5 -113.88 -11.2C-113.8 -10.91 -113.77 -10.58 -113.77 -10.22C-113.77 -9.33 -113.81 -8.44 -113.89 -7.54C-113.98 -6.64 -114.01 -5.72 -113.99 -4.79C-114.41 -4.28 -114.88 -3.9 -115.4 -3.65C-115.92 -3.4 -116.46 -3.22 -117.03 -3.11C-117.61 -3 -118.19 -2.94 -118.78 -2.92C-119.37 -2.9 -119.97 -2.86 -120.56 -2.79C-120.62 -2.79 -120.74 -2.77 -120.91 -2.73C-121.08 -2.69 -121.18 -2.63 -121.22 -2.57C-121.33 -2.49 -121.39 -2.37 -121.41 -2.22C-121.44 -2.07 -121.45 -1.96 -121.45 -1.87C-121.45 -1.47 -121.32 -1.15 -121.08 -0.92C-120.84 -0.69 -120.54 -0.5 -120.19 -0.36C-119.84 -0.23 -119.48 -0.13 -119.1 -0.08C-118.72 -0.03 -118.4 0.02 -118.15 0.06L-117.92 0.06C-116.82 0.06 -115.73 0.02 -114.64 -0.08C-113.55 -0.17 -112.44 -0.22 -111.32 -0.22Z M-92.06 -0.06C-91.97 -0.04 -91.78 -0.02 -91.49 0C-91.19 0.02 -90.88 0.04 -90.55 0.05C-90.22 0.06 -89.9 0.07 -89.6 0.1C-89.29 0.12 -89.08 0.14 -88.98 0.16L-88.44 0.16C-87.68 0.16 -86.91 0.11 -86.14 0C-85.37 -0.11 -84.58 -0.16 -83.77 -0.16C-83.05 -0.16 -82.34 -0.11 -81.63 0C-80.92 0.11 -80.21 0.16 -79.49 0.16L-78.79 0.16L-78.25 0.16C-78.1 0.16 -77.95 0.14 -77.79 0.11C-77.63 0.08 -77.46 0.03 -77.28 -0.03C-77.1 -0.1 -76.89 -0.18 -76.63 -0.29C-76.59 -0.33 -76.51 -0.35 -76.38 -0.36C-76.25 -0.38 -76.11 -0.39 -75.97 -0.4C-75.82 -0.41 -75.68 -0.42 -75.55 -0.43C-75.43 -0.44 -75.33 -0.48 -75.27 -0.54L-75.27 -1.11C-75.27 -1.3 -75.28 -1.47 -75.3 -1.6C-75.32 -1.74 -75.4 -1.88 -75.55 -2.03C-75.87 -2.41 -76.15 -2.73 -76.38 -2.98C-76.61 -3.24 -76.92 -3.45 -77.3 -3.62C-77.93 -3.87 -78.59 -4.04 -79.27 -4.11C-79.94 -4.18 -80.57 -4.32 -81.14 -4.51C-81.71 -4.7 -82.18 -5.01 -82.54 -5.44C-82.9 -5.88 -83.07 -6.57 -83.07 -7.52C-83.07 -7.8 -83.04 -8.05 -82.96 -8.28C-82.89 -8.52 -82.85 -8.76 -82.85 -9.01C-82.85 -9.37 -82.89 -9.73 -82.96 -10.08C-83.04 -10.43 -83.07 -10.76 -83.07 -11.08C-83.07 -11.61 -83.03 -12.1 -82.93 -12.57C-82.84 -13.03 -82.79 -13.53 -82.79 -14.06C-82.79 -14.29 -82.8 -14.58 -82.82 -14.92C-82.84 -15.26 -82.85 -15.45 -82.85 -15.49C-82.85 -15.53 -82.86 -15.61 -82.88 -15.73C-82.91 -15.84 -82.93 -15.96 -82.96 -16.08C-83 -16.19 -83.02 -16.3 -83.04 -16.41L-83.07 -16.57C-83.07 -16.67 -83.07 -16.86 -83.06 -17.14C-83.05 -17.41 -83.04 -17.73 -83.04 -18.09C-83.04 -18.45 -83.04 -18.84 -83.03 -19.25C-83.02 -19.66 -83.01 -20.06 -83.01 -20.44L-83.01 -21.38C-83.01 -21.64 -83.03 -21.81 -83.07 -21.9C-83.07 -21.94 -83.1 -22.06 -83.14 -22.25C-83.18 -22.44 -83.22 -22.65 -83.27 -22.87C-83.31 -23.09 -83.35 -23.3 -83.39 -23.5C-83.43 -23.7 -83.46 -23.84 -83.46 -23.9L-83.46 -24.09C-83.46 -24.22 -83.46 -24.36 -83.47 -24.53C-83.48 -24.7 -83.49 -24.88 -83.49 -25.06L-83.49 -25.49L-83.49 -25.9C-83.49 -26.09 -83.48 -26.27 -83.47 -26.45C-83.46 -26.63 -83.46 -26.8 -83.46 -26.95L-83.46 -27.17C-83.46 -27.34 -83.42 -27.57 -83.34 -27.87C-83.27 -28.16 -83.17 -28.46 -83.04 -28.75C-82.92 -29.05 -82.76 -29.31 -82.58 -29.53C-82.4 -29.75 -82.2 -29.87 -81.96 -29.87C-81.71 -29.87 -81.5 -29.8 -81.35 -29.68C-81.19 -29.55 -81.02 -29.38 -80.85 -29.17C-80.79 -29.13 -80.67 -29.02 -80.5 -28.85L-79.95 -28.29L-79.39 -27.74C-79.22 -27.57 -79.11 -27.47 -79.04 -27.45C-79.04 -27.41 -78.99 -27.34 -78.89 -27.25C-78.78 -27.15 -78.67 -27.06 -78.55 -26.96C-78.44 -26.87 -78.32 -26.78 -78.2 -26.71C-78.09 -26.63 -78.01 -26.59 -77.97 -26.56C-77.92 -26.52 -77.85 -26.44 -77.74 -26.31C-77.64 -26.18 -77.58 -26.11 -77.58 -26.09C-77.54 -26.07 -77.48 -26 -77.41 -25.9C-77.34 -25.79 -77.26 -25.68 -77.17 -25.55C-77.09 -25.42 -77.02 -25.3 -76.97 -25.18C-76.91 -25.07 -76.88 -25 -76.85 -24.98C-76.73 -24.85 -76.59 -24.74 -76.44 -24.64C-76.29 -24.55 -76.14 -24.45 -75.98 -24.36C-75.82 -24.26 -75.66 -24.16 -75.51 -24.06C-75.35 -23.95 -75.21 -23.82 -75.11 -23.68C-75.11 -23.63 -75.05 -23.52 -74.92 -23.34C-74.79 -23.16 -74.71 -23.05 -74.66 -23.01C-74.6 -22.97 -74.48 -22.86 -74.3 -22.69C-74.12 -22.52 -73.93 -22.34 -73.74 -22.14C-73.55 -21.94 -73.37 -21.75 -73.2 -21.58C-73.04 -21.41 -72.94 -21.31 -72.92 -21.26C-72.77 -21.1 -72.65 -20.91 -72.55 -20.71C-72.46 -20.51 -72.37 -20.31 -72.28 -20.11C-72.2 -19.91 -72.1 -19.71 -72 -19.53C-71.89 -19.36 -71.76 -19.19 -71.59 -19.04C-71.54 -19.02 -71.46 -18.96 -71.35 -18.87C-71.23 -18.77 -71.11 -18.68 -70.98 -18.58C-70.86 -18.49 -70.74 -18.4 -70.65 -18.31C-70.55 -18.23 -70.5 -18.19 -70.47 -18.19C-70.47 -18.16 -70.44 -18.12 -70.38 -18.06C-70.36 -18.02 -70.33 -17.99 -70.28 -17.96C-70.26 -17.92 -70.21 -17.82 -70.11 -17.66C-70.01 -17.5 -69.92 -17.34 -69.82 -17.17C-69.73 -17 -69.64 -16.84 -69.55 -16.68C-69.47 -16.52 -69.42 -16.43 -69.4 -16.41C-69.35 -16.37 -69.25 -16.27 -69.08 -16.12C-68.91 -15.97 -68.72 -15.82 -68.52 -15.65C-68.32 -15.48 -68.13 -15.32 -67.95 -15.17C-67.77 -15.02 -67.65 -14.93 -67.59 -14.89C-67.48 -14.78 -67.43 -14.68 -67.43 -14.6C-66.69 -13.71 -65.99 -12.79 -65.33 -11.84C-64.68 -10.89 -63.96 -9.98 -63.18 -9.11C-63.11 -9.05 -62.95 -8.88 -62.7 -8.6C-62.45 -8.33 -62.17 -8.03 -61.87 -7.71C-61.58 -7.4 -61.3 -7.09 -61.03 -6.81C-60.77 -6.52 -60.6 -6.34 -60.54 -6.25C-60.16 -5.81 -59.79 -5.34 -59.43 -4.86C-59.07 -4.37 -58.69 -3.9 -58.3 -3.46C-57.91 -3.02 -57.48 -2.61 -57.02 -2.25C-56.55 -1.89 -56.02 -1.62 -55.43 -1.43C-55.41 -1.41 -55.38 -1.4 -55.34 -1.4C-55.29 -1.38 -55.24 -1.36 -55.18 -1.36C-54.75 -1.36 -54.4 -1.52 -54.11 -1.82C-53.83 -2.13 -53.54 -2.43 -53.24 -2.73C-53.28 -2.84 -53.3 -3.03 -53.3 -3.3L-53.3 -4.16L-53.3 -5.03C-53.3 -5.29 -53.28 -5.48 -53.24 -5.59C-53.24 -5.65 -53.2 -5.8 -53.13 -6.05C-53.06 -6.29 -53.02 -6.45 -53.02 -6.54L-53.02 -6.7C-53.02 -7.61 -53.1 -8.51 -53.27 -9.39C-53.44 -10.28 -53.53 -11.18 -53.53 -12.09L-53.53 -13.52C-53.51 -13.58 -53.48 -13.71 -53.46 -13.89C-53.44 -14.07 -53.42 -14.26 -53.38 -14.47C-53.35 -14.68 -53.33 -14.89 -53.3 -15.08C-53.28 -15.27 -53.26 -15.4 -53.24 -15.49C-53.24 -15.57 -53.2 -15.74 -53.13 -15.98C-53.06 -16.22 -53.02 -16.37 -53.02 -16.41L-53.02 -19.49C-53.02 -19.51 -53.01 -19.57 -52.99 -19.68C-52.97 -19.78 -52.95 -19.9 -52.94 -20.03C-52.93 -20.15 -52.91 -20.27 -52.89 -20.38C-52.87 -20.48 -52.86 -20.56 -52.86 -20.6L-52.86 -24.37C-52.75 -24.52 -52.68 -24.7 -52.64 -24.9C-52.6 -25.1 -52.57 -25.3 -52.57 -25.49L-52.57 -26.09C-52.57 -26.62 -52.62 -27.08 -52.72 -27.49C-52.81 -27.89 -52.86 -28.33 -52.86 -28.82L-52.86 -29.87C-52.86 -29.91 -52.82 -30.02 -52.75 -30.2C-52.67 -30.38 -52.64 -30.49 -52.64 -30.53L-52.64 -31.29L-52.64 -33.33C-52.62 -33.49 -52.6 -33.78 -52.57 -34.18C-52.55 -34.58 -52.53 -35.01 -52.51 -35.45C-52.49 -35.9 -52.47 -36.31 -52.45 -36.71C-52.43 -37.1 -52.42 -37.38 -52.42 -37.55C-52.37 -37.84 -52.3 -38.18 -52.21 -38.56C-52.11 -38.94 -51.97 -39.23 -51.78 -39.42C-51.68 -39.52 -51.54 -39.67 -51.38 -39.85C-51.23 -40.03 -51.06 -40.2 -50.89 -40.37C-50.64 -40.56 -50.38 -40.73 -50.11 -40.88C-49.85 -41.03 -49.63 -41.14 -49.46 -41.23C-49.38 -41.27 -49.2 -41.34 -48.92 -41.43C-48.65 -41.53 -48.5 -41.58 -48.48 -41.58L-47.62 -41.86C-47.31 -41.97 -47.01 -42.1 -46.73 -42.26C-46.46 -42.42 -46.23 -42.61 -46.05 -42.85C-45.87 -43.08 -45.78 -43.37 -45.78 -43.7C-45.78 -44.11 -45.81 -44.39 -45.88 -44.56C-45.94 -44.73 -46.04 -44.84 -46.16 -44.89C-46.29 -44.95 -46.45 -44.98 -46.64 -44.99C-46.83 -45 -47.05 -45.05 -47.31 -45.13C-47.35 -45.17 -47.47 -45.21 -47.67 -45.23C-47.87 -45.25 -47.97 -45.27 -47.97 -45.29C-48.95 -45.29 -49.96 -45.22 -51 -45.07C-52.05 -44.92 -53.05 -44.85 -54 -44.85L-60.99 -45.29L-61.56 -45.29C-61.7 -45.29 -61.85 -45.29 -61.98 -45.27C-62.12 -45.26 -62.21 -45.26 -62.25 -45.26C-62.32 -45.24 -62.42 -45.2 -62.57 -45.15C-62.72 -45.09 -62.87 -45.01 -63.03 -44.89C-63.19 -44.78 -63.33 -44.63 -63.46 -44.47C-63.59 -44.3 -63.66 -44.1 -63.68 -43.86C-63.73 -43.29 -63.61 -42.87 -63.35 -42.59C-63.09 -42.32 -62.74 -42.03 -62.32 -41.74C-62.3 -41.74 -62.24 -41.71 -62.16 -41.66C-62.07 -41.6 -61.98 -41.55 -61.89 -41.48C-61.79 -41.42 -61.7 -41.36 -61.6 -41.31C-61.51 -41.25 -61.45 -41.23 -61.43 -41.23C-61.39 -41.21 -61.3 -41.18 -61.18 -41.15C-61.05 -41.12 -60.92 -41.09 -60.78 -41.05L-60.37 -40.96C-60.23 -40.93 -60.14 -40.91 -60.1 -40.91C-59.44 -40.76 -58.89 -40.39 -58.43 -39.8C-57.98 -39.21 -57.59 -38.6 -57.27 -37.99C-57.21 -37.95 -57.16 -37.88 -57.11 -37.77C-57.07 -37.66 -57.05 -37.59 -57.05 -37.55L-57.05 -32.06C-57.01 -32.01 -56.96 -31.91 -56.91 -31.74C-56.85 -31.57 -56.83 -31.44 -56.83 -31.36C-56.81 -31.29 -56.79 -31.15 -56.76 -30.93C-56.74 -30.71 -56.72 -30.47 -56.7 -30.21C-56.68 -29.96 -56.66 -29.72 -56.64 -29.48C-56.62 -29.25 -56.61 -29.07 -56.61 -28.95C-56.58 -28.78 -56.56 -28.47 -56.54 -28.02C-56.52 -27.58 -56.5 -27.1 -56.48 -26.58C-56.46 -26.06 -56.44 -25.57 -56.41 -25.1C-56.39 -24.64 -56.36 -24.3 -56.32 -24.09C-56.32 -24.05 -56.33 -23.87 -56.35 -23.57C-56.37 -23.26 -56.38 -22.96 -56.38 -22.66C-56.38 -22.39 -56.36 -22.23 -56.32 -22.19C-56.32 -22.1 -56.29 -21.94 -56.24 -21.69C-56.19 -21.45 -56.16 -21.31 -56.16 -21.26L-56.16 -20.25C-56.16 -19.36 -56.23 -18.49 -56.38 -17.63C-56.53 -16.77 -56.75 -15.93 -57.05 -15.11C-57.09 -14.85 -57.2 -14.71 -57.37 -14.66C-57.54 -14.62 -57.72 -14.6 -57.91 -14.6C-58.22 -14.6 -58.47 -14.64 -58.65 -14.73C-58.83 -14.81 -58.99 -14.93 -59.11 -15.08C-59.24 -15.22 -59.36 -15.39 -59.46 -15.58C-59.57 -15.77 -59.72 -15.97 -59.91 -16.19C-60.01 -16.27 -60.19 -16.44 -60.43 -16.69C-60.67 -16.95 -60.93 -17.22 -61.21 -17.5C-61.48 -17.79 -61.75 -18.05 -62 -18.3C-62.25 -18.54 -62.43 -18.7 -62.54 -18.79C-62.56 -19.11 -62.66 -19.37 -62.84 -19.57C-63.02 -19.77 -63.24 -19.94 -63.49 -20.09C-63.75 -20.24 -64.01 -20.38 -64.27 -20.5C-64.53 -20.63 -64.77 -20.79 -64.98 -20.98C-65.2 -21.21 -65.4 -21.5 -65.59 -21.85C-65.78 -22.2 -65.95 -22.51 -66.09 -22.79C-67.05 -23.61 -67.93 -24.5 -68.75 -25.45C-69.56 -26.41 -70.27 -27.44 -70.89 -28.56C-71.37 -28.78 -71.87 -29.16 -72.38 -29.71C-72.89 -30.26 -73.39 -30.87 -73.9 -31.53C-74.41 -32.2 -74.9 -32.86 -75.36 -33.52C-75.83 -34.17 -76.25 -34.71 -76.63 -35.13C-77.06 -35.58 -77.5 -35.98 -77.98 -36.32C-78.46 -36.67 -78.89 -37.08 -79.27 -37.55C-79.56 -37.88 -79.79 -38.26 -79.95 -38.66C-80.11 -39.06 -80.33 -39.43 -80.63 -39.77L-80.92 -40.05C-81.06 -40.2 -81.22 -40.36 -81.39 -40.55C-81.56 -40.73 -81.72 -40.88 -81.87 -41.02C-82.02 -41.16 -82.1 -41.25 -82.12 -41.29C-82.42 -41.61 -82.71 -41.96 -83 -42.35C-83.28 -42.75 -83.58 -43.11 -83.9 -43.43C-84.22 -43.76 -84.57 -44.04 -84.96 -44.26C-85.35 -44.48 -85.82 -44.59 -86.34 -44.59C-86.58 -44.59 -86.78 -44.59 -86.95 -44.58C-87.12 -44.57 -87.34 -44.52 -87.61 -44.43L-92.5 -44.43C-92.65 -44.43 -92.86 -44.4 -93.14 -44.32C-93.41 -44.25 -93.57 -44.21 -93.61 -44.21C-93.68 -44.17 -93.76 -44.08 -93.87 -43.96C-93.97 -43.83 -94.08 -43.69 -94.2 -43.54C-94.32 -43.4 -94.42 -43.25 -94.52 -43.12C-94.61 -42.98 -94.67 -42.88 -94.69 -42.81C-94.71 -42.77 -94.72 -42.72 -94.72 -42.66C-94.74 -42.59 -94.75 -42.51 -94.75 -42.4C-94.75 -42.25 -94.66 -42.04 -94.47 -41.75C-94.28 -41.47 -94.05 -41.17 -93.79 -40.86C-93.52 -40.56 -93.25 -40.28 -92.98 -40.02C-92.7 -39.77 -92.47 -39.61 -92.28 -39.55C-92.26 -39.55 -92.19 -39.54 -92.09 -39.51C-91.98 -39.49 -91.87 -39.47 -91.74 -39.45C-91.61 -39.43 -91.5 -39.4 -91.39 -39.37C-91.28 -39.34 -91.22 -39.32 -91.2 -39.32C-91.18 -39.3 -91.12 -39.26 -91.03 -39.2C-90.93 -39.13 -90.83 -39.06 -90.74 -38.99C-90.64 -38.92 -90.55 -38.85 -90.47 -38.78C-90.39 -38.72 -90.33 -38.68 -90.31 -38.66C-90.25 -38.61 -90.13 -38.57 -89.96 -38.53C-89.79 -38.49 -89.61 -38.45 -89.42 -38.4C-89.23 -38.36 -89.05 -38.32 -88.88 -38.29C-88.71 -38.26 -88.61 -38.23 -88.57 -38.21C-88.12 -38.06 -87.72 -37.83 -87.36 -37.51C-87 -37.2 -86.69 -36.84 -86.44 -36.44C-86.19 -36.03 -85.99 -35.61 -85.85 -35.15C-85.71 -34.7 -85.65 -34.26 -85.65 -33.83C-85.65 -33.77 -85.68 -33.62 -85.76 -33.37C-85.83 -33.13 -85.89 -32.99 -85.93 -32.94C-85.93 -32.73 -85.95 -32.37 -85.99 -31.87C-86.04 -31.36 -86.08 -30.82 -86.12 -30.26C-86.16 -29.7 -86.21 -29.17 -86.25 -28.68C-86.29 -28.18 -86.32 -27.85 -86.34 -27.68L-86.34 -25.49C-86.34 -25.42 -86.38 -25.3 -86.44 -25.1C-86.5 -24.91 -86.53 -24.8 -86.53 -24.76C-86.56 -24.67 -86.58 -24.45 -86.61 -24.09C-86.65 -23.73 -86.67 -23.34 -86.69 -22.92C-86.71 -22.49 -86.73 -22.09 -86.74 -21.71C-86.75 -21.33 -86.76 -21.08 -86.76 -20.98C-86.76 -20.96 -86.77 -20.9 -86.79 -20.8C-86.81 -20.71 -86.84 -20.6 -86.87 -20.47C-86.9 -20.34 -86.93 -20.22 -86.95 -20.11C-86.97 -19.99 -86.99 -19.91 -87.01 -19.87L-87.01 -19.33C-87.01 -19.12 -87 -18.94 -86.98 -18.79C-86.96 -18.64 -86.93 -18.49 -86.9 -18.34C-86.87 -18.2 -86.84 -18.04 -86.8 -17.88C-86.77 -17.73 -86.76 -17.53 -86.76 -17.3L-86.76 -16.19C-86.76 -16.14 -86.77 -16.06 -86.8 -15.93C-86.84 -15.81 -86.87 -15.67 -86.9 -15.54C-86.93 -15.4 -86.96 -15.27 -86.98 -15.14C-87 -15.01 -87.01 -14.93 -87.01 -14.89L-87.01 -13.3L-87.01 -12.63C-87.01 -12.59 -87.04 -12.49 -87.09 -12.33C-87.14 -12.17 -87.19 -12.07 -87.23 -12.03L-87.23 -5.59L-87.31 -5.44C-87.36 -5.35 -87.43 -5.25 -87.5 -5.14C-87.58 -5.04 -87.65 -4.92 -87.71 -4.79C-87.77 -4.67 -87.81 -4.57 -87.84 -4.51C-88.09 -4.13 -88.45 -3.88 -88.93 -3.78C-89.41 -3.67 -89.9 -3.59 -90.42 -3.52C-90.94 -3.46 -91.45 -3.35 -91.96 -3.21C-92.47 -3.06 -92.89 -2.76 -93.23 -2.32C-93.4 -2.02 -93.51 -1.8 -93.55 -1.67C-93.59 -1.53 -93.61 -1.34 -93.61 -1.11C-93.61 -0.86 -93.58 -0.67 -93.5 -0.56C-93.43 -0.44 -93.32 -0.35 -93.17 -0.3C-93.02 -0.25 -92.86 -0.21 -92.68 -0.19C-92.5 -0.17 -92.29 -0.13 -92.06 -0.06Z M-24.33 0.44C-24.2 0.63 -24 0.86 -23.72 1.13C-23.45 1.39 -23.16 1.52 -22.87 1.52C-22.42 1.52 -22.1 1.42 -21.9 1.22C-21.7 1.02 -21.56 0.77 -21.49 0.48C-21.41 0.18 -21.36 -0.14 -21.31 -0.48C-21.27 -0.81 -21.19 -1.11 -21.06 -1.36C-21.04 -1.39 -20.98 -1.47 -20.9 -1.6C-20.82 -1.74 -20.72 -1.88 -20.61 -2.03C-20.51 -2.18 -20.41 -2.32 -20.33 -2.44C-20.24 -2.57 -20.19 -2.66 -20.17 -2.7C-20.15 -2.74 -20.13 -2.88 -20.11 -3.11C-20.09 -3.34 -20.07 -3.6 -20.06 -3.87C-20.05 -4.15 -20.03 -4.4 -20.01 -4.63C-19.99 -4.87 -19.97 -5 -19.95 -5.05C-19.91 -5.41 -19.78 -5.75 -19.58 -6.08C-19.38 -6.41 -19.21 -6.74 -19.06 -7.08C-18.7 -7.95 -18.35 -8.8 -18.01 -9.63C-17.67 -10.47 -17.29 -11.3 -16.87 -12.12C-16.87 -12.17 -16.84 -12.28 -16.79 -12.46C-16.74 -12.64 -16.69 -12.77 -16.65 -12.85C-16.56 -13.21 -16.5 -13.61 -16.46 -14.03C-16.41 -14.45 -16.37 -14.88 -16.31 -15.31C-16.26 -15.75 -16.2 -16.17 -16.12 -16.58C-16.05 -17 -15.93 -17.36 -15.76 -17.68C-15.76 -17.7 -15.72 -17.77 -15.63 -17.88C-15.55 -18 -15.45 -18.12 -15.35 -18.23C-15.24 -18.35 -15.14 -18.46 -15.06 -18.57C-14.98 -18.67 -14.92 -18.75 -14.9 -18.79L-14.9 -19.2L-14.9 -19.42C-14.88 -19.47 -14.82 -19.57 -14.73 -19.74C-14.63 -19.91 -14.54 -20.1 -14.44 -20.3C-14.35 -20.5 -14.25 -20.68 -14.16 -20.85C-14.06 -21.02 -13.99 -21.14 -13.95 -21.2C-13.91 -21.33 -13.84 -21.5 -13.76 -21.72C-13.67 -21.95 -13.58 -22.17 -13.49 -22.39C-13.39 -22.61 -13.31 -22.82 -13.23 -23.01C-13.16 -23.2 -13.12 -23.33 -13.12 -23.39C-13.12 -23.43 -13.11 -23.53 -13.09 -23.68C-13.07 -23.82 -13.05 -23.98 -13.03 -24.15C-13.01 -24.32 -12.98 -24.49 -12.95 -24.64C-12.92 -24.8 -12.89 -24.91 -12.87 -24.98C-12.87 -25.04 -12.86 -25.13 -12.84 -25.25C-12.82 -25.36 -12.8 -25.48 -12.79 -25.6C-12.78 -25.71 -12.76 -25.82 -12.74 -25.91C-12.72 -26.01 -12.71 -26.07 -12.71 -26.09C-12.52 -26.68 -12.33 -27.24 -12.14 -27.77C-11.95 -28.3 -11.77 -28.82 -11.62 -29.34C-11.46 -29.86 -11.31 -30.38 -11.19 -30.91C-11.06 -31.44 -10.95 -32.02 -10.87 -32.66C-10.85 -32.7 -10.79 -32.81 -10.7 -32.99C-10.6 -33.17 -10.53 -33.28 -10.49 -33.33C-10.47 -33.37 -10.44 -33.41 -10.41 -33.45C-10.38 -33.49 -10.35 -33.54 -10.33 -33.58L-10.27 -33.77L-10.27 -34.21L-10.27 -35.36C-10.27 -35.4 -10.21 -35.53 -10.09 -35.74C-9.98 -35.95 -9.85 -36.18 -9.73 -36.44L-9.38 -37.13C-9.27 -37.35 -9.21 -37.48 -9.19 -37.55C-9.06 -37.84 -8.94 -38.11 -8.84 -38.34C-8.73 -38.57 -8.62 -38.79 -8.49 -38.99C-8.36 -39.19 -8.21 -39.38 -8.03 -39.56C-7.85 -39.74 -7.63 -39.94 -7.38 -40.15C-7.06 -40.42 -6.7 -40.65 -6.3 -40.82C-5.9 -40.98 -5.49 -41.14 -5.08 -41.28C-4.67 -41.41 -4.25 -41.56 -3.84 -41.72C-3.43 -41.88 -3.05 -42.08 -2.71 -42.34C-2.63 -42.42 -2.51 -42.53 -2.36 -42.67C-2.22 -42.81 -2.07 -42.95 -1.94 -43.1C-1.8 -43.25 -1.68 -43.38 -1.59 -43.5C-1.49 -43.61 -1.44 -43.68 -1.44 -43.7L-1.44 -43.93C-1.44 -43.95 -1.49 -44.01 -1.59 -44.1L-1.94 -44.45L-2.36 -44.88C-2.51 -45.03 -2.63 -45.15 -2.71 -45.26C-2.84 -45.34 -2.96 -45.41 -3.06 -45.45C-3.17 -45.49 -3.28 -45.51 -3.41 -45.51C-3.45 -45.51 -3.5 -45.49 -3.54 -45.45C-3.58 -45.43 -3.61 -45.42 -3.63 -45.42C-3.7 -45.42 -3.85 -45.39 -4.09 -45.34C-4.34 -45.29 -4.48 -45.26 -4.52 -45.26L-7 -45.26C-7.02 -45.26 -7.11 -45.23 -7.28 -45.16C-7.45 -45.1 -7.56 -45.06 -7.6 -45.04C-7.81 -45.02 -8.13 -45 -8.55 -44.99C-8.98 -44.98 -9.46 -44.97 -10 -44.96C-10.54 -44.95 -11.1 -44.93 -11.68 -44.91C-12.26 -44.89 -12.82 -44.87 -13.36 -44.86C-13.9 -44.85 -14.38 -44.84 -14.81 -44.83C-15.23 -44.82 -15.55 -44.81 -15.76 -44.81L-16.04 -44.81C-16.23 -44.81 -16.42 -44.85 -16.61 -44.93C-16.81 -45 -17 -45.04 -17.19 -45.04C-17.61 -45.04 -17.99 -44.87 -18.33 -44.53C-18.67 -44.19 -18.84 -43.81 -18.84 -43.39C-18.84 -42.86 -18.73 -42.5 -18.5 -42.32C-18.28 -42.14 -18 -42.03 -17.66 -41.99C-17.32 -41.95 -16.97 -41.91 -16.6 -41.88C-16.23 -41.85 -15.89 -41.73 -15.57 -41.51C-15.23 -41.24 -14.94 -40.88 -14.71 -40.43C-14.48 -39.99 -14.32 -39.6 -14.23 -39.26C-14.21 -39.24 -14.19 -39.15 -14.17 -38.99C-14.15 -38.83 -14.13 -38.65 -14.11 -38.44L-14.04 -37.8C-14.02 -37.59 -13.99 -37.43 -13.95 -37.32L-13.95 -36.47L-13.95 -35.74C-13.99 -35.72 -14.03 -35.65 -14.08 -35.55C-14.12 -35.44 -14.17 -35.33 -14.22 -35.21C-14.27 -35.1 -14.32 -34.99 -14.36 -34.88C-14.4 -34.78 -14.44 -34.7 -14.46 -34.66C-14.46 -34.59 -14.47 -34.48 -14.49 -34.31C-14.51 -34.14 -14.54 -33.95 -14.57 -33.75C-14.6 -33.55 -14.63 -33.37 -14.65 -33.2C-14.67 -33.03 -14.68 -32.92 -14.68 -32.88C-14.83 -32.22 -15 -31.56 -15.2 -30.9C-15.4 -30.23 -15.59 -29.56 -15.76 -28.88C-15.78 -28.86 -15.81 -28.75 -15.85 -28.56C-15.9 -28.37 -15.94 -28.17 -16 -27.95C-16.05 -27.72 -16.09 -27.51 -16.12 -27.31C-16.15 -27.11 -16.17 -26.99 -16.17 -26.95C-16.19 -26.9 -16.24 -26.8 -16.31 -26.64C-16.39 -26.49 -16.47 -26.32 -16.55 -26.14C-16.64 -25.96 -16.71 -25.79 -16.77 -25.64C-16.84 -25.5 -16.87 -25.4 -16.87 -25.36C-16.89 -25.3 -16.91 -25.13 -16.92 -24.85C-16.93 -24.58 -16.94 -24.27 -16.96 -23.95C-16.98 -23.62 -17.01 -23.31 -17.03 -23.03C-17.05 -22.74 -17.07 -22.57 -17.09 -22.5C-17.11 -22.44 -17.16 -22.32 -17.25 -22.15C-17.33 -21.98 -17.43 -21.8 -17.54 -21.61C-17.64 -21.42 -17.74 -21.25 -17.82 -21.09C-17.9 -20.93 -17.96 -20.84 -17.98 -20.82C-17.98 -20.78 -18 -20.7 -18.04 -20.58C-18.09 -20.47 -18.13 -20.33 -18.17 -20.19C-18.21 -20.04 -18.26 -19.89 -18.31 -19.76C-18.37 -19.62 -18.41 -19.51 -18.46 -19.42C-18.6 -18.92 -18.71 -18.43 -18.77 -17.96C-18.84 -17.5 -18.91 -17.04 -18.98 -16.6C-19.05 -16.15 -19.16 -15.72 -19.3 -15.28C-19.43 -14.85 -19.65 -14.4 -19.95 -13.93C-20.03 -13.83 -20.19 -13.66 -20.41 -13.43C-20.63 -13.19 -20.77 -13.06 -20.84 -13.01C-20.9 -12.99 -20.96 -12.98 -21.03 -12.98C-21.07 -12.96 -21.12 -12.95 -21.19 -12.95L-21.25 -12.95L-21.41 -12.95C-21.47 -12.95 -21.52 -12.96 -21.57 -12.98C-21.65 -12.98 -21.71 -12.99 -21.76 -13.01L-22.06 -13.31C-22.22 -13.47 -22.32 -13.61 -22.36 -13.71C-22.42 -13.8 -22.52 -13.96 -22.66 -14.2C-22.8 -14.45 -22.94 -14.71 -23.07 -15C-23.21 -15.28 -23.34 -15.55 -23.45 -15.79C-23.57 -16.03 -23.66 -16.21 -23.72 -16.31C-23.72 -16.36 -23.73 -16.44 -23.76 -16.55C-23.78 -16.67 -23.8 -16.78 -23.84 -16.9C-23.87 -17.02 -23.89 -17.13 -23.91 -17.23L-23.95 -17.39C-23.99 -17.52 -24.03 -17.68 -24.07 -17.88C-24.12 -18.09 -24.15 -18.28 -24.18 -18.47C-24.22 -18.66 -24.25 -18.83 -24.28 -18.98L-24.33 -19.2C-24.37 -19.27 -24.49 -19.42 -24.68 -19.66C-24.87 -19.91 -24.99 -20.05 -25.06 -20.09C-25.08 -20.15 -25.12 -20.25 -25.18 -20.39C-25.25 -20.53 -25.32 -20.67 -25.39 -20.8C-25.46 -20.94 -25.53 -21.07 -25.6 -21.19C-25.66 -21.3 -25.7 -21.38 -25.72 -21.42C-25.72 -21.44 -25.73 -21.52 -25.76 -21.65C-25.78 -21.77 -25.8 -21.92 -25.82 -22.07C-25.84 -22.23 -25.86 -22.38 -25.88 -22.5C-25.9 -22.63 -25.92 -22.7 -25.95 -22.72C-26.12 -23.47 -26.38 -24.17 -26.74 -24.85C-27.1 -25.53 -27.42 -26.23 -27.69 -26.95C-27.69 -26.97 -27.7 -27.03 -27.72 -27.14C-27.74 -27.24 -27.77 -27.36 -27.79 -27.49C-27.81 -27.61 -27.83 -27.73 -27.85 -27.85C-27.87 -27.97 -27.89 -28.04 -27.91 -28.06C-27.91 -28.1 -27.94 -28.2 -27.99 -28.36C-28.05 -28.52 -28.09 -28.62 -28.14 -28.66C-28.26 -29.02 -28.47 -29.36 -28.75 -29.68C-29.04 -29.99 -29.19 -30.33 -29.22 -30.69L-29.22 -32.25C-29.22 -32.29 -29.23 -32.37 -29.25 -32.48C-29.27 -32.6 -29.29 -32.72 -29.33 -32.83C-29.36 -32.95 -29.38 -33.06 -29.41 -33.15C-29.43 -33.25 -29.44 -33.3 -29.44 -33.33C-29.48 -33.39 -29.55 -33.54 -29.66 -33.77C-29.77 -34 -29.88 -34.25 -29.99 -34.52C-30.11 -34.78 -30.23 -35.03 -30.34 -35.28C-30.46 -35.52 -30.53 -35.67 -30.55 -35.74C-30.57 -35.78 -30.59 -35.87 -30.61 -36.02C-30.63 -36.17 -30.65 -36.33 -30.68 -36.5C-30.7 -36.67 -30.72 -36.83 -30.74 -36.99C-30.76 -37.15 -30.78 -37.26 -30.8 -37.32C-30.87 -37.77 -30.99 -38.17 -31.17 -38.53C-31.35 -38.89 -31.44 -39.33 -31.44 -39.86C-31.44 -40.41 -31.32 -40.81 -31.07 -41.05C-30.83 -41.3 -30.53 -41.46 -30.17 -41.55C-29.81 -41.63 -29.42 -41.68 -28.99 -41.69C-28.57 -41.7 -28.18 -41.76 -27.82 -41.86C-27.46 -41.97 -27.16 -42.15 -26.91 -42.42C-26.67 -42.68 -26.55 -43.11 -26.55 -43.7C-26.55 -43.92 -26.61 -44.09 -26.74 -44.23C-26.87 -44.36 -27.02 -44.48 -27.2 -44.56C-27.38 -44.65 -27.58 -44.71 -27.79 -44.75C-28 -44.79 -28.19 -44.81 -28.36 -44.81L-28.77 -44.81C-28.81 -44.81 -28.89 -44.8 -28.99 -44.78C-29.1 -44.76 -29.22 -44.74 -29.34 -44.7C-29.47 -44.67 -29.59 -44.65 -29.69 -44.62C-29.8 -44.6 -29.86 -44.59 -29.88 -44.59L-30.48 -44.59L-31.69 -44.59C-32.05 -44.59 -32.41 -44.57 -32.77 -44.51C-33.13 -44.46 -33.5 -44.34 -33.88 -44.15L-38.67 -44.15C-39.03 -44.29 -39.35 -44.38 -39.63 -44.4C-39.9 -44.42 -40.21 -44.43 -40.55 -44.43L-41.18 -44.43C-41.54 -44.43 -41.92 -44.42 -42.32 -44.39C-42.73 -44.35 -43.1 -44.27 -43.45 -44.15C-43.8 -44.02 -44.08 -43.84 -44.31 -43.59C-44.53 -43.35 -44.64 -43.02 -44.64 -42.59L-44.64 -42.34C-44.62 -42.28 -44.55 -42.18 -44.43 -42.05C-44.32 -41.93 -44.18 -41.79 -44.04 -41.64C-43.89 -41.49 -43.75 -41.36 -43.62 -41.24C-43.5 -41.13 -43.4 -41.05 -43.34 -41.01C-43.32 -41.01 -43.24 -41 -43.1 -40.97C-42.96 -40.95 -42.82 -40.93 -42.67 -40.91C-42.52 -40.89 -42.38 -40.87 -42.24 -40.86C-42.11 -40.85 -42.02 -40.85 -41.97 -40.85C-41.95 -40.85 -41.91 -40.84 -41.83 -40.82C-41.76 -40.79 -41.67 -40.77 -41.58 -40.74C-41.48 -40.7 -41.39 -40.68 -41.31 -40.66C-41.22 -40.64 -41.17 -40.62 -41.15 -40.62C-41.13 -40.6 -41.06 -40.58 -40.94 -40.56L-40.59 -40.5C-40.48 -40.48 -40.37 -40.46 -40.26 -40.43C-40.15 -40.41 -40.08 -40.4 -40.04 -40.4C-39.81 -40.36 -39.63 -40.32 -39.5 -40.28C-39.37 -40.23 -39.25 -40.12 -39.15 -39.93C-39.06 -39.78 -38.94 -39.59 -38.77 -39.37C-38.6 -39.15 -38.43 -38.94 -38.26 -38.74C-38.09 -38.54 -37.94 -38.36 -37.82 -38.2C-37.69 -38.04 -37.6 -37.95 -37.56 -37.93C-37.56 -37.91 -37.54 -37.78 -37.48 -37.56C-37.43 -37.34 -37.4 -37.18 -37.4 -37.07L-37.4 -36.47C-37.38 -36.43 -37.33 -36.34 -37.26 -36.2C-37.19 -36.06 -37.11 -35.91 -37.04 -35.75C-36.96 -35.59 -36.89 -35.45 -36.82 -35.31C-36.74 -35.17 -36.71 -35.09 -36.71 -35.07C-36.66 -34.99 -36.62 -34.81 -36.56 -34.53C-36.51 -34.26 -36.48 -34.08 -36.48 -33.99C-36.4 -33.76 -36.25 -33.35 -36.02 -32.77C-35.8 -32.19 -35.56 -31.57 -35.31 -30.91C-35.05 -30.26 -34.81 -29.63 -34.58 -29.04C-34.35 -28.45 -34.19 -28.02 -34.1 -27.77C-34.06 -27.71 -34.01 -27.61 -33.96 -27.49C-33.91 -27.36 -33.86 -27.23 -33.82 -27.09C-33.77 -26.95 -33.73 -26.82 -33.69 -26.71C-33.65 -26.59 -33.63 -26.51 -33.63 -26.47C-33.63 -26.43 -33.62 -26.33 -33.59 -26.17C-33.57 -26.01 -33.55 -25.83 -33.53 -25.63C-33.51 -25.43 -33.49 -25.24 -33.47 -25.06C-33.45 -24.88 -33.43 -24.76 -33.4 -24.69L-33.31 -24.57C-33.25 -24.48 -33.18 -24.39 -33.1 -24.3C-33.03 -24.2 -32.95 -24.11 -32.88 -24.03C-32.81 -23.94 -32.76 -23.9 -32.74 -23.9C-32.59 -23.65 -32.49 -23.39 -32.44 -23.12C-32.38 -22.86 -32.34 -22.58 -32.29 -22.28C-32.29 -22.26 -32.29 -22.17 -32.28 -22.03C-32.27 -21.88 -32.25 -21.72 -32.23 -21.55C-32.21 -21.38 -32.19 -21.22 -32.17 -21.07C-32.15 -20.93 -32.11 -20.84 -32.07 -20.82C-32.07 -20.76 -32.04 -20.66 -31.98 -20.52C-31.91 -20.38 -31.84 -20.24 -31.75 -20.09C-31.67 -19.94 -31.6 -19.8 -31.53 -19.66C-31.47 -19.52 -31.44 -19.44 -31.44 -19.42C-31.18 -18.87 -30.94 -18.3 -30.71 -17.69C-30.47 -17.09 -30.27 -16.5 -30.1 -15.93C-29.72 -14.73 -29.35 -13.49 -28.98 -12.24C-28.61 -10.98 -28.18 -9.78 -27.69 -8.63C-27.63 -8.48 -27.54 -8.27 -27.42 -8C-27.31 -7.72 -27.25 -7.56 -27.25 -7.52C-27.25 -7.5 -27.24 -7.44 -27.22 -7.33C-27.19 -7.23 -27.17 -7.11 -27.15 -6.98C-27.13 -6.86 -27.11 -6.73 -27.09 -6.62C-27.07 -6.5 -27.05 -6.43 -27.03 -6.41C-27 -6.39 -26.96 -6.33 -26.9 -6.24C-26.83 -6.14 -26.77 -6.05 -26.69 -5.95C-26.62 -5.86 -26.54 -5.77 -26.47 -5.68C-26.4 -5.6 -26.35 -5.55 -26.33 -5.55C-26.33 -5.51 -26.31 -5.36 -26.26 -5.11C-26.22 -4.86 -26.18 -4.71 -26.14 -4.67C-26.12 -4.6 -26.06 -4.48 -25.96 -4.28C-25.87 -4.09 -25.77 -3.89 -25.68 -3.67C-25.58 -3.44 -25.49 -3.24 -25.39 -3.05L-25.22 -2.7C-25.22 -2.63 -25.2 -2.52 -25.17 -2.35C-25.14 -2.18 -25.1 -2.05 -25.06 -1.97C-25.04 -1.88 -24.99 -1.73 -24.93 -1.51C-24.87 -1.29 -24.8 -1.05 -24.72 -0.79C-24.65 -0.54 -24.58 -0.29 -24.5 -0.05C-24.43 0.2 -24.37 0.36 -24.33 0.44Z M13.76 -40.02L13.76 -40.09ZM-0.27 -1.52L-0.27 -1.49C-0.25 -1.39 -0.2 -1.22 -0.13 -0.98C-0.05 -0.75 0.02 -0.52 0.1 -0.3C0.17 -0.08 0.25 0.12 0.33 0.29C0.42 0.45 0.48 0.54 0.52 0.54L4.94 0.44L5.6 0.44C5.81 0.44 6.12 0.4 6.52 0.32C6.92 0.23 7.35 0.15 7.79 0.06C8.15 -0.02 8.46 -0.09 8.73 -0.14C8.99 -0.2 9.18 -0.22 9.28 -0.22L9.46 -0.22C9.55 -0.22 9.65 -0.24 9.76 -0.29C9.87 -0.31 9.97 -0.33 10.06 -0.35C10.16 -0.37 10.23 -0.38 10.27 -0.38C10.46 -0.44 10.57 -0.48 10.62 -0.49C10.66 -0.5 10.7 -0.51 10.74 -0.51C10.85 -0.51 11 -0.47 11.2 -0.4C11.4 -0.32 11.6 -0.26 11.79 -0.22C11.98 -0.16 12.17 -0.11 12.36 -0.06C12.55 -0.02 12.76 0 13 0L28.2 0C28.28 0 28.46 -0.01 28.74 -0.02C29.01 -0.03 29.31 -0.04 29.63 -0.06C29.95 -0.08 30.25 -0.11 30.55 -0.13C30.84 -0.15 31.06 -0.18 31.18 -0.22C31.23 -0.22 31.28 -0.23 31.34 -0.24C31.41 -0.25 31.55 -0.3 31.79 -0.38C32.02 -0.44 32.15 -0.48 32.18 -0.49C32.21 -0.5 32.24 -0.51 32.26 -0.51C32.49 -0.51 32.69 -0.5 32.85 -0.48C33.01 -0.45 33.18 -0.37 33.37 -0.22L36.13 -0.22C36.62 -0.22 37.13 -0.24 37.67 -0.29C38.21 -0.33 38.72 -0.43 39.2 -0.6C39.67 -0.77 40.09 -1.02 40.45 -1.35C40.81 -1.68 41.05 -2.14 41.18 -2.73C41.22 -3.22 41.27 -3.84 41.32 -4.6C41.38 -5.36 41.4 -6.06 41.4 -6.7L41.4 -7.62C41.4 -7.72 41.37 -7.88 41.29 -8.08C41.22 -8.28 41.14 -8.47 41.05 -8.66C40.95 -8.98 40.89 -9.15 40.89 -9.17L40.89 -10.28C40.89 -10.37 40.8 -10.49 40.63 -10.65C40.45 -10.81 40.31 -10.89 40.23 -10.89L40.04 -10.82C40 -10.8 39.94 -10.78 39.86 -10.74C39.79 -10.71 39.73 -10.69 39.69 -10.66C39.5 -10.56 39.38 -10.49 39.34 -10.47C39.3 -10.45 39.24 -10.44 39.18 -10.44C38.74 -10.23 38.36 -10 38.05 -9.74C37.75 -9.49 37.48 -9.2 37.26 -8.89C37.04 -8.57 36.84 -8.23 36.67 -7.86C36.5 -7.48 36.32 -7.08 36.13 -6.63C36.09 -6.59 36.02 -6.43 35.91 -6.16C35.85 -6.01 35.81 -5.92 35.8 -5.9C35.79 -5.88 35.76 -5.85 35.72 -5.81C35.7 -5.79 35.64 -5.73 35.55 -5.65C35.45 -5.56 35.34 -5.47 35.21 -5.36C35.09 -5.26 34.96 -5.15 34.83 -5.03C34.71 -4.91 34.59 -4.81 34.48 -4.73C34.42 -4.67 34.37 -4.62 34.32 -4.6C34.28 -4.58 34.24 -4.55 34.2 -4.51C34.11 -4.42 33.98 -4.35 33.79 -4.28C33.59 -4.22 33.38 -4.17 33.15 -4.13C33 -4.08 32.85 -4.05 32.69 -4.03C32.53 -4.01 32.3 -3.92 32.01 -3.78L32.07 -3.78C32.05 -3.78 32.02 -3.77 31.98 -3.75C31.94 -3.72 31.83 -3.65 31.66 -3.52C31.43 -3.37 31.2 -3.26 30.99 -3.19C30.78 -3.12 30.46 -3.08 30.04 -3.08C30.02 -3.08 30 -3.07 29.98 -3.06C29.96 -3.05 29.93 -3.05 29.91 -3.05C29.89 -3.03 29.87 -3.02 29.85 -3.02C29.85 -2.99 29.77 -2.98 29.61 -2.97C29.45 -2.96 29.27 -2.95 29.06 -2.95L28.44 -2.95L27.95 -2.95L27.56 -2.95L27.01 -2.95C26.81 -2.95 26.61 -2.96 26.42 -2.97C26.23 -2.98 26.07 -2.99 25.95 -3.02C25.9 -3.08 25.75 -3.17 25.49 -3.28C25.22 -3.4 25.04 -3.46 24.93 -3.46C24.82 -3.42 24.76 -3.39 24.72 -3.36C24.69 -3.34 24.59 -3.3 24.42 -3.24C24.38 -3.2 24.34 -3.17 24.3 -3.16C24.25 -3.15 24.21 -3.13 24.17 -3.11C24.13 -3.09 24.08 -3.08 24.04 -3.08C23.94 -3.04 23.68 -3 23.26 -2.97C22.85 -2.94 22.47 -2.9 22.11 -2.86C21.98 -2.86 21.86 -2.85 21.76 -2.82C21.65 -2.8 21.56 -2.79 21.47 -2.79C20.46 -2.79 19.72 -2.78 19.27 -2.75C18.81 -2.71 18.53 -2.68 18.42 -2.63L17.34 -2.63C17.01 -2.63 16.64 -2.64 16.25 -2.67C15.86 -2.69 15.49 -2.76 15.14 -2.87C14.79 -2.99 14.49 -3.16 14.25 -3.38C14.01 -3.6 13.86 -3.92 13.82 -4.35L13.82 -7.62C13.82 -7.83 13.82 -8.17 13.81 -8.65C13.8 -9.12 13.78 -9.62 13.76 -10.14C13.74 -10.66 13.72 -11.14 13.71 -11.58C13.7 -12.03 13.68 -12.33 13.66 -12.47C13.62 -12.83 13.56 -13.18 13.49 -13.5C13.41 -13.83 13.32 -14.14 13.22 -14.44C13.22 -14.46 13.14 -14.51 13 -14.6L13 -14.66L13 -14.81C13 -14.86 12.98 -14.91 12.93 -14.95C12.93 -15.03 12.92 -15.16 12.9 -15.33C12.88 -15.5 12.86 -15.67 12.85 -15.85C12.84 -16.03 12.83 -16.2 12.81 -16.36C12.79 -16.52 12.76 -16.63 12.74 -16.69C12.74 -16.8 12.72 -16.91 12.68 -17.01C12.64 -17.16 12.61 -17.3 12.58 -17.42C12.56 -17.55 12.55 -17.64 12.55 -17.68C12.55 -17.76 12.59 -17.88 12.66 -18.04C12.74 -18.2 12.8 -18.36 12.84 -18.5C12.88 -18.59 12.91 -18.66 12.92 -18.71C12.93 -18.76 12.93 -18.84 12.93 -18.95L12.93 -19.38C12.93 -19.53 12.92 -19.69 12.9 -19.84L13.82 -19.84C13.89 -19.86 13.96 -19.89 14.04 -19.93C14.11 -19.97 14.17 -20.01 14.22 -20.04C14.27 -20.07 14.32 -20.11 14.36 -20.15C14.47 -20.24 14.58 -20.31 14.71 -20.38C14.84 -20.44 15.02 -20.47 15.25 -20.47L15.79 -20.47C15.85 -20.47 16 -20.44 16.23 -20.38C16.32 -20.33 16.44 -20.31 16.58 -20.31C16.63 -20.27 16.72 -20.25 16.87 -20.25L17.44 -20.25C17.69 -20.25 17.97 -20.26 18.27 -20.28C18.56 -20.3 18.89 -20.31 19.25 -20.31C19.46 -20.27 19.77 -20.24 20.19 -20.23C20.6 -20.22 20.98 -20.2 21.34 -20.15L22.55 -20.03C23.04 -19.96 23.43 -19.78 23.74 -19.47C24.05 -19.16 24.3 -18.79 24.5 -18.36C24.7 -17.93 24.86 -17.47 24.96 -16.98C25.07 -16.49 25.16 -16.05 25.25 -15.65C25.25 -15.6 25.26 -15.54 25.28 -15.44C25.3 -15.35 25.31 -15.27 25.31 -15.2C25.31 -14.91 25.33 -14.6 25.37 -14.28C25.42 -13.96 25.49 -13.67 25.6 -13.41C25.7 -13.14 25.86 -12.92 26.07 -12.74C26.28 -12.56 26.56 -12.47 26.9 -12.47C27.28 -12.47 27.58 -12.55 27.79 -12.71C28 -12.87 28.16 -13.08 28.26 -13.33C28.37 -13.58 28.44 -13.87 28.49 -14.19C28.53 -14.5 28.57 -14.81 28.61 -15.11C28.61 -15.38 28.64 -15.64 28.71 -15.87C28.71 -15.95 28.73 -16.19 28.77 -16.57C28.81 -16.95 28.89 -17.37 28.99 -17.84C29.08 -18.32 29.15 -18.78 29.22 -19.2C29.28 -19.62 29.31 -19.9 29.31 -20.03C29.31 -20.09 29.3 -20.23 29.28 -20.44C29.26 -20.65 29.24 -20.88 29.22 -21.14C29.17 -21.39 29.15 -21.62 29.15 -21.84L29.15 -22.25L29.15 -29.77C29.07 -29.98 28.89 -30.23 28.63 -30.5C28.36 -30.78 28.02 -30.91 27.6 -30.91C27.53 -30.91 27.44 -30.9 27.33 -30.87C27.21 -30.83 27.09 -30.8 26.96 -30.75C26.83 -30.71 26.72 -30.67 26.63 -30.63C26.53 -30.59 26.48 -30.55 26.45 -30.53C26.2 -30.45 26.05 -30.27 25.99 -30.01C25.94 -29.74 25.89 -29.52 25.85 -29.33L25.85 -29.04C25.85 -29.1 25.81 -29.06 25.74 -28.9C25.67 -28.74 25.58 -28.51 25.47 -28.22C25.43 -28.17 25.4 -28.04 25.37 -27.82C25.35 -27.6 25.33 -27.35 25.31 -27.07C25.29 -26.8 25.27 -26.54 25.26 -26.3C25.25 -26.05 25.25 -25.89 25.25 -25.8C25.21 -25.57 25.14 -25.32 25.06 -25.06C24.97 -24.79 24.86 -24.55 24.72 -24.33C24.59 -24.11 24.42 -23.92 24.22 -23.77C24.02 -23.62 23.79 -23.55 23.53 -23.55C23.41 -23.55 23.27 -23.56 23.14 -23.58C23 -23.6 22.86 -23.63 22.71 -23.68C22.65 -23.68 22.57 -23.69 22.47 -23.71C22.38 -23.73 22.27 -23.75 22.17 -23.77L21.85 -23.84C21.56 -23.84 21.34 -23.81 21.2 -23.77C21.06 -23.73 20.91 -23.7 20.74 -23.68C20.57 -23.63 20.41 -23.6 20.25 -23.58C20.09 -23.56 19.93 -23.55 19.76 -23.55C19.57 -23.55 19.4 -23.56 19.25 -23.58C19.1 -23.6 18.94 -23.67 18.77 -23.77C18.73 -23.77 18.7 -23.78 18.68 -23.8C18.66 -23.82 18.64 -23.84 18.61 -23.84C18.47 -23.79 18.23 -23.77 17.92 -23.77L16.9 -23.77L15.87 -23.77C15.56 -23.77 15.36 -23.79 15.25 -23.84C15.06 -23.84 14.8 -23.85 14.47 -23.87C14.14 -23.89 13.98 -23.91 13.98 -23.93L13.82 -24.22L13.82 -25.33L13.98 -26.95C14.02 -27.24 14.05 -27.52 14.08 -27.79C14.1 -28.05 14.11 -28.31 14.11 -28.56C14.11 -29.05 14.07 -29.5 14 -29.9C13.92 -30.3 13.83 -30.69 13.73 -31.07C13.66 -31.26 13.61 -31.47 13.57 -31.69C13.53 -31.91 13.48 -32.11 13.44 -32.28C13.44 -32.57 13.47 -32.82 13.52 -33.02C13.57 -33.22 13.62 -33.42 13.66 -33.61C13.77 -33.89 13.82 -34.24 13.82 -34.66C13.86 -34.85 13.89 -35.21 13.89 -35.74L13.89 -37.39L13.89 -39.01C13.89 -39.54 13.86 -39.92 13.82 -40.15C13.82 -40.21 13.87 -40.3 13.98 -40.4C14.09 -40.57 14.23 -40.76 14.41 -40.97C14.59 -41.19 14.76 -41.29 14.93 -41.29C15.12 -41.29 15.32 -41.26 15.52 -41.2C15.72 -41.13 15.91 -41.07 16.08 -41.01C16.24 -40.96 16.41 -40.92 16.58 -40.86C16.75 -40.81 16.93 -40.78 17.12 -40.78C17.48 -40.76 17.85 -40.74 18.23 -40.72C18.61 -40.7 19 -40.69 19.38 -40.69C20.12 -40.65 20.85 -40.61 21.57 -40.58C22.29 -40.55 22.96 -40.41 23.6 -40.18L29.09 -40.18C29.36 -40.18 29.63 -40.06 29.9 -39.82C30.16 -39.57 30.35 -39.37 30.45 -39.2C30.52 -39.15 30.62 -38.98 30.75 -38.67C30.89 -38.37 31.01 -38.09 31.12 -37.83C31.27 -37.54 31.39 -37.26 31.5 -37.01C31.61 -36.75 31.68 -36.57 31.72 -36.47C31.87 -36.17 32.11 -35.75 32.44 -35.21C32.76 -34.67 33.13 -34.13 33.53 -33.59C33.93 -33.06 34.35 -32.58 34.79 -32.18C35.22 -31.78 35.63 -31.58 36.01 -31.58L36.34 -31.58C36.5 -31.58 36.61 -31.59 36.67 -31.61C36.8 -31.78 36.89 -31.96 36.93 -32.15C36.97 -32.34 36.99 -32.53 36.99 -32.72L36.99 -33.61C36.99 -33.65 37.02 -33.84 37.07 -34.17C37.12 -34.49 37.17 -34.84 37.21 -35.2C37.23 -35.37 37.25 -35.54 37.28 -35.72C37.3 -35.9 37.32 -36.13 37.34 -36.42C37.36 -36.71 37.37 -37.07 37.37 -37.5L37.37 -39.13C37.37 -39.56 37.36 -39.94 37.34 -40.28C37.32 -40.61 37.26 -41.03 37.15 -41.51C37.11 -41.79 36.99 -42.11 36.78 -42.48C36.58 -42.85 36.3 -43.08 35.94 -43.16C35.9 -43.19 35.78 -43.21 35.59 -43.23C35.4 -43.25 35.19 -43.27 34.96 -43.29C34.73 -43.31 34.51 -43.33 34.31 -43.35C34.11 -43.38 33.98 -43.39 33.91 -43.39C33.91 -43.41 33.69 -43.45 33.25 -43.53C32.8 -43.6 32.29 -43.64 31.72 -43.64C31.45 -43.64 31.18 -43.62 30.91 -43.59C30.65 -43.56 30.37 -43.52 30.07 -43.48C29.52 -43.42 28.96 -43.39 28.39 -43.39C28.14 -43.39 27.82 -43.42 27.44 -43.48C26.97 -43.54 26.51 -43.59 26.04 -43.61C25.58 -43.63 25.29 -43.64 25.18 -43.64L15.54 -43.64C15.45 -43.62 15.36 -43.6 15.25 -43.58C15.14 -43.56 15.04 -43.52 14.93 -43.48C14.79 -43.44 14.65 -43.41 14.54 -43.4C14.42 -43.39 14.35 -43.39 14.33 -43.39L10.58 -43.39L10.38 -43.39C10.35 -43.39 10.29 -43.37 10.2 -43.32L9.73 -43.23C9.64 -43.21 9.55 -43.19 9.44 -43.16C8.89 -43.16 8.48 -43.17 8.2 -43.2C7.93 -43.22 7.64 -43.28 7.35 -43.39C7.11 -43.39 6.72 -43.39 6.17 -43.4C5.62 -43.41 5.06 -43.44 4.49 -43.48C3.88 -43.52 3.31 -43.56 2.78 -43.58C2.25 -43.6 1.89 -43.62 1.7 -43.64C1.42 -43.62 1.12 -43.57 0.78 -43.5C0.44 -43.42 0.2 -43.37 0.05 -43.32C-0.12 -43.28 -0.22 -43.19 -0.24 -43.04C-0.26 -42.89 -0.27 -42.69 -0.27 -42.43C-0.27 -42.12 -0.16 -41.85 0.06 -41.64C0.29 -41.43 0.56 -41.26 0.89 -41.13C1.22 -41.01 1.56 -40.92 1.92 -40.86C2.28 -40.81 2.59 -40.78 2.84 -40.78C3.01 -40.78 3.15 -40.79 3.27 -40.82C3.39 -40.84 3.52 -40.87 3.67 -40.91C3.77 -40.95 3.89 -40.99 4.03 -41.02C4.17 -41.05 4.29 -41.07 4.4 -41.07C4.61 -41.07 4.89 -41.05 5.24 -41.02C5.59 -40.99 5.94 -40.93 6.28 -40.83C6.63 -40.74 6.95 -40.61 7.22 -40.47C7.5 -40.32 7.69 -40.12 7.79 -39.86L7.79 -39.2C7.79 -38.92 7.81 -38.61 7.86 -38.28C7.88 -37.92 7.9 -37.57 7.92 -37.24C7.94 -36.92 7.95 -36.64 7.95 -36.4C7.95 -36.11 7.94 -35.8 7.92 -35.47C7.9 -35.14 7.88 -34.83 7.86 -34.53C7.81 -34.24 7.79 -33.92 7.79 -33.59L7.79 -32.66C7.79 -32.3 7.84 -31.94 7.95 -31.58C8.01 -31.39 8.07 -31.2 8.11 -31.01C8.15 -30.82 8.17 -30.64 8.17 -30.47C8.17 -30.43 8.16 -30.35 8.14 -30.25L8.08 -29.93C8.04 -29.84 8 -29.75 7.98 -29.64C7.96 -29.54 7.95 -29.46 7.95 -29.42C7.95 -29.4 7.95 -29.25 7.93 -28.96C7.92 -28.68 7.91 -28.35 7.89 -27.98C7.87 -27.61 7.85 -27.23 7.84 -26.85C7.83 -26.47 7.81 -26.17 7.79 -25.96C7.79 -25.73 7.81 -25.5 7.84 -25.28C7.87 -25.06 7.91 -24.93 7.95 -24.88L7.95 -21.36C7.95 -21.32 7.96 -21.21 7.98 -21.04C8 -20.87 8.02 -20.68 8.05 -20.47L8.11 -19.84C8.13 -19.62 8.15 -19.48 8.17 -19.39C8.21 -19.22 8.25 -19.01 8.28 -18.74C8.32 -18.48 8.35 -18.29 8.39 -18.19C8.35 -17.76 8.32 -17.34 8.3 -16.92C8.28 -16.49 8.27 -16.07 8.27 -15.65C8.25 -15.6 8.23 -15.55 8.2 -15.49C8.18 -15.42 8.17 -15.35 8.17 -15.27C8.13 -14.69 8.1 -14.25 8.09 -13.92C8.08 -13.59 8.08 -13.19 8.08 -12.73C8.08 -12.47 8.09 -12.31 8.11 -12.25C8.02 -11.95 7.96 -11.71 7.92 -11.51C7.88 -11.3 7.83 -11.1 7.79 -10.89C7.71 -10.02 7.65 -9.15 7.62 -8.28C7.59 -7.42 7.57 -6.52 7.57 -5.59L7.57 -4C7.51 -3.77 7.36 -3.59 7.14 -3.46C6.92 -3.33 6.67 -3.24 6.38 -3.17C6.09 -3.11 5.8 -3.07 5.49 -3.05C5.18 -3.03 4.89 -3.02 4.62 -3.02L4.27 -3.02C4.23 -3.02 4.08 -3.03 3.84 -3.05C3.6 -3.07 3.16 -3.08 2.52 -3.08C2.29 -3.08 2.05 -3.07 1.79 -3.05C1.54 -3.03 1.34 -3.02 1.19 -3.02C0.77 -3.02 0.42 -2.84 0.14 -2.49C-0.13 -2.14 -0.27 -1.82 -0.27 -1.52Z M48.48 -0.06C48.56 -0.04 48.76 -0.02 49.05 0C49.35 0.02 49.66 0.04 49.99 0.05C50.32 0.06 50.63 0.07 50.94 0.1C51.25 0.12 51.45 0.14 51.56 0.16L52.1 0.16C52.86 0.16 53.63 0.11 54.4 0C55.17 -0.11 55.96 -0.16 56.76 -0.16C57.48 -0.16 58.2 -0.11 58.91 0C59.62 0.11 60.33 0.16 61.05 0.16L61.75 0.16L62.29 0.16C62.43 0.16 62.59 0.14 62.75 0.11C62.91 0.08 63.07 0.03 63.25 -0.03C63.43 -0.1 63.65 -0.18 63.91 -0.29C63.95 -0.33 64.03 -0.35 64.16 -0.36C64.29 -0.38 64.42 -0.39 64.57 -0.4C64.72 -0.41 64.86 -0.42 64.98 -0.43C65.11 -0.44 65.21 -0.48 65.27 -0.54L65.27 -1.11C65.27 -1.3 65.26 -1.47 65.24 -1.6C65.22 -1.74 65.13 -1.88 64.98 -2.03C64.67 -2.41 64.39 -2.73 64.16 -2.98C63.93 -3.24 63.62 -3.45 63.24 -3.62C62.6 -3.87 61.95 -4.04 61.27 -4.11C60.59 -4.18 59.97 -4.32 59.4 -4.51C58.83 -4.7 58.36 -5.01 58 -5.44C57.64 -5.88 57.46 -6.57 57.46 -7.52C57.46 -7.8 57.5 -8.05 57.57 -8.28C57.65 -8.52 57.68 -8.76 57.68 -9.01C57.68 -9.37 57.65 -9.73 57.57 -10.08C57.5 -10.43 57.46 -10.76 57.46 -11.08C57.46 -11.61 57.51 -12.1 57.6 -12.57C57.7 -13.03 57.75 -13.53 57.75 -14.06C57.75 -14.29 57.74 -14.58 57.72 -14.92C57.69 -15.26 57.68 -15.45 57.68 -15.49C57.68 -15.53 57.67 -15.61 57.65 -15.73C57.63 -15.84 57.6 -15.96 57.57 -16.08C57.54 -16.19 57.52 -16.3 57.49 -16.41L57.46 -16.57C57.46 -16.67 57.47 -16.86 57.48 -17.14C57.49 -17.41 57.49 -17.73 57.49 -18.09C57.49 -18.45 57.5 -18.84 57.51 -19.25C57.52 -19.66 57.53 -20.06 57.53 -20.44L57.53 -21.38C57.53 -21.64 57.5 -21.81 57.46 -21.9C57.46 -21.94 57.44 -22.06 57.4 -22.25C57.36 -22.44 57.31 -22.65 57.27 -22.87C57.23 -23.09 57.19 -23.3 57.14 -23.5C57.1 -23.7 57.08 -23.84 57.08 -23.9L57.08 -24.09C57.08 -24.22 57.08 -24.36 57.07 -24.53C57.05 -24.7 57.05 -24.88 57.05 -25.06L57.05 -25.49L57.05 -25.9C57.05 -26.09 57.05 -26.27 57.07 -26.45C57.08 -26.63 57.08 -26.8 57.08 -26.95L57.08 -27.17C57.08 -27.34 57.12 -27.57 57.19 -27.87C57.27 -28.16 57.37 -28.46 57.49 -28.75C57.62 -29.05 57.77 -29.31 57.95 -29.53C58.13 -29.75 58.34 -29.87 58.57 -29.87C58.83 -29.87 59.03 -29.8 59.19 -29.68C59.35 -29.55 59.51 -29.38 59.68 -29.17C59.75 -29.13 59.86 -29.02 60.03 -28.85L60.59 -28.29L61.14 -27.74C61.31 -27.57 61.43 -27.47 61.49 -27.45C61.49 -27.41 61.55 -27.34 61.65 -27.25C61.76 -27.15 61.87 -27.06 61.98 -26.96C62.1 -26.87 62.22 -26.78 62.33 -26.71C62.45 -26.63 62.53 -26.59 62.57 -26.56C62.61 -26.52 62.69 -26.44 62.79 -26.31C62.9 -26.18 62.95 -26.11 62.95 -26.09C62.99 -26.07 63.05 -26 63.13 -25.9C63.2 -25.79 63.28 -25.68 63.37 -25.55C63.45 -25.42 63.52 -25.3 63.57 -25.18C63.62 -25.07 63.66 -25 63.68 -24.98C63.81 -24.85 63.95 -24.74 64.1 -24.64C64.24 -24.55 64.4 -24.45 64.56 -24.36C64.71 -24.26 64.87 -24.16 65.03 -24.06C65.19 -23.95 65.32 -23.82 65.43 -23.68C65.43 -23.63 65.49 -23.52 65.62 -23.34C65.75 -23.16 65.83 -23.05 65.87 -23.01C65.94 -22.97 66.06 -22.86 66.24 -22.69C66.42 -22.52 66.6 -22.34 66.79 -22.14C66.98 -21.94 67.16 -21.75 67.33 -21.58C67.5 -21.41 67.6 -21.31 67.62 -21.26C67.77 -21.1 67.89 -20.91 67.98 -20.71C68.08 -20.51 68.17 -20.31 68.25 -20.11C68.34 -19.91 68.43 -19.71 68.54 -19.53C68.64 -19.36 68.78 -19.19 68.95 -19.04C68.99 -19.02 69.07 -18.96 69.19 -18.87C69.31 -18.77 69.43 -18.68 69.55 -18.58C69.68 -18.49 69.79 -18.4 69.89 -18.31C69.98 -18.23 70.04 -18.19 70.06 -18.19C70.06 -18.16 70.09 -18.12 70.16 -18.06C70.18 -18.02 70.21 -17.99 70.25 -17.96C70.27 -17.92 70.33 -17.82 70.43 -17.66C70.52 -17.5 70.62 -17.34 70.71 -17.17C70.81 -17 70.9 -16.84 70.98 -16.68C71.07 -16.52 71.12 -16.43 71.14 -16.41C71.18 -16.37 71.29 -16.27 71.46 -16.12C71.63 -15.97 71.81 -15.82 72.01 -15.65C72.22 -15.48 72.41 -15.32 72.59 -15.17C72.77 -15.02 72.89 -14.93 72.95 -14.89C73.06 -14.78 73.11 -14.68 73.11 -14.6C73.85 -13.71 74.55 -12.79 75.2 -11.84C75.86 -10.89 76.58 -9.98 77.36 -9.11C77.43 -9.05 77.58 -8.88 77.84 -8.6C78.09 -8.33 78.37 -8.03 78.66 -7.71C78.96 -7.4 79.24 -7.09 79.5 -6.81C79.77 -6.52 79.93 -6.34 80 -6.25C80.38 -5.81 80.75 -5.34 81.11 -4.86C81.47 -4.37 81.84 -3.9 82.23 -3.46C82.63 -3.02 83.05 -2.61 83.52 -2.25C83.98 -1.89 84.51 -1.62 85.11 -1.43C85.13 -1.41 85.16 -1.4 85.2 -1.4C85.24 -1.38 85.3 -1.36 85.36 -1.36C85.78 -1.36 86.14 -1.52 86.42 -1.82C86.71 -2.13 87 -2.43 87.3 -2.73C87.25 -2.84 87.23 -3.03 87.23 -3.3L87.23 -4.16L87.23 -5.03C87.23 -5.29 87.25 -5.48 87.3 -5.59C87.3 -5.65 87.33 -5.8 87.41 -6.05C87.48 -6.29 87.52 -6.45 87.52 -6.54L87.52 -6.7C87.52 -7.61 87.43 -8.51 87.26 -9.39C87.1 -10.28 87.01 -11.18 87.01 -12.09L87.01 -13.52C87.03 -13.58 87.05 -13.71 87.07 -13.89C87.1 -14.07 87.12 -14.26 87.15 -14.47C87.19 -14.68 87.21 -14.89 87.23 -15.08C87.25 -15.27 87.27 -15.4 87.3 -15.49C87.3 -15.57 87.33 -15.74 87.41 -15.98C87.48 -16.22 87.52 -16.37 87.52 -16.41L87.52 -19.49C87.52 -19.51 87.53 -19.57 87.55 -19.68C87.57 -19.78 87.59 -19.9 87.6 -20.03C87.61 -20.15 87.62 -20.27 87.65 -20.38C87.67 -20.48 87.68 -20.56 87.68 -20.6L87.68 -24.37C87.78 -24.52 87.86 -24.7 87.9 -24.9C87.94 -25.1 87.96 -25.3 87.96 -25.49L87.96 -26.09C87.96 -26.62 87.92 -27.08 87.82 -27.49C87.72 -27.89 87.68 -28.33 87.68 -28.82L87.68 -29.87C87.68 -29.91 87.71 -30.02 87.79 -30.2C87.86 -30.38 87.9 -30.49 87.9 -30.53L87.9 -31.29L87.9 -33.33C87.92 -33.49 87.94 -33.78 87.96 -34.18C87.98 -34.58 88 -35.01 88.03 -35.45C88.05 -35.9 88.07 -36.31 88.09 -36.71C88.11 -37.1 88.12 -37.38 88.12 -37.55C88.16 -37.84 88.23 -38.18 88.33 -38.56C88.42 -38.94 88.57 -39.23 88.76 -39.42C88.86 -39.52 88.99 -39.67 89.15 -39.85C89.31 -40.03 89.48 -40.2 89.64 -40.37C89.9 -40.56 90.16 -40.73 90.42 -40.88C90.69 -41.03 90.9 -41.14 91.07 -41.23C91.16 -41.27 91.34 -41.34 91.61 -41.43C91.89 -41.53 92.03 -41.58 92.06 -41.58L92.91 -41.86C93.23 -41.97 93.53 -42.1 93.8 -42.26C94.08 -42.42 94.3 -42.61 94.48 -42.85C94.66 -43.08 94.75 -43.37 94.75 -43.7C94.75 -44.11 94.72 -44.39 94.66 -44.56C94.6 -44.73 94.5 -44.84 94.37 -44.89C94.25 -44.95 94.09 -44.98 93.9 -44.99C93.71 -45 93.49 -45.05 93.23 -45.13C93.19 -45.17 93.07 -45.21 92.87 -45.23C92.67 -45.25 92.56 -45.27 92.56 -45.29C91.59 -45.29 90.58 -45.22 89.53 -45.07C88.49 -44.92 87.49 -44.85 86.53 -44.85L79.55 -45.29L78.98 -45.29C78.83 -45.29 78.69 -45.29 78.55 -45.27C78.41 -45.26 78.33 -45.26 78.28 -45.26C78.22 -45.24 78.11 -45.2 77.97 -45.15C77.82 -45.09 77.66 -45.01 77.5 -44.89C77.35 -44.78 77.2 -44.63 77.08 -44.47C76.95 -44.3 76.88 -44.1 76.85 -43.86C76.81 -43.29 76.92 -42.87 77.19 -42.59C77.45 -42.32 77.8 -42.03 78.22 -41.74C78.24 -41.74 78.29 -41.71 78.38 -41.66C78.46 -41.6 78.55 -41.55 78.65 -41.48C78.74 -41.42 78.84 -41.36 78.93 -41.31C79.03 -41.25 79.09 -41.23 79.11 -41.23C79.15 -41.21 79.23 -41.18 79.36 -41.15C79.49 -41.12 79.62 -41.09 79.76 -41.05L80.17 -40.96C80.31 -40.93 80.4 -40.91 80.44 -40.91C81.1 -40.76 81.65 -40.39 82.11 -39.8C82.56 -39.21 82.95 -38.6 83.27 -37.99C83.33 -37.95 83.38 -37.88 83.42 -37.77C83.47 -37.66 83.49 -37.59 83.49 -37.55L83.49 -32.06C83.53 -32.01 83.58 -31.91 83.63 -31.74C83.68 -31.57 83.71 -31.44 83.71 -31.36C83.73 -31.29 83.75 -31.15 83.77 -30.93C83.79 -30.71 83.82 -30.47 83.84 -30.21C83.86 -29.96 83.88 -29.72 83.9 -29.48C83.92 -29.25 83.93 -29.07 83.93 -28.95C83.95 -28.78 83.97 -28.47 84 -28.02C84.02 -27.58 84.04 -27.1 84.06 -26.58C84.08 -26.06 84.1 -25.57 84.12 -25.1C84.14 -24.64 84.18 -24.3 84.22 -24.09C84.22 -24.05 84.21 -23.87 84.19 -23.57C84.16 -23.26 84.15 -22.96 84.15 -22.66C84.15 -22.39 84.18 -22.23 84.22 -22.19C84.22 -22.1 84.24 -21.94 84.3 -21.69C84.35 -21.45 84.38 -21.31 84.38 -21.26L84.38 -20.25C84.38 -19.36 84.3 -18.49 84.15 -17.63C84.01 -16.77 83.78 -15.93 83.49 -15.11C83.45 -14.85 83.34 -14.71 83.17 -14.66C83 -14.62 82.82 -14.6 82.63 -14.6C82.31 -14.6 82.06 -14.64 81.88 -14.73C81.7 -14.81 81.55 -14.93 81.42 -15.08C81.3 -15.22 81.18 -15.39 81.08 -15.58C80.97 -15.77 80.82 -15.97 80.63 -16.19C80.53 -16.27 80.35 -16.44 80.11 -16.69C79.86 -16.95 79.6 -17.22 79.33 -17.5C79.05 -17.79 78.79 -18.05 78.54 -18.3C78.28 -18.54 78.1 -18.7 78 -18.79C77.98 -19.11 77.88 -19.37 77.7 -19.57C77.52 -19.77 77.3 -19.94 77.04 -20.09C76.79 -20.24 76.53 -20.38 76.27 -20.5C76 -20.63 75.76 -20.79 75.55 -20.98C75.34 -21.21 75.14 -21.5 74.95 -21.85C74.76 -22.2 74.59 -22.51 74.44 -22.79C73.49 -23.61 72.61 -24.5 71.79 -25.45C70.98 -26.41 70.26 -27.44 69.65 -28.56C69.16 -28.78 68.67 -29.16 68.16 -29.71C67.65 -30.26 67.14 -30.87 66.63 -31.53C66.13 -32.2 65.64 -32.86 65.17 -33.52C64.71 -34.17 64.29 -34.71 63.91 -35.13C63.48 -35.58 63.03 -35.98 62.56 -36.32C62.08 -36.67 61.65 -37.08 61.27 -37.55C60.97 -37.88 60.75 -38.26 60.59 -38.66C60.43 -39.06 60.2 -39.43 59.91 -39.77L59.62 -40.05C59.47 -40.2 59.31 -40.36 59.14 -40.55C58.98 -40.73 58.82 -40.88 58.67 -41.02C58.52 -41.16 58.44 -41.25 58.41 -41.29C58.12 -41.61 57.83 -41.96 57.54 -42.35C57.26 -42.75 56.95 -43.11 56.64 -43.43C56.32 -43.76 55.97 -44.04 55.57 -44.26C55.18 -44.48 54.72 -44.59 54.19 -44.59C53.96 -44.59 53.76 -44.59 53.59 -44.58C53.42 -44.57 53.2 -44.52 52.92 -44.43L48.04 -44.43C47.89 -44.43 47.68 -44.4 47.4 -44.32C47.13 -44.25 46.97 -44.21 46.93 -44.21C46.86 -44.17 46.78 -44.08 46.67 -43.96C46.57 -43.83 46.45 -43.69 46.34 -43.54C46.22 -43.4 46.12 -43.25 46.02 -43.12C45.93 -42.98 45.87 -42.88 45.85 -42.81C45.82 -42.77 45.81 -42.72 45.81 -42.66C45.79 -42.59 45.78 -42.51 45.78 -42.4C45.78 -42.25 45.88 -42.04 46.07 -41.75C46.26 -41.47 46.49 -41.17 46.75 -40.86C47.01 -40.56 47.28 -40.28 47.56 -40.02C47.83 -39.77 48.07 -39.61 48.26 -39.55C48.28 -39.55 48.34 -39.54 48.45 -39.51C48.55 -39.49 48.67 -39.47 48.8 -39.45C48.92 -39.43 49.04 -39.4 49.15 -39.37C49.25 -39.34 49.32 -39.32 49.34 -39.32C49.36 -39.3 49.42 -39.26 49.51 -39.2C49.61 -39.13 49.7 -39.06 49.8 -38.99C49.89 -38.92 49.98 -38.85 50.07 -38.78C50.15 -38.72 50.2 -38.68 50.23 -38.66C50.29 -38.61 50.41 -38.57 50.57 -38.53C50.74 -38.49 50.92 -38.45 51.11 -38.4C51.3 -38.36 51.48 -38.32 51.65 -38.29C51.82 -38.26 51.93 -38.23 51.97 -38.21C52.42 -38.06 52.82 -37.83 53.18 -37.51C53.54 -37.2 53.84 -36.84 54.1 -36.44C54.35 -36.03 54.55 -35.61 54.69 -35.15C54.82 -34.7 54.89 -34.26 54.89 -33.83C54.89 -33.77 54.85 -33.62 54.78 -33.37C54.71 -33.13 54.65 -32.99 54.61 -32.94C54.61 -32.73 54.58 -32.37 54.54 -31.87C54.5 -31.36 54.46 -30.82 54.42 -30.26C54.37 -29.7 54.33 -29.17 54.29 -28.68C54.25 -28.18 54.21 -27.85 54.19 -27.68L54.19 -25.49C54.19 -25.42 54.16 -25.3 54.1 -25.1C54.03 -24.91 54 -24.8 54 -24.76C53.98 -24.67 53.96 -24.45 53.92 -24.09C53.89 -23.73 53.87 -23.34 53.84 -22.92C53.82 -22.49 53.81 -22.09 53.8 -21.71C53.79 -21.33 53.78 -21.08 53.78 -20.98C53.78 -20.96 53.77 -20.9 53.75 -20.8C53.73 -20.71 53.7 -20.6 53.67 -20.47C53.64 -20.34 53.61 -20.22 53.59 -20.11C53.57 -19.99 53.55 -19.91 53.53 -19.87L53.53 -19.33C53.53 -19.12 53.54 -18.94 53.56 -18.79C53.58 -18.64 53.61 -18.49 53.64 -18.34C53.67 -18.2 53.7 -18.04 53.73 -17.88C53.76 -17.73 53.78 -17.53 53.78 -17.3L53.78 -16.19C53.78 -16.14 53.76 -16.06 53.73 -15.93C53.7 -15.81 53.67 -15.67 53.64 -15.54C53.61 -15.4 53.58 -15.27 53.56 -15.14C53.54 -15.01 53.53 -14.93 53.53 -14.89L53.53 -13.3L53.53 -12.63C53.53 -12.59 53.5 -12.49 53.45 -12.33C53.39 -12.17 53.35 -12.07 53.3 -12.03L53.3 -5.59L53.23 -5.44C53.17 -5.35 53.11 -5.25 53.03 -5.14C52.96 -5.04 52.89 -4.92 52.83 -4.79C52.76 -4.67 52.72 -4.57 52.7 -4.51C52.45 -4.13 52.08 -3.88 51.61 -3.78C51.13 -3.67 50.63 -3.59 50.11 -3.52C49.6 -3.46 49.08 -3.35 48.58 -3.21C48.07 -3.06 47.64 -2.76 47.31 -2.32C47.14 -2.02 47.03 -1.8 46.99 -1.67C46.95 -1.53 46.93 -1.34 46.93 -1.11C46.93 -0.86 46.96 -0.67 47.04 -0.56C47.11 -0.44 47.22 -0.35 47.37 -0.3C47.52 -0.25 47.68 -0.21 47.86 -0.19C48.04 -0.17 48.25 -0.13 48.48 -0.06Z M109.35 -0.22C110.94 -0.22 112.51 -0.13 114.07 0.06C115.62 0.25 117.19 0.4 118.78 0.51L118.94 0.51L119.07 0.51C119.09 0.51 119.15 0.47 119.26 0.4C119.36 0.32 119.45 0.29 119.51 0.29C119.87 -0.05 120.14 -0.34 120.32 -0.57C120.5 -0.8 120.59 -1.16 120.59 -1.65L120.59 -1.94C120.59 -2.13 120.56 -2.29 120.51 -2.41C120.46 -2.54 120.34 -2.67 120.15 -2.79C120.02 -2.79 119.81 -2.8 119.51 -2.82C119.21 -2.85 118.9 -2.87 118.57 -2.89C118.25 -2.91 117.94 -2.93 117.65 -2.95C117.37 -2.97 117.17 -2.99 117.07 -3.02C117.02 -3.04 116.93 -3.07 116.8 -3.11C116.66 -3.15 116.52 -3.2 116.37 -3.25C116.22 -3.31 116.08 -3.35 115.94 -3.4C115.8 -3.44 115.72 -3.48 115.7 -3.52C115.45 -3.59 115.2 -3.64 114.97 -3.68C114.74 -3.72 114.53 -3.79 114.34 -3.89C114.15 -3.98 113.98 -4.12 113.83 -4.28C113.68 -4.45 113.58 -4.69 113.51 -4.98C113.49 -5.07 113.47 -5.21 113.45 -5.41C113.43 -5.61 113.41 -5.82 113.39 -6.05C113.36 -6.27 113.34 -6.47 113.32 -6.65C113.3 -6.83 113.29 -6.94 113.29 -6.98C113.29 -7 113.3 -7.06 113.32 -7.16C113.34 -7.25 113.37 -7.35 113.4 -7.44C113.43 -7.54 113.46 -7.63 113.48 -7.73C113.5 -7.82 113.51 -7.88 113.51 -7.9C113.55 -7.97 113.6 -8.14 113.65 -8.43C113.71 -8.71 113.76 -8.91 113.8 -9.01L113.8 -11.74C113.8 -12.76 113.75 -13.77 113.65 -14.77C113.56 -15.78 113.51 -16.8 113.51 -17.84C113.51 -18.64 113.6 -19.43 113.77 -20.2C113.94 -20.97 114.02 -21.76 114.02 -22.57L114.02 -23.71C114.02 -23.75 114 -23.84 113.96 -23.98C113.91 -24.12 113.86 -24.26 113.8 -24.41C113.73 -24.55 113.68 -24.69 113.62 -24.8C113.57 -24.92 113.53 -25 113.51 -25.04L113.51 -25.1C113.51 -25.82 113.62 -26.52 113.85 -27.18C114.07 -27.85 114.18 -28.52 114.18 -29.2C114.18 -29.81 114.16 -30.37 114.13 -30.88C114.1 -31.39 114.06 -31.93 114.02 -32.5C114.02 -32.54 113.98 -32.67 113.89 -32.88C113.85 -32.97 113.82 -33.06 113.8 -33.17L113.8 -33.64L113.8 -34.91C113.76 -34.95 113.71 -35.07 113.65 -35.26C113.6 -35.45 113.55 -35.58 113.51 -35.64L113.51 -36.09C113.51 -36.3 113.55 -36.49 113.62 -36.67C113.7 -36.85 113.77 -37.04 113.85 -37.23L114.07 -37.8C114.14 -37.99 114.18 -38.2 114.18 -38.44L114.18 -38.94L114.15 -39.1C114.13 -39.21 114.11 -39.32 114.1 -39.43C114.09 -39.55 114.07 -39.67 114.05 -39.78C114.03 -39.9 114.02 -39.98 114.02 -40.02C114.02 -40.09 114.04 -40.16 114.07 -40.26C114.1 -40.36 114.14 -40.4 114.18 -40.4C114.71 -40.32 115.23 -40.25 115.73 -40.21C116.24 -40.17 116.76 -40.15 117.29 -40.15C117.8 -40.15 118.28 -40.17 118.75 -40.21C119.21 -40.25 119.68 -40.32 120.15 -40.4C120.34 -40.4 120.52 -40.47 120.68 -40.59C120.85 -40.72 121 -40.88 121.11 -41.07C121.23 -41.26 121.32 -41.46 121.38 -41.66C121.45 -41.86 121.48 -42.04 121.48 -42.21C121.48 -42.59 121.4 -42.89 121.24 -43.1C121.08 -43.31 120.88 -43.49 120.64 -43.62C120.39 -43.76 120.13 -43.89 119.86 -44.01C119.58 -44.12 119.32 -44.26 119.07 -44.43L117.29 -44.43C116.34 -44.43 115.46 -44.35 114.65 -44.18C113.85 -44.01 113.01 -43.93 112.15 -43.93C112 -43.93 111.78 -43.94 111.5 -43.96C111.21 -43.98 110.95 -44.06 110.72 -44.21C110.57 -44.17 110.35 -44.15 110.05 -44.15L109.13 -44.15L108.18 -44.15C107.88 -44.15 107.68 -44.17 107.58 -44.21C107.49 -44.21 107.29 -44.23 106.97 -44.27C106.66 -44.32 106.31 -44.36 105.94 -44.4C105.57 -44.44 105.22 -44.49 104.9 -44.53C104.57 -44.57 104.36 -44.59 104.28 -44.59L103.96 -44.59C103.68 -44.59 103.29 -44.58 102.78 -44.56C102.28 -44.54 101.78 -44.47 101.29 -44.35C100.81 -44.24 100.38 -44.06 100.01 -43.81C99.64 -43.57 99.45 -43.23 99.45 -42.78C99.45 -42.23 99.58 -41.81 99.85 -41.51C100.11 -41.22 100.5 -41.02 101.01 -40.91C101.2 -40.87 101.53 -40.8 102.01 -40.72C102.48 -40.64 102.99 -40.55 103.51 -40.45C104.04 -40.36 104.55 -40.27 105.04 -40.18C105.52 -40.1 105.86 -40.04 106.05 -40.02C106.37 -39.92 106.68 -39.68 106.97 -39.32C107.27 -38.96 107.42 -38.59 107.42 -38.21L107.42 -37.99C107.38 -37.95 107.32 -37.82 107.24 -37.59C107.17 -37.37 107.13 -37.21 107.13 -37.1L107.16 -36.98C107.19 -36.89 107.21 -36.8 107.24 -36.71L107.34 -36.42C107.37 -36.32 107.4 -36.27 107.42 -36.25L107.42 -35.8C107.42 -35.08 107.37 -34.36 107.28 -33.64C107.18 -32.92 107.13 -32.18 107.13 -31.42L107.13 -29.2C107.24 -29.03 107.31 -28.86 107.35 -28.68C107.4 -28.5 107.42 -28.31 107.42 -28.12L107.42 -27.74C107.42 -27.34 107.33 -26.99 107.16 -26.69C107 -26.4 106.91 -26.08 106.91 -25.74L106.91 -25.49C106.95 -25.4 107 -25.24 107.05 -25.01C107.11 -24.78 107.13 -24.62 107.13 -24.53C107.13 -24.47 107.14 -24.34 107.15 -24.14C107.16 -23.94 107.16 -23.72 107.16 -23.49C107.16 -23.25 107.17 -23.03 107.18 -22.8C107.19 -22.58 107.2 -22.43 107.2 -22.34C107.2 -22.22 107.19 -22.04 107.18 -21.8C107.17 -21.57 107.16 -21.34 107.16 -21.11C107.16 -20.87 107.16 -20.67 107.15 -20.49C107.14 -20.31 107.13 -20.2 107.13 -20.15C107.13 -20.13 107.12 -20.07 107.1 -19.98C107.08 -19.88 107.05 -19.77 107.02 -19.65C106.99 -19.52 106.96 -19.4 106.94 -19.28C106.92 -19.16 106.91 -19.09 106.91 -19.04L106.91 -14.28C106.91 -14.24 106.9 -14.14 106.88 -14C106.86 -13.85 106.83 -13.68 106.8 -13.5C106.77 -13.32 106.74 -13.16 106.72 -13.01C106.7 -12.86 106.69 -12.76 106.69 -12.7L106.69 -12.12C106.69 -11.81 106.73 -11.5 106.8 -11.2C106.87 -10.91 106.91 -10.58 106.91 -10.22C106.91 -9.33 106.87 -8.44 106.78 -7.54C106.7 -6.64 106.67 -5.72 106.69 -4.79C106.27 -4.28 105.79 -3.9 105.28 -3.65C104.76 -3.4 104.21 -3.22 103.64 -3.11C103.07 -3 102.49 -2.94 101.9 -2.92C101.3 -2.9 100.71 -2.86 100.12 -2.79C100.05 -2.79 99.94 -2.77 99.77 -2.73C99.6 -2.69 99.49 -2.63 99.45 -2.57C99.35 -2.49 99.28 -2.37 99.26 -2.22C99.24 -2.07 99.23 -1.96 99.23 -1.87C99.23 -1.47 99.35 -1.15 99.59 -0.92C99.84 -0.69 100.13 -0.5 100.48 -0.36C100.83 -0.23 101.2 -0.13 101.58 -0.08C101.96 -0.03 102.28 0.02 102.53 0.06L102.75 0.06C103.85 0.06 104.95 0.02 106.04 -0.08C107.13 -0.17 108.23 -0.22 109.35 -0.22Z"></path></g><g id="SvgjsG17592" class="text" transform="translate(226.21047857994034, 95.58726542351016) scale(1)" light-content="false" fill="#4a4a4a"><path d="M-83.37 -0.68C-81.82 0.21 -80.11 0.66 -78.24 0.66C-76.94 0.66 -75.87 0.56 -75.01 0.36C-74.15 0.17 -73.35 -0.2 -72.62 -0.74C-71.88 -1.28 -71.09 -2.08 -70.26 -3.13C-70.17 -3.22 -70.12 -3.33 -70.12 -3.47C-70.12 -3.71 -70.3 -3.95 -70.65 -4.19C-70.87 -4.32 -71.07 -4.39 -71.25 -4.39C-71.44 -4.39 -71.6 -4.29 -71.71 -4.09C-72.39 -2.99 -73.16 -2.19 -74 -1.7C-74.85 -1.2 -75.87 -0.96 -77.05 -0.96C-78.53 -0.96 -79.84 -1.38 -80.98 -2.23C-82.13 -3.07 -83.01 -4.22 -83.64 -5.66C-84.27 -7.1 -84.58 -8.7 -84.58 -10.46C-84.58 -12.49 -84.29 -14.23 -83.7 -15.69C-83.12 -17.15 -82.31 -18.27 -81.26 -19.02C-80.22 -19.78 -79.02 -20.16 -77.68 -20.16C-76.49 -20.16 -75.56 -19.87 -74.89 -19.29C-74.22 -18.71 -73.89 -17.92 -73.89 -16.93C-73.89 -16.42 -74.01 -15.99 -74.25 -15.64C-74.49 -15.29 -74.77 -15.01 -75.07 -14.82C-75.38 -14.62 -75.54 -14.5 -75.54 -14.45C-75.56 -14.34 -75.5 -14.19 -75.37 -13.99C-75.24 -13.79 -75.04 -13.62 -74.76 -13.48C-74.49 -13.34 -74.15 -13.27 -73.75 -13.27C-72.72 -13.27 -71.9 -13.61 -71.28 -14.31C-70.66 -15 -70.37 -15.84 -70.39 -16.83C-70.39 -18.41 -71.13 -19.59 -72.6 -20.34C-74.07 -21.1 -75.76 -21.48 -77.65 -21.48C-79.83 -21.48 -81.73 -21.02 -83.36 -20.08C-84.99 -19.15 -86.24 -17.83 -87.12 -16.14C-88 -14.44 -88.44 -12.49 -88.44 -10.26C-88.44 -8.06 -87.98 -6.14 -87.07 -4.49C-86.16 -2.84 -84.93 -1.57 -83.37 -0.68Z M-64.18 -0.68C-63.02 0.04 -61.69 0.4 -60.19 0.4C-59 0.4 -57.82 0.07 -56.63 -0.58C-55.44 -1.23 -54.46 -2.16 -53.67 -3.38C-52.89 -4.6 -52.5 -6.04 -52.5 -7.69C-52.5 -9.01 -52.83 -10.26 -53.48 -11.43C-54.13 -12.61 -55.03 -13.56 -56.2 -14.27C-57.36 -14.99 -58.7 -15.34 -60.19 -15.34C-61.4 -15.34 -62.6 -15.02 -63.79 -14.37C-64.98 -13.72 -65.96 -12.79 -66.73 -11.57C-67.5 -10.35 -67.88 -8.91 -67.88 -7.26C-67.88 -5.94 -67.56 -4.69 -66.91 -3.51C-66.26 -2.34 -65.35 -1.39 -64.18 -0.68ZM-56.91 -2.74C-57.6 -1.46 -58.7 -0.82 -60.19 -0.82C-61.67 -0.82 -62.76 -1.44 -63.46 -2.66C-64.16 -3.88 -64.51 -5.43 -64.51 -7.33C-64.51 -9.35 -64.17 -10.99 -63.49 -12.24C-62.81 -13.5 -61.71 -14.12 -60.19 -14.12C-58.74 -14.12 -57.66 -13.52 -56.94 -12.33C-56.23 -11.13 -55.87 -9.58 -55.87 -7.69C-55.87 -5.67 -56.22 -4.02 -56.91 -2.74Z M-50.11 -0.1C-50.01 0.03 -49.89 0.1 -49.73 0.1C-48.43 0.03 -47.29 0 -46.3 0C-45.27 0 -44.11 0.03 -42.83 0.1C-42.66 0.1 -42.53 0.03 -42.44 -0.1C-42.35 -0.23 -42.31 -0.39 -42.31 -0.56C-42.33 -0.82 -42.38 -0.99 -42.47 -1.06C-42.56 -1.12 -42.69 -1.15 -42.87 -1.15L-43.06 -1.15C-43.64 -1.15 -44.04 -1.25 -44.29 -1.45C-44.53 -1.65 -44.67 -1.88 -44.71 -2.14C-44.76 -2.41 -44.78 -2.83 -44.78 -3.4L-44.78 -11.25C-44.52 -11.78 -44.02 -12.29 -43.3 -12.79C-42.57 -13.28 -41.7 -13.53 -40.69 -13.53C-39.85 -13.53 -39.12 -13.26 -38.48 -12.72C-37.84 -12.18 -37.52 -11.41 -37.52 -10.4L-37.52 -3.4C-37.52 -2.83 -37.54 -2.41 -37.59 -2.14C-37.63 -1.88 -37.77 -1.65 -38.02 -1.45C-38.26 -1.25 -38.66 -1.15 -39.24 -1.15C-39.52 -1.15 -39.72 -1.13 -39.81 -1.07C-39.91 -1.02 -39.97 -0.85 -40 -0.56C-40 -0.39 -39.95 -0.23 -39.85 -0.1C-39.75 0.03 -39.62 0.1 -39.47 0.1C-38.17 0.03 -37.03 0 -36.04 0C-35 0 -33.85 0.03 -32.57 0.1C-32.42 0.1 -32.29 0.03 -32.19 -0.1C-32.09 -0.23 -32.04 -0.39 -32.04 -0.56C-32.06 -0.82 -32.12 -0.99 -32.21 -1.06C-32.3 -1.12 -32.43 -1.15 -32.6 -1.15L-32.8 -1.15C-33.37 -1.15 -33.78 -1.25 -34.02 -1.45C-34.26 -1.65 -34.41 -1.88 -34.45 -2.14C-34.5 -2.41 -34.52 -2.83 -34.52 -3.4L-34.52 -10.43C-34.52 -11.9 -34.96 -13.09 -35.84 -13.99C-36.72 -14.89 -37.91 -15.34 -39.4 -15.34C-40.26 -15.34 -41 -15.23 -41.63 -15C-42.26 -14.77 -42.77 -14.49 -43.16 -14.17C-43.56 -13.85 -44.08 -13.4 -44.71 -12.8L-44.81 -12.8L-44.81 -14.88C-44.81 -15.3 -44.99 -15.51 -45.34 -15.51L-45.44 -15.51C-45.57 -15.49 -45.83 -15.42 -46.2 -15.31C-47.12 -14.96 -48.3 -14.67 -49.73 -14.45C-49.91 -14.43 -50.04 -14.36 -50.13 -14.24C-50.22 -14.12 -50.26 -13.99 -50.26 -13.86C-50.26 -13.57 -50.19 -13.39 -50.06 -13.32C-49.93 -13.24 -49.73 -13.2 -49.47 -13.2C-48.89 -13.2 -48.49 -13.1 -48.25 -12.9C-48 -12.7 -47.87 -12.47 -47.83 -12.21C-47.8 -11.95 -47.78 -11.53 -47.78 -10.96L-47.78 -3.4C-47.78 -2.83 -47.8 -2.41 -47.83 -2.14C-47.87 -1.88 -48 -1.65 -48.25 -1.45C-48.49 -1.25 -48.89 -1.15 -49.47 -1.15C-49.75 -1.15 -49.95 -1.13 -50.06 -1.07C-50.17 -1.02 -50.24 -0.85 -50.26 -0.56C-50.26 -0.39 -50.21 -0.23 -50.11 -0.1Z M-28.68 -0.53C-27.58 0.09 -26.15 0.4 -24.39 0.4C-23.24 0.4 -22.21 0.19 -21.28 -0.21C-20.36 -0.62 -19.63 -1.19 -19.11 -1.93C-18.58 -2.67 -18.31 -3.49 -18.31 -4.39C-18.31 -5.27 -18.51 -5.98 -18.89 -6.52C-19.28 -7.06 -19.8 -7.49 -20.46 -7.8C-21.12 -8.12 -22.03 -8.47 -23.2 -8.84C-24.34 -9.22 -25.18 -9.52 -25.71 -9.74C-26.23 -9.95 -26.63 -10.25 -26.89 -10.61C-27.16 -10.97 -27.29 -11.46 -27.29 -12.08C-27.29 -12.76 -26.98 -13.29 -26.35 -13.68C-25.72 -14.06 -24.99 -14.26 -24.16 -14.26C-23.41 -14.26 -22.76 -14.09 -22.21 -13.76C-21.66 -13.43 -21.36 -12.97 -21.32 -12.37C-21.32 -12.09 -21.39 -11.84 -21.53 -11.63C-21.68 -11.42 -21.83 -11.24 -22.01 -11.09C-22.19 -10.93 -22.27 -10.85 -22.27 -10.82C-22.27 -10.71 -22.14 -10.56 -21.86 -10.36C-21.59 -10.16 -21.27 -10.07 -20.92 -10.07C-20.33 -10.07 -19.85 -10.27 -19.49 -10.69C-19.12 -11.11 -18.94 -11.62 -18.94 -12.21C-18.94 -13.2 -19.42 -13.97 -20.38 -14.52C-21.33 -15.07 -22.46 -15.34 -23.76 -15.34C-24.77 -15.34 -25.73 -15.18 -26.65 -14.85C-27.56 -14.52 -28.3 -14.02 -28.87 -13.36C-29.45 -12.7 -29.73 -11.91 -29.73 -10.99C-29.73 -10 -29.49 -9.2 -29.01 -8.58C-28.52 -7.96 -27.94 -7.5 -27.26 -7.19C-26.58 -6.89 -25.7 -6.58 -24.62 -6.27C-23.74 -6.01 -23.05 -5.77 -22.56 -5.58C-22.06 -5.38 -21.65 -5.1 -21.32 -4.75C-20.99 -4.4 -20.82 -3.95 -20.82 -3.4C-20.82 -2.59 -21.11 -1.95 -21.7 -1.5C-22.28 -1.05 -23.09 -0.82 -24.12 -0.82C-25.27 -0.82 -26.14 -1.02 -26.75 -1.4C-27.35 -1.79 -27.65 -2.31 -27.65 -2.97C-27.65 -3.45 -27.53 -3.83 -27.27 -4.09C-27.02 -4.36 -26.89 -4.5 -26.89 -4.52C-26.89 -4.63 -27.03 -4.78 -27.31 -4.98C-27.58 -5.18 -27.9 -5.28 -28.25 -5.28C-28.86 -5.28 -29.36 -5.08 -29.75 -4.69C-30.13 -4.29 -30.33 -3.77 -30.33 -3.13C-30.33 -2.01 -29.78 -1.14 -28.68 -0.53Z M-12.61 -0.96C-11.73 -0.06 -10.54 0.4 -9.04 0.4C-8.18 0.4 -7.44 0.28 -6.81 0.05C-6.19 -0.18 -5.68 -0.46 -5.28 -0.78C-4.88 -1.09 -4.37 -1.55 -3.73 -2.14L-3.66 -2.14L-3.66 -0.3C-3.66 -0.06 -3.65 0.12 -3.63 0.21C-3.61 0.31 -3.52 0.36 -3.37 0.36L1.95 0C2.32 -0.07 2.51 -0.25 2.51 -0.56C2.51 -0.98 2.32 -1.19 1.95 -1.19C0.21 -1.19 -0.66 -1.84 -0.66 -3.13L-0.66 -14.55C-0.66 -14.97 -0.84 -15.18 -1.19 -15.18L-1.29 -15.18C-1.48 -15.16 -1.74 -15.09 -2.05 -14.98C-3.04 -14.61 -4.22 -14.32 -5.61 -14.12C-5.79 -14.1 -5.92 -14.03 -6.01 -13.91C-6.09 -13.79 -6.14 -13.66 -6.14 -13.53C-6.14 -13.24 -6.07 -13.06 -5.94 -12.99C-5.81 -12.91 -5.61 -12.87 -5.35 -12.87C-4.77 -12.87 -4.37 -12.77 -4.12 -12.57C-3.88 -12.37 -3.75 -12.14 -3.71 -11.88C-3.68 -11.62 -3.66 -11.2 -3.66 -10.63L-3.66 -3.7C-3.91 -3.19 -4.39 -2.68 -5.11 -2.18C-5.84 -1.67 -6.72 -1.42 -7.75 -1.42C-8.59 -1.42 -9.33 -1.69 -9.97 -2.23C-10.6 -2.77 -10.92 -3.54 -10.92 -4.55L-10.92 -14.55C-10.92 -14.97 -11.1 -15.18 -11.45 -15.18L-11.55 -15.18C-11.75 -15.16 -12 -15.09 -12.31 -14.98C-13.3 -14.61 -14.49 -14.32 -15.87 -14.12C-16.05 -14.1 -16.18 -14.03 -16.27 -13.91C-16.36 -13.79 -16.4 -13.66 -16.4 -13.53C-16.4 -13.24 -16.33 -13.06 -16.2 -12.99C-16.07 -12.91 -15.87 -12.87 -15.61 -12.87C-15.04 -12.87 -14.63 -12.77 -14.39 -12.57C-14.15 -12.37 -14.01 -12.14 -13.98 -11.88C-13.94 -11.62 -13.93 -11.2 -13.93 -10.63L-13.93 -4.52C-13.93 -3.05 -13.49 -1.86 -12.61 -0.96Z M3.61 -0.1C3.71 0.03 3.84 0.1 3.99 0.1C5.29 0.03 6.43 0 7.43 0C8.46 0 9.61 0.03 10.89 0.1C11.07 0.1 11.2 0.03 11.29 -0.1C11.37 -0.23 11.42 -0.39 11.42 -0.56C11.4 -0.82 11.34 -0.99 11.25 -1.06C11.17 -1.12 11.03 -1.15 10.86 -1.15L10.66 -1.15C10.09 -1.15 9.68 -1.25 9.44 -1.45C9.2 -1.65 9.05 -1.88 9.01 -2.14C8.97 -2.41 8.94 -2.83 8.94 -3.4L8.94 -23.43C8.94 -23.85 8.77 -24.06 8.42 -24.06L8.32 -24.06C8.12 -24.03 7.86 -23.97 7.56 -23.86C6.57 -23.49 5.38 -23.2 3.99 -23C3.82 -22.98 3.69 -22.91 3.6 -22.79C3.51 -22.67 3.47 -22.54 3.47 -22.41C3.47 -22.12 3.53 -21.94 3.66 -21.86C3.8 -21.79 3.99 -21.75 4.26 -21.75C4.83 -21.75 5.24 -21.65 5.48 -21.45C5.72 -21.25 5.86 -21.02 5.89 -20.76C5.92 -20.49 5.94 -20.07 5.94 -19.5L5.94 -3.4C5.94 -2.83 5.92 -2.41 5.87 -2.14C5.83 -1.88 5.69 -1.65 5.45 -1.45C5.2 -1.25 4.8 -1.15 4.22 -1.15C3.94 -1.15 3.75 -1.13 3.65 -1.07C3.55 -1.02 3.49 -0.85 3.47 -0.56C3.47 -0.39 3.51 -0.23 3.61 -0.1Z M16.34 -0.63C17.1 0.17 18.03 0.56 19.11 0.56C19.88 0.56 20.54 0.49 21.1 0.35C21.66 0.2 22.26 -0.08 22.9 -0.49C23.03 -0.6 23.1 -0.7 23.1 -0.79C23.1 -0.86 23.09 -0.91 23.07 -0.96C22.98 -1.15 22.89 -1.31 22.8 -1.44C22.72 -1.56 22.59 -1.62 22.44 -1.62C22.37 -1.62 22.2 -1.56 21.91 -1.45C21.38 -1.21 20.78 -1.09 20.1 -1.09C19.41 -1.09 18.93 -1.33 18.63 -1.82C18.33 -2.3 18.18 -2.9 18.18 -3.63L18.18 -13.66L21.88 -13.56C21.99 -13.56 22.08 -13.67 22.16 -13.88C22.24 -14.09 22.28 -14.31 22.28 -14.55C22.28 -14.97 22.13 -15.18 21.85 -15.18L21.78 -15.18L17.92 -14.95L18.15 -18.71C18.15 -18.87 18.07 -18.98 17.92 -19.06C17.77 -19.13 17.61 -19.17 17.46 -19.17C17.08 -19.17 16.84 -19.03 16.73 -18.74C16.44 -17.91 16.2 -17.29 16.01 -16.88C15.81 -16.47 15.49 -16.1 15.06 -15.76C14.64 -15.42 14.04 -15.17 13.27 -15.01C13.11 -14.99 13 -14.91 12.92 -14.77C12.84 -14.62 12.8 -14.45 12.8 -14.26C12.8 -14.1 12.85 -13.96 12.94 -13.84C13.02 -13.72 13.13 -13.66 13.27 -13.66L15.18 -13.73L15.18 -4.03C15.18 -2.55 15.56 -1.42 16.34 -0.63Z M29.54 -0.68C30.7 0.04 32.03 0.4 33.53 0.4C34.72 0.4 35.9 0.07 37.09 -0.58C38.28 -1.23 39.26 -2.16 40.05 -3.38C40.83 -4.6 41.22 -6.04 41.22 -7.69C41.22 -9.01 40.89 -10.26 40.24 -11.43C39.59 -12.61 38.69 -13.56 37.52 -14.27C36.36 -14.99 35.02 -15.34 33.53 -15.34C32.32 -15.34 31.12 -15.02 29.93 -14.37C28.74 -13.72 27.76 -12.79 26.99 -11.57C26.22 -10.35 25.84 -8.91 25.84 -7.26C25.84 -5.94 26.16 -4.69 26.81 -3.51C27.46 -2.34 28.37 -1.39 29.54 -0.68ZM36.81 -2.74C36.12 -1.46 35.02 -0.82 33.53 -0.82C32.05 -0.82 30.96 -1.44 30.26 -2.66C29.56 -3.88 29.21 -5.43 29.21 -7.33C29.21 -9.35 29.55 -10.99 30.23 -12.24C30.91 -13.5 32.01 -14.12 33.53 -14.12C34.98 -14.12 36.06 -13.52 36.78 -12.33C37.49 -11.13 37.85 -9.58 37.85 -7.69C37.85 -5.67 37.5 -4.02 36.81 -2.74Z M43.61 -0.1C43.71 0.03 43.83 0.1 43.99 0.1C45.29 0.03 46.43 0 47.42 0C48.45 0 49.61 0.03 50.89 0.1C51.06 0.1 51.19 0.03 51.28 -0.1C51.37 -0.23 51.41 -0.39 51.41 -0.56C51.39 -0.82 51.34 -0.99 51.25 -1.06C51.16 -1.12 51.03 -1.15 50.85 -1.15L50.66 -1.15C50.08 -1.15 49.68 -1.25 49.43 -1.45C49.19 -1.65 49.05 -1.88 49.01 -2.14C48.96 -2.41 48.94 -2.83 48.94 -3.4L48.94 -11.45C49.49 -12 50.05 -12.46 50.62 -12.82C51.19 -13.18 51.67 -13.36 52.04 -13.36C52.39 -13.36 52.67 -13.24 52.88 -13C53.09 -12.76 53.2 -12.44 53.2 -12.04C53.2 -11.74 53.1 -11.47 52.9 -11.24C52.7 -11.01 52.59 -10.87 52.57 -10.82C52.59 -10.74 52.72 -10.63 52.95 -10.49C53.18 -10.36 53.45 -10.3 53.76 -10.3C54.42 -10.3 54.93 -10.54 55.31 -11.02C55.68 -11.51 55.87 -12.06 55.87 -12.67C55.87 -13.38 55.65 -14 55.23 -14.54C54.8 -15.08 54.22 -15.34 53.49 -15.34C52.85 -15.34 52.14 -15.12 51.35 -14.67C50.56 -14.22 49.77 -13.61 49.01 -12.84L48.91 -12.84L48.91 -14.88C48.91 -15.3 48.73 -15.51 48.38 -15.51L48.28 -15.51C48.15 -15.49 47.89 -15.42 47.52 -15.31C46.6 -14.96 45.42 -14.67 43.99 -14.45C43.81 -14.43 43.68 -14.36 43.59 -14.24C43.5 -14.12 43.46 -13.99 43.46 -13.86C43.46 -13.57 43.53 -13.39 43.66 -13.32C43.79 -13.24 43.99 -13.2 44.25 -13.2C44.83 -13.2 45.23 -13.1 45.47 -12.9C45.72 -12.7 45.85 -12.47 45.89 -12.21C45.92 -11.95 45.94 -11.53 45.94 -10.96L45.94 -3.4C45.94 -2.83 45.92 -2.41 45.89 -2.14C45.85 -1.88 45.72 -1.65 45.47 -1.45C45.23 -1.25 44.83 -1.15 44.25 -1.15C43.97 -1.15 43.77 -1.13 43.66 -1.07C43.55 -1.02 43.48 -0.85 43.46 -0.56C43.46 -0.39 43.51 -0.23 43.61 -0.1Z M57.63 -0.1C57.73 0.03 57.86 0.1 58.01 0.1C59.31 0.03 60.46 0 61.45 0C62.48 0 63.63 0.03 64.91 0.1C65.09 0.1 65.22 0.03 65.31 -0.1C65.39 -0.23 65.44 -0.39 65.44 -0.56C65.42 -0.82 65.36 -0.99 65.27 -1.06C65.19 -1.12 65.05 -1.15 64.88 -1.15L64.68 -1.15C64.11 -1.15 63.7 -1.25 63.46 -1.45C63.22 -1.65 63.07 -1.88 63.03 -2.14C62.99 -2.41 62.96 -2.83 62.96 -3.4L62.96 -14.88C62.96 -15.3 62.79 -15.51 62.44 -15.51L62.34 -15.51C62.14 -15.49 61.89 -15.42 61.58 -15.31C60.59 -14.94 59.4 -14.65 58.01 -14.45C57.84 -14.43 57.71 -14.36 57.62 -14.24C57.53 -14.12 57.49 -13.99 57.49 -13.86C57.49 -13.57 57.55 -13.39 57.68 -13.32C57.82 -13.24 58.01 -13.2 58.28 -13.2C58.85 -13.2 59.26 -13.1 59.5 -12.9C59.74 -12.7 59.88 -12.47 59.91 -12.21C59.94 -11.95 59.96 -11.53 59.96 -10.96L59.96 -3.4C59.96 -2.83 59.94 -2.41 59.91 -2.14C59.88 -1.88 59.74 -1.65 59.5 -1.45C59.26 -1.25 58.85 -1.15 58.28 -1.15C57.99 -1.15 57.79 -1.13 57.68 -1.07C57.57 -1.02 57.51 -0.85 57.49 -0.56C57.49 -0.39 57.54 -0.23 57.63 -0.1ZM60.09 -17.7C60.16 -17.58 60.25 -17.5 60.36 -17.46C60.49 -17.39 60.63 -17.36 60.79 -17.36C61.07 -17.36 61.34 -17.49 61.58 -17.75L64.94 -21.68C65.14 -21.92 65.24 -22.18 65.24 -22.44C65.24 -22.68 65.16 -22.91 65.01 -23.13C64.86 -23.35 64.66 -23.53 64.42 -23.66C64.15 -23.77 63.94 -23.83 63.79 -23.83C63.24 -23.83 62.84 -23.57 62.6 -23.07L60.13 -18.55C60.04 -18.39 59.99 -18.25 59.99 -18.12C59.99 -17.96 60.03 -17.83 60.09 -17.7Z M68.51 -0.73C69.32 0.02 70.39 0.4 71.71 0.4C72.81 0.4 73.84 0.17 74.79 -0.3C75.75 -0.76 76.46 -1.42 76.92 -2.28C77.01 -1.46 77.37 -0.81 78.01 -0.33C78.65 0.15 79.39 0.4 80.22 0.4C80.62 0.4 81.02 0.34 81.43 0.21C81.83 0.09 82.04 -0.1 82.04 -0.36C82.04 -0.58 82 -0.73 81.92 -0.79C81.85 -0.86 81.72 -0.89 81.54 -0.89C80.95 -0.89 80.52 -1.1 80.26 -1.52C79.99 -1.94 79.85 -2.38 79.83 -2.84L79.83 -10.53C79.83 -12.37 79.26 -13.64 78.13 -14.32C76.99 -15 75.53 -15.34 73.72 -15.34C72.27 -15.34 71.03 -15.07 70.01 -14.52C68.99 -13.97 68.47 -13.12 68.47 -11.98C68.47 -11.32 68.67 -10.75 69.05 -10.26C69.44 -9.78 69.96 -9.54 70.62 -9.54C71.02 -9.54 71.35 -9.64 71.63 -9.85C71.9 -10.06 72.04 -10.23 72.04 -10.36C72.04 -10.38 71.95 -10.47 71.76 -10.63C71.57 -10.78 71.4 -10.97 71.23 -11.2C71.07 -11.43 70.98 -11.73 70.98 -12.08C70.98 -12.78 71.24 -13.34 71.74 -13.76C72.25 -14.18 72.84 -14.39 73.52 -14.39C74.71 -14.39 75.58 -14.11 76.11 -13.55C76.65 -12.99 76.92 -12.17 76.92 -11.09L76.92 -8.48C74.9 -8.37 73.25 -8.21 71.97 -8C70.7 -7.79 69.6 -7.34 68.67 -6.65C67.75 -5.96 67.29 -4.92 67.29 -3.53C67.29 -2.41 67.69 -1.47 68.51 -0.73ZM74.84 -1.95C74.21 -1.57 73.51 -1.39 72.77 -1.39C71.34 -1.39 70.62 -2.13 70.62 -3.63C70.62 -4.91 71.09 -5.83 72.04 -6.4C72.99 -6.97 74.61 -7.35 76.92 -7.52L76.92 -5.64C76.92 -4.85 76.74 -4.13 76.36 -3.48C75.99 -2.83 75.48 -2.32 74.84 -1.95Z"></path></g></g></g></svg>