<?xml version="1.0" encoding="UTF-8"?>
<svg width="126px" height="148px" viewBox="0 0 126 148" version="1.1" xmlns="http://www.w3.org/2000/svg" xmlns:xlink="http://www.w3.org/1999/xlink">
    <!-- Generator: Sketch 63.1 (92452) - https://sketch.com -->
    <title>inveni_quehacemos_identificamos</title>
    <desc>Created with Sketch.</desc>
    <defs>
        <polygon id="path-1" points="0 0.292164935 119.398286 0.292164935 119.398286 117.699866 0 117.699866"></polygon>
        <polygon id="path-3" points="0.158733333 0.378416667 1.94806667 0.378416667 1.94806667 18.5013292 0.158733333 18.5013292"></polygon>
    </defs>
    <g id="Symbols" stroke="none" stroke-width="1" fill="none" fill-rule="evenodd">
        <g id="inveni_section_quehacemos" transform="translate(-94.000000, -159.000000)">
            <g id="inveni_quehacemos_identificamos" transform="translate(94.000000, 159.000000)">
                <path d="M59.5,78 C53.7105104,78 49,73.2893115 49,67.499603 C49,61.7098945 53.7105104,57 59.5,57 C65.2894896,57 70,61.7098945 70,67.499603 C70,73.2893115 65.2894896,78 59.5,78" id="Fill-1" fill="#B3648F"></path>
                <path d="M60,48.2729951 C48.5991379,48.2729951 39.3235453,57.3467917 39.3235453,68.4996212 C39.3235453,79.6532083 48.5991379,88.7270049 60,88.7270049 C71.4008621,88.7270049 80.6764547,79.6532083 80.6764547,68.4996212 C80.6764547,57.3467917 71.4008621,48.2729951 60,48.2729951 M60,91 C47.3173155,91 37,80.9063863 37,68.4996212 C37,56.0928561 47.3173155,46 60,46 C72.6826845,46 83,56.0928561 83,68.4996212 C83,80.9063863 72.6826845,91 60,91" id="Fill-3" fill="#4A4A4A"></path>
                <path d="M58.9965353,32.0672887 C39.1852111,32.0672887 23.0665188,48.1882908 23.0665188,68.0050046 C23.0665188,87.8155589 39.1852111,103.934251 58.9965353,103.934251 C78.8117092,103.934251 94.9334812,87.8155589 94.9334812,68.0050046 C94.9334812,58.4115532 91.1954229,49.3863174 84.4076325,42.5923675 C77.6136826,35.805347 68.5884468,32.0672887 58.9965353,32.0672887 M58.9965353,106 C38.0457,106 21,88.9558399 21,68.0050046 C21,47.0487797 38.0457,30 58.9965353,30 C69.1397238,30 78.6838991,33.9528716 85.8689785,41.1302515 C93.0471284,48.3161009 97,57.8602762 97,68.0050046 C97,88.9558399 79.9519902,106 58.9965353,106" id="Fill-5" fill="#4A4A4A"></path>
                <g id="Group-9" transform="translate(0.000000, 9.000000)">
                    <mask id="mask-2" fill="white">
                        <use xlink:href="#path-1"></use>
                    </mask>
                    <g id="Clip-8"></g>
                    <path d="M59.6990649,23.2316714 C39.6489351,23.2316714 23.3359481,39.275074 23.3359481,58.9963987 C23.3359481,78.7115935 39.6489351,94.7526974 59.6990649,94.7526974 C79.7530909,94.7526974 96.0691948,78.7115935 96.0691948,58.9963987 C96.0691948,49.449126 92.2860779,40.4673338 85.4164675,33.706087 C78.5406234,26.9517364 69.4065974,23.2316714 59.6990649,23.2316714 M59.6990649,96.8085026 C38.4956883,96.8085026 21.2445195,79.8463857 21.2445195,58.9963987 C21.2445195,38.1410481 38.4956883,21.1743338 59.6990649,21.1743338 C69.9645195,21.1743338 79.6237403,25.1081779 86.8954286,32.2510091 C94.1601039,39.4022688 98.1606234,48.9005026 98.1606234,58.9963987 C98.1606234,79.8463857 80.9071169,96.8085026 59.6990649,96.8085026 M59.6990649,2.34797013 C27.9341299,2.34797013 2.09127273,27.760113 2.09127273,58.9963987 C2.09127273,80.8447883 15.0832208,100.971451 35.1902338,110.27123 C37.8660779,111.519425 40.6891948,112.569165 43.5855584,113.393632 C48.7884156,114.886256 54.2094545,115.642529 59.6990649,115.642529 C65.3819221,115.642529 70.9977662,114.829555 76.3923117,113.225061 C79.1788052,112.403658 81.9473766,111.34549 84.6224416,110.080438 C104.477766,100.698671 117.306857,80.6478662 117.306857,58.9963987 C117.306857,43.8640481 111.314649,29.6381519 100.43439,18.9384636 C89.5541299,8.24030779 75.0878961,2.34797013 59.6990649,2.34797013 M59.6990649,117.699866 C54.0107532,117.699866 48.3933506,116.915243 43.0019221,115.368983 C40.0003636,114.513866 37.0704935,113.424282 34.2972468,112.130113 C13.464,102.49549 -0.000155844156,81.6393727 -0.000155844156,58.9963987 C-0.000155844156,26.6268532 26.7808831,0.292164935 59.6990649,0.292164935 C75.6465974,0.292164935 90.6388052,6.39751558 101.913351,17.4849182 C113.188675,28.573087 119.398286,43.3146584 119.398286,58.9963987 C119.398286,81.4324896 106.104,102.211983 85.5286753,111.933957 C82.7554286,113.245749 79.884,114.342996 76.9954286,115.194282 C71.4068571,116.856243 65.5876364,117.699866 59.6990649,117.699866" id="Fill-7" fill="#4A4A4A" mask="url(#mask-2)"></path>
                </g>
                <path d="M58.9965353,32.0672887 C39.1852111,32.0672887 23.0665188,48.1882908 23.0665188,68.0050046 C23.0665188,87.8155589 39.1852111,103.934251 58.9965353,103.934251 C78.8117092,103.934251 94.9334812,87.8155589 94.9334812,68.0050046 C94.9334812,58.4115532 91.1954229,49.3863174 84.4076325,42.5923675 C77.6136826,35.805347 68.5884468,32.0672887 58.9965353,32.0672887 M58.9965353,106 C38.0457,106 21,88.9558399 21,68.0050046 C21,47.0487797 38.0457,30 58.9965353,30 C69.1397238,30 78.6838991,33.9528716 85.8689785,41.1302515 C93.0471284,48.3161009 97,57.8602762 97,68.0050046 C97,88.9558399 79.9519902,106 58.9965353,106" id="Fill-10" fill="#4A4A4A"></path>
                <path d="M58.9411084,71 C58.7000138,71 58.4596821,70.9053262 58.2758092,70.715209 C57.9080636,70.3357443 57.9080636,69.7207497 58.2758092,69.3412849 L117.393592,8.28517584 C117.760575,7.90494139 118.356445,7.90494139 118.724191,8.28517584 C119.091936,8.6654103 119.091936,9.27963518 118.724191,9.65986964 L59.6064076,70.715209 C59.4225348,70.9053262 59.1822031,71 58.9411084,71" id="Fill-12" fill="#4A4A4A"></path>
                <g id="Group-16" transform="translate(108.000000, 0.000000)">
                    <mask id="mask-4" fill="white">
                        <use xlink:href="#path-3"></use>
                    </mask>
                    <g id="Clip-15"></g>
                    <path d="M1.0534,18.5013292 C0.5594,18.5013292 0.158733333,18.0247458 0.158733333,17.4389125 L0.158733333,1.44012083 C0.158733333,0.8542875 0.5594,0.377704167 1.0534,0.377704167 C1.5474,0.377704167 1.94806667,0.8542875 1.94806667,1.44012083 L1.94806667,17.4389125 C1.94806667,18.0247458 1.5474,18.5013292 1.0534,18.5013292" id="Fill-14" fill="#4A4A4A" mask="url(#mask-4)"></path>
                </g>
                <path d="M103,25 C102.447839,25 102,24.5274332 102,23.9447842 L102,8.0552158 C102,7.47256684 102.447839,7 103,7 C103.552161,7 104,7.47256684 104,8.0552158 L104,23.9447842 C104,24.5274332 103.552161,25 103,25" id="Fill-17" fill="#4A4A4A"></path>
                <path d="M124.944784,19 L109.055216,19 C108.472567,19 108,18.5515829 108,18.0003724 C108,17.4484171 108.472567,17 109.055216,17 L124.944784,17 C125.527433,17 126,17.4484171 126,18.0003724 C126,18.5515829 125.527433,19 124.944784,19" id="Fill-19" fill="#4A4A4A"></path>
                <path d="M118.944784,25 L103.055216,25 C102.471781,25 102,24.552161 102,24 C102,23.4485842 102.471781,23 103.055216,23 L118.944784,23 C119.527433,23 120,23.4485842 120,24 C120,24.552161 119.527433,25 118.944784,25" id="Fill-21" fill="#4A4A4A"></path>
                <path d="M77.198579,123.187885 C77.2805892,123.585019 77.4241071,123.96534 77.6267669,124.324843 L88.7659626,143.908551 C89.2753723,144.806908 90.0978401,145.448249 91.0811742,145.716475 C92.0629311,145.984701 93.0888474,145.846184 93.9696687,145.33055 C93.9704573,145.33055 93.9704573,145.329749 93.9712459,145.329749 C94.8544328,144.813314 95.4868578,143.979011 95.7502368,142.979768 C96.0144043,141.981327 95.8795606,140.936446 95.3701509,140.038889 L84.2293781,120.451978 C84.2230696,120.44157 84.2167612,120.431161 84.2112412,120.420752 C81.9188979,121.499261 79.5674126,122.427244 77.198579,123.187885 M92.0771252,148 C91.5614071,148 91.0433233,147.930341 90.5323366,147.791825 C89.0025306,147.374673 87.7242751,146.377032 86.9325611,144.982256 L75.7917883,125.396146 C75.2752816,124.479373 75.009537,123.483334 75.0000368,122.430446 C74.9961314,121.951643 75.3036698,121.528886 75.754726,121.391971 C78.5722501,120.534448 81.3732145,119.428716 84.0811289,118.106001 C84.5030084,117.900227 85.0068981,118.000312 85.322322,118.351808 C85.599895,118.661669 85.8411943,118.995551 86.0588368,119.371067 L97.2035525,138.964383 C97.9960551,140.35996 98.2050234,141.984529 97.7949723,143.537038 C97.3841327,145.090347 96.4023757,146.388241 95.0287045,147.192119 C94.1163409,147.726169 93.1030415,148 92.0771252,148" id="Fill-23" fill="#4A4A4A"></path>
                <path d="M33.6657128,120.455268 L22.6257004,139.985433 C21.5755856,141.848405 22.2036032,144.238587 24.0269054,145.311549 C24.9089703,145.831504 25.9354161,145.968547 26.9176798,145.700911 C27.9015214,145.43005 28.7244138,144.785145 29.2332973,143.88147 L40.3813982,124.160251 C40.554182,123.854727 40.6835725,123.533081 40.767203,123.198536 C38.3316625,122.436741 35.9505607,121.516138 33.6657128,120.455268 M25.9220037,148 C24.8947689,148 23.8817355,147.724303 22.9689009,147.185806 C20.1349322,145.517919 19.1574023,141.802455 20.7921415,138.903604 L31.9394535,119.182385 C32.0869903,118.917973 32.2637188,118.652756 32.4609605,118.402855 C32.7678686,118.014299 33.2964764,117.890155 33.7390867,118.10378 C36.4444539,119.416163 39.3036696,120.520564 42.2354702,121.387963 C42.7033275,121.526617 43.0181253,121.972409 42.9991901,122.469792 C42.9613197,123.457304 42.6978048,124.389193 42.2141681,125.242081 L31.0676452,144.961688 C30.2763115,146.36597 28.9973963,147.371217 27.4668007,147.790406 C26.9555502,147.929866 26.43641,148 25.9220037,148" id="Fill-25" fill="#4A4A4A"></path>
            </g>
        </g>
    </g>
</svg>