<?xml version="1.0" encoding="UTF-8"?>
<svg width="99px" height="137px" viewBox="0 0 99 137" version="1.1" xmlns="http://www.w3.org/2000/svg" xmlns:xlink="http://www.w3.org/1999/xlink">
    <!-- Generator: Sketch 63.1 (92452) - https://sketch.com -->
    <title>inveni_quehacemos_implementamos</title>
    <desc>Created with Sketch.</desc>
    <defs>
        <polygon id="path-1" points="0.000142446043 0.553567742 98.5826331 0.553567742 98.5826331 111 0.000142446043 111"></polygon>
        <polygon id="path-3" points="0.000142446043 0.6054475 98.5826331 0.6054475 98.5826331 28.4468975 0.000142446043 28.4468975"></polygon>
    </defs>
    <g id="Symbols" stroke="none" stroke-width="1" fill="none" fill-rule="evenodd">
        <g id="inveni_section_quehacemos" transform="translate(-748.000000, -164.000000)">
            <g id="inveni_quehacemos_implementamos" transform="translate(748.000000, 164.000000)">
                <g id="Group-3" transform="translate(0.000000, 26.000000)">
                    <mask id="mask-2" fill="white">
                        <use xlink:href="#path-1"></use>
                    </mask>
                    <g id="Clip-2"></g>
                    <path d="M1.7550777,2.31810968 L1.7550777,101.440394 C1.7550777,105.7386 5.23289784,109.235458 9.5077036,109.235458 L89.0759266,109.235458 C93.3507324,109.235458 96.8271281,105.7386 96.8271281,101.440394 L96.8271281,2.31810968 L1.7550777,2.31810968 Z M89.0759266,111 L9.5077036,111 C4.26497698,111 0.000142446043,106.711103 0.000142446043,101.440394 L0.000142446043,1.43583871 C0.000142446043,0.948870968 0.393293525,0.553567742 0.877610072,0.553567742 L97.7053079,0.553567742 C98.1896245,0.553567742 98.5827755,0.948870968 98.5827755,1.43583871 L98.5827755,101.440394 C98.5827755,106.711103 94.317941,111 89.0759266,111 L89.0759266,111 Z" id="Fill-1" fill="#4A4A4A" mask="url(#mask-2)"></path>
                </g>
                <g id="Group-6">
                    <mask id="mask-4" fill="white">
                        <use xlink:href="#path-3"></use>
                    </mask>
                    <g id="Clip-5"></g>
                    <path d="M1.7550777,26.6604975 L96.8271281,26.6604975 L96.8271281,10.2827475 C96.8271281,5.9312975 93.3507324,2.3911225 89.0759266,2.3911225 L9.5077036,2.3911225 C5.23289784,2.3911225 1.7550777,5.9312975 1.7550777,10.2827475 L1.7550777,26.6604975 Z M97.7053079,28.4468975 L0.877610072,28.4468975 C0.393293525,28.4468975 0.000142446043,28.0466975 0.000142446043,27.5529725 L0.000142446043,10.2827475 C0.000142446043,4.9467475 4.26497698,0.6054475 9.5077036,0.6054475 L89.0759266,0.6054475 C94.317941,0.6054475 98.5827755,4.9467475 98.5827755,10.2827475 L98.5827755,27.5529725 C98.5827755,28.0466975 98.1896245,28.4468975 97.7053079,28.4468975 L97.7053079,28.4468975 Z" id="Fill-4" fill="#4A4A4A" mask="url(#mask-4)"></path>
                </g>
                <path d="M14.9393084,70.738885 C13.1743119,70.738885 11.738885,72.1750176 11.738885,73.9400141 L11.738885,84.0606916 C11.738885,85.8249824 13.1743119,87.261115 14.9393084,87.261115 L25.0599859,87.261115 C26.8249824,87.261115 28.2604093,85.8249824 28.2604093,84.0606916 L28.2604093,73.9400141 C28.2604093,72.1750176 26.8249824,70.738885 25.0599859,70.738885 L14.9393084,70.738885 Z M25.0599859,89 L14.9393084,89 C12.2159492,89 10,86.7840508 10,84.0606916 L10,73.9400141 C10,71.2159492 12.2159492,69 14.9393084,69 L25.0599859,69 C27.7840508,69 30,71.2159492 30,73.9400141 L30,84.0606916 C30,86.7840508 27.7840508,89 25.0599859,89 L25.0599859,89 Z" id="Fill-7" fill="#4A4A4A"></path>
                <path d="M14.9393084,41.738885 C13.1743119,41.738885 11.738885,43.1743119 11.738885,44.9400141 L11.738885,55.0606916 C11.738885,56.8249824 13.1743119,58.2604093 14.9393084,58.2604093 L25.0599859,58.2604093 C26.8249824,58.2604093 28.2604093,56.8249824 28.2604093,55.0606916 L28.2604093,44.9400141 C28.2604093,43.1743119 26.8249824,41.738885 25.0599859,41.738885 L14.9393084,41.738885 Z M25.0599859,60 L14.9393084,60 C12.2159492,60 10,57.7840508 10,55.0606916 L10,44.9400141 C10,42.2159492 12.2159492,40 14.9393084,40 L25.0599859,40 C27.7840508,40 30,42.2159492 30,44.9400141 L30,55.0606916 C30,57.7840508 27.7840508,60 25.0599859,60 L25.0599859,60 Z" id="Fill-9" fill="#4A4A4A"></path>
                <path d="M14.9393084,100.739591 C13.1743119,100.739591 11.738885,102.175018 11.738885,103.940014 L11.738885,114.060692 C11.738885,115.825688 13.1743119,117.261115 14.9393084,117.261115 L25.0599859,117.261115 C26.8249824,117.261115 28.2604093,115.825688 28.2604093,114.060692 L28.2604093,103.940014 C28.2604093,102.175018 26.8249824,100.739591 25.0599859,100.739591 L14.9393084,100.739591 Z M25.0599859,119 L14.9393084,119 C12.2159492,119 10,116.784051 10,114.060692 L10,103.940014 C10,101.215949 12.2159492,99 14.9393084,99 L25.0599859,99 C27.7840508,99 30,101.215949 30,103.940014 L30,114.060692 C30,116.784051 27.7840508,119 25.0599859,119 L25.0599859,119 Z" id="Fill-11" fill="#4A4A4A"></path>
                <path d="M19.3966502,11.8004382 C17.9422802,11.8004382 16.7590882,13.0114429 16.7590882,14.5 C16.7590882,15.9885571 17.9422802,17.2002922 19.3966502,17.2002922 L78.6040635,17.2002922 C80.0584334,17.2002922 81.2416254,15.9885571 81.2416254,14.5 C81.2416254,13.0114429 80.0584334,11.8004382 78.6040635,11.8004382 L19.3966502,11.8004382 Z M78.6040635,19 L19.3966502,19 C16.9724624,19 15,16.9819023 15,14.5 C15,12.0188281 16.9724624,10 19.3966502,10 L78.6040635,10 C81.0275376,10 83,12.0188281 83,14.5 C83,16.9819023 81.0275376,19 78.6040635,19 L78.6040635,19 Z" id="Fill-13" fill="#4A4A4A"></path>
                <path d="M79.1284881,45 L39.8729279,45 C39.3907998,45 39,44.5521298 39,44.0004057 C39,43.4478702 39.3907998,43 39.8729279,43 L79.1284881,43 C79.6099081,43 80,43.4478702 80,44.0004057 C80,44.5521298 79.6099081,45 79.1284881,45" id="Fill-15" fill="#4A4A4A"></path>
                <path d="M79.1284881,57 L39.8729279,57 C39.3907998,57 39,56.5519481 39,56 C39,55.4480519 39.3907998,55 39.8729279,55 L79.1284881,55 C79.6099081,55 80,55.4480519 80,56 C80,56.5519481 79.6099081,57 79.1284881,57" id="Fill-17" fill="#4A4A4A"></path>
                <path d="M79.1284881,74 L39.8729279,74 C39.3907998,74 39,73.5519481 39,73 C39,72.4480519 39.3907998,72 39.8729279,72 L79.1284881,72 C79.6099081,72 80,72.4480519 80,73 C80,73.5519481 79.6099081,74 79.1284881,74" id="Fill-19" fill="#4A4A4A"></path>
                <path d="M79.1284881,86 L39.8729279,86 C39.3907998,86 39,85.5519481 39,85.0008117 C39,84.4480519 39.3907998,84 39.8729279,84 L79.1284881,84 C79.6099081,84 80,84.4480519 80,85.0008117 C80,85.5519481 79.6099081,86 79.1284881,86" id="Fill-21" fill="#4A4A4A"></path>
                <path d="M79.1284881,104 L39.8729279,104 C39.3907998,104 39,103.551948 39,103.000812 C39,102.448052 39.3907998,102 39.8729279,102 L79.1284881,102 C79.6099081,102 80,102.448052 80,103.000812 C80,103.551948 79.6099081,104 79.1284881,104" id="Fill-23" fill="#4A4A4A"></path>
                <path d="M79.1284881,115 L39.8729279,115 C39.3907998,115 39,114.551318 39,114.000406 C39,113.44787 39.3907998,113 39.8729279,113 L79.1284881,113 C79.6099081,113 80,113.44787 80,114.000406 C80,114.551318 79.6099081,115 79.1284881,115" id="Fill-25" fill="#4A4A4A"></path>
                <path d="M21.5633765,85 C21.4314027,85 21.2994289,84.9541393 21.1907446,84.8602341 L17.6288637,81.7781039 C17.5893422,81.7438903 17.5554665,81.706037 17.5272368,81.6638161 L10.2065731,75.32776 C9.96168052,75.1151993 9.92992212,74.7388504 10.1359988,74.4855246 L13.124817,70.811573 C13.2236209,70.6900058 13.3654751,70.6142992 13.5186212,70.5997403 C13.66965,70.5844534 13.8235018,70.6346817 13.9413608,70.7380503 L20.9310314,76.787295 L34.4135303,60.2148396 C34.51304,60.0932723 34.6541884,60.0168378 34.8073345,60.0022789 C34.9597748,59.9884479 35.1122151,60.0379483 35.230074,60.1405889 L38.7926606,63.2234471 C39.0382589,63.4360078 39.0700173,63.8130846 38.8646464,64.0664104 L22.007994,84.7859834 C21.8929581,84.9279332 21.7285201,85 21.5633765,85 L21.5633765,85 Z" id="Fill-27" fill="#B3648F"></path>
            </g>
        </g>
    </g>
</svg>