<?xml version="1.0" encoding="UTF-8"?>
<svg width="121px" height="143px" viewBox="0 0 121 143" version="1.1" xmlns="http://www.w3.org/2000/svg" xmlns:xlink="http://www.w3.org/1999/xlink">
    <!-- Generator: Sketch 63.1 (92452) - https://sketch.com -->
    <title>inveni_quehacemos_analizamos</title>
    <desc>Created with Sketch.</desc>
    <defs>
        <polygon id="path-1" points="0.0215818713 0.290558333 48.7934269 0.290558333 48.7934269 16.10835 0.0215818713 16.10835"></polygon>
        <polygon id="path-3" points="0.192821637 0.583454167 2.09167251 0.583454167 2.09167251 39.0254125 0.192821637 39.0254125"></polygon>
        <polygon id="path-5" points="0.442605263 0.0147333333 16.2437193 0.0147333333 16.2437193 20.193025 0.442605263 20.193025"></polygon>
        <polygon id="path-7" points="0.588088304 0.306779167 34.6413801 0.306779167 34.6413801 38.7487375 0.588088304 38.7487375"></polygon>
        <polygon id="path-9" points="0.0265350877 0.556891667 52.3314386 0.556891667 52.3314386 16.3746833 0.0265350877 16.3746833"></polygon>
    </defs>
    <g id="Symbols" stroke="none" stroke-width="1" fill="none" fill-rule="evenodd">
        <g id="inveni_section_quehacemos" transform="translate(-409.000000, -164.000000)">
            <g id="inveni_quehacemos_analizamos" transform="translate(409.000000, 164.000000)">
                <polygon id="Fill-1" fill="#B3648F" points="62 143 64 143 64 126 62 126"></polygon>
                <polygon id="Fill-2" fill="#B3648F" points="61 129 96 129 96 127 61 127"></polygon>
                <polygon id="Fill-3" fill="#B3648F" points="95 129 97 129 97 92 95 92"></polygon>
                <polygon id="Fill-4" fill="#B3648F" points="77 112 79 112 79 92 77 92"></polygon>
                <polygon id="Fill-5" fill="#B3648F" points="78 94 97 94 97 92 78 92"></polygon>
                <polygon id="Fill-6" fill="#B3648F" points="22 112 79 112 79 110 22 110"></polygon>
                <polygon id="Fill-7" fill="#B3648F" points="22 112 24 112 24 93 22 93"></polygon>
                <polygon id="Fill-8" fill="#B3648F" points="23 95 45 95 45 93 23 93"></polygon>
                <polygon id="Fill-9" fill="#B3648F" points="43 94 45 94 45 71 43 71"></polygon>
                <polygon id="Fill-10" fill="#B3648F" points="43 73 79 73 79 71 43 71"></polygon>
                <polygon id="Fill-11" fill="#B3648F" points="77 73 79 73 79 56 77 56"></polygon>
                <polygon id="Fill-12" fill="#B3648F" points="22 58 78 58 78 56 22 56"></polygon>
                <polygon id="Fill-13" fill="#B3648F" points="7 76 24 76 24 74 7 74"></polygon>
                <polygon id="Fill-14" fill="#B3648F" points="22 75 24 75 24 56 22 56"></polygon>
                <polygon id="Fill-15" fill="#B3648F" points="7 75 9 75 9 38 7 38"></polygon>
                <polygon id="Fill-16" fill="#B3648F" points="24 38 26 38 26 22 24 22"></polygon>
                <polygon id="Fill-17" fill="#B3648F" points="41 39 43 39 43 22 41 22"></polygon>
                <polygon id="Fill-18" fill="#B3648F" points="59 38 61 38 61 5 59 5"></polygon>
                <polygon id="Fill-19" fill="#B3648F" points="7 39 26 39 26 37 7 37"></polygon>
                <polygon id="Fill-20" fill="#B3648F" points="25 24 43 24 43 22 25 22"></polygon>
                <polygon id="Fill-21" fill="#B3648F" points="41 39 61 39 61 37 41 37"></polygon>
                <g id="Group-83">
                    <path d="M54.1538684,135.816683 L0.94995614,135.816683 C0.424915205,135.816683 0.00035380117,135.390975 0.00035380117,134.8661 L0.00035380117,102.679433 C0.00035380117,102.155267 0.424915205,101.72885 0.94995614,101.72885 L14.8522193,101.72885 C15.3765526,101.72885 15.8018216,102.155267 15.8018216,102.679433 L15.8018216,119.998892 L86.9158567,119.998892 L86.9158567,102.679433 C86.9158567,102.155267 87.3404181,101.72885 87.8654591,101.72885 C88.3897924,101.72885 88.8150614,102.155267 88.8150614,102.679433 L88.8150614,120.949475 C88.8150614,121.47435 88.3897924,121.900767 87.8654591,121.900767 L14.8522193,121.900767 C14.3271784,121.900767 13.902617,121.47435 13.902617,120.949475 L13.902617,103.630725 L1.89885088,103.630725 L1.89885088,133.915517 L54.1538684,133.915517 C54.6782018,133.915517 55.1034708,134.341225 55.1034708,134.8661 C55.1034708,135.390975 54.6782018,135.816683 54.1538684,135.816683" id="Fill-22" fill="#4A4A4A"></path>
                    <g id="Group-26" transform="translate(72.175439, 119.708333)">
                        <mask id="mask-2" fill="white">
                            <use xlink:href="#path-1"></use>
                        </mask>
                        <g id="Clip-25"></g>
                        <path d="M47.8441784,16.10835 L0.970476608,16.10835 C0.446143275,16.10835 0.0215818713,15.6826417 0.0215818713,15.1577667 C0.0215818713,14.6328917 0.446143275,14.2071833 0.970476608,14.2071833 L46.894576,14.2071833 L46.894576,1.24114167 C46.894576,0.716975 47.3191374,0.290558333 47.8441784,0.290558333 C48.3685117,0.290558333 48.7937807,0.716975 48.7937807,1.24114167 L48.7937807,15.1577667 C48.7937807,15.6826417 48.3685117,16.10835 47.8441784,16.10835" id="Fill-24" fill="#4A4A4A" mask="url(#mask-2)"></path>
                    </g>
                    <path d="M106.116646,121.900413 C105.592313,121.900413 105.167044,121.473996 105.167044,120.949121 L105.167044,84.4083292 C105.167044,83.8841625 105.592313,83.4584542 106.116646,83.4584542 C106.641687,83.4584542 107.066249,83.8841625 107.066249,84.4083292 L107.066249,120.949121 C107.066249,121.473996 106.641687,121.900413 106.116646,121.900413" id="Fill-27" fill="#4A4A4A"></path>
                    <path d="M69.6136351,103.630442 C69.0885942,103.630442 68.6640327,103.204025 68.6640327,102.67915 L68.6640327,84.4084 C68.6640327,83.8842333 69.0885942,83.4578167 69.6136351,83.4578167 C70.1379684,83.4578167 70.5632374,83.8842333 70.5632374,84.4084 L70.5632374,102.67915 C70.5632374,103.204025 70.1379684,103.630442 69.6136351,103.630442" id="Fill-29" fill="#4A4A4A"></path>
                    <g id="Group-33" transform="translate(118.877193, 82.875000)">
                        <mask id="mask-4" fill="white">
                            <use xlink:href="#path-3"></use>
                        </mask>
                        <g id="Clip-32"></g>
                        <path d="M1.14242398,39.0254125 C0.617383041,39.0254125 0.192821637,38.5989958 0.192821637,38.0741208 L0.192821637,1.53332917 C0.192821637,1.0091625 0.617383041,0.583454167 1.14242398,0.583454167 C1.66675731,0.583454167 2.09202632,1.0091625 2.09202632,1.53332917 L2.09202632,38.0741208 C2.09202632,38.5989958 1.66675731,39.0254125 1.14242398,39.0254125" id="Fill-31" fill="#4A4A4A" mask="url(#mask-4)"></path>
                    </g>
                    <path d="M106.116646,121.900413 C105.592313,121.900413 105.167044,121.473996 105.167044,120.949121 L105.167044,84.4083292 C105.167044,83.8841625 105.592313,83.4584542 106.116646,83.4584542 C106.641687,83.4584542 107.066249,83.8841625 107.066249,84.4083292 L107.066249,120.949121 C107.066249,121.473996 106.641687,121.900413 106.116646,121.900413" id="Fill-34" fill="#4A4A4A"></path>
                    <path d="M69.6136351,103.630442 L33.1034772,103.630442 C32.5791439,103.630442 32.1545825,103.204025 32.1545825,102.67915 C32.1545825,102.154983 32.5791439,101.728567 33.1034772,101.728567 L69.6136351,101.728567 C70.1379684,101.728567 70.5632374,102.154983 70.5632374,102.67915 C70.5632374,103.204025 70.1379684,103.630442 69.6136351,103.630442" id="Fill-36" fill="#4A4A4A"></path>
                    <path d="M87.865176,121.900413 L14.8519363,121.900413 C14.3276029,121.900413 13.9023339,121.473996 13.9023339,120.949121 L13.9023339,103.630371 L0.949673099,103.630371 C0.425339766,103.630371 7.07602339e-05,103.203954 7.07602339e-05,102.679079 L7.07602339e-05,84.4083292 C7.07602339e-05,83.8841625 0.425339766,83.4584542 0.949673099,83.4584542 L33.103831,83.4584542 C33.6288719,83.4584542 34.0534333,83.8841625 34.0534333,84.4083292 C34.0534333,84.9339125 33.6288719,85.3596208 33.103831,85.3596208 L1.89927544,85.3596208 L1.89927544,101.728496 L14.8519363,101.728496 C15.3769772,101.728496 15.8015386,102.154912 15.8015386,102.679079 L15.8015386,119.998537 L86.9155737,119.998537 L86.9155737,102.679079 C86.9155737,102.154912 87.3408427,101.728496 87.865176,101.728496 C88.390217,101.728496 88.8147784,102.154912 88.8147784,102.679079 L88.8147784,120.949121 C88.8147784,121.473996 88.390217,121.900413 87.865176,121.900413" id="Fill-38" fill="#4A4A4A"></path>
                    <path d="M33.1037602,85.3596917 C32.5794269,85.3596917 32.1541579,84.933275 32.1541579,84.4084 L32.1541579,66.131275 C32.1541579,65.6064 32.5794269,65.1814 33.1037602,65.1814 L51.3549474,65.1814 C51.8799883,65.1814 52.3052573,65.6064 52.3052573,66.131275 C52.3052573,66.65615 51.8799883,67.0818583 51.3549474,67.0818583 L34.0533626,67.0818583 L34.0533626,84.4084 C34.0533626,84.933275 33.6288012,85.3596917 33.1037602,85.3596917" id="Fill-40" fill="#4A4A4A"></path>
                    <path d="M69.6136351,103.630442 L33.1034772,103.630442 C32.5791439,103.630442 32.1545825,103.204025 32.1545825,102.67915 C32.1545825,102.154983 32.5791439,101.728567 33.1034772,101.728567 L68.6640327,101.728567 L68.6640327,84.6180667 C68.6640327,84.0931917 69.0885942,83.6674833 69.6136351,83.6674833 C70.1379684,83.6674833 70.5632374,84.0931917 70.5632374,84.6180667 L70.5632374,102.67915 C70.5632374,103.204025 70.1379684,103.630442 69.6136351,103.630442" id="Fill-42" fill="#4A4A4A"></path>
                    <path d="M14.8522193,67.0820708 C14.3271784,67.0820708 13.902617,66.6556542 13.902617,66.1314875 L13.902617,47.8614458 C13.902617,47.3365708 14.3271784,46.9108625 14.8522193,46.9108625 C15.3765526,46.9108625 15.8018216,47.3365708 15.8018216,47.8614458 L15.8018216,66.1314875 C15.8018216,66.6556542 15.3765526,67.0820708 14.8522193,67.0820708" id="Fill-44" fill="#4A4A4A"></path>
                    <path d="M33.1037602,85.3596917 L0.949602339,85.3596917 C0.425269006,85.3596917 0,84.933275 0,84.4084 L0,66.131275 C0,65.6064 0.425269006,65.1814 0.949602339,65.1814 C1.47393567,65.1814 1.89920468,65.6064 1.89920468,66.131275 L1.89920468,83.4578167 L32.1541579,83.4578167 L32.1541579,66.131275 C32.1541579,65.6064 32.5794269,65.1814 33.1037602,65.1814 L69.6139181,65.1814 C70.1382515,65.1814 70.5628129,65.6064 70.5628129,66.131275 C70.5628129,66.65615 70.1382515,67.0818583 69.6139181,67.0818583 L34.0533626,67.0818583 L34.0533626,84.4084 C34.0533626,84.933275 33.6288012,85.3596917 33.1037602,85.3596917" id="Fill-46" fill="#4A4A4A"></path>
                    <g id="Group-50" transform="translate(104.725146, 65.166667)">
                        <mask id="mask-6" fill="white">
                            <use xlink:href="#path-5"></use>
                        </mask>
                        <g id="Clip-49"></g>
                        <path d="M15.2944708,20.193025 C14.7694298,20.193025 14.3448684,19.7666083 14.3448684,19.2417333 L14.3448684,1.91519167 L2.34180994,1.91519167 L2.34180994,19.2417333 C2.34180994,19.7666083 1.91654094,20.193025 1.3922076,20.193025 C0.867166667,20.193025 0.442605263,19.7666083 0.442605263,19.2417333 L0.442605263,0.964608333 C0.442605263,0.439733333 0.867166667,0.0147333333 1.3922076,0.0147333333 L15.2944708,0.0147333333 C15.8188041,0.0147333333 16.2440731,0.439733333 16.2440731,0.964608333 L16.2440731,19.2417333 C16.2440731,19.7666083 15.8188041,20.193025 15.2944708,20.193025" id="Fill-48" fill="#4A4A4A" mask="url(#mask-6)"></path>
                    </g>
                    <path d="M106.117,85.3596917 C105.592667,85.3596917 105.167398,84.933275 105.167398,84.4084 L105.167398,66.131275 C105.167398,65.6064 105.592667,65.1814 106.117,65.1814 L119.069661,65.1814 L119.069661,48.8118167 L88.8147076,48.8118167 L88.8147076,66.131275 C88.8147076,66.65615 88.3901462,67.0818583 87.8651053,67.0818583 C87.3407719,67.0818583 86.9155029,66.65615 86.9155029,66.131275 L86.9155029,47.8619417 C86.9155029,47.3363583 87.3407719,46.9113583 87.8651053,46.9113583 L120.019263,46.9113583 C120.544304,46.9113583 120.968865,47.3363583 120.968865,47.8619417 L120.968865,66.131275 C120.968865,66.65615 120.544304,67.0818583 120.019263,67.0818583 L107.066602,67.0818583 L107.066602,84.4084 C107.066602,84.933275 106.641333,85.3596917 106.117,85.3596917" id="Fill-51" fill="#4A4A4A"></path>
                    <path d="M69.6136351,67.0820708 L51.3553719,67.0820708 C50.8310386,67.0820708 50.4057696,66.6556542 50.4057696,66.1314875 C50.4057696,65.6066125 50.8310386,65.1809042 51.3553719,65.1809042 L69.6136351,65.1809042 C70.1379684,65.1809042 70.5632374,65.6066125 70.5632374,66.1314875 C70.5632374,66.6556542 70.1379684,67.0820708 69.6136351,67.0820708" id="Fill-53" fill="#4A4A4A"></path>
                    <path d="M106.117,85.3596917 L51.355655,85.3596917 C50.8313216,85.3596917 50.4060526,84.933275 50.4060526,84.4084 C50.4060526,83.8842333 50.8313216,83.4578167 51.355655,83.4578167 L106.117,83.4578167 C106.641333,83.4578167 107.066602,83.8842333 107.066602,84.4084 C107.066602,84.933275 106.641333,85.3596917 106.117,85.3596917" id="Fill-55" fill="#4A4A4A"></path>
                    <path d="M69.6136351,48.8120292 C69.0885942,48.8120292 68.6640327,48.3856125 68.6640327,47.8614458 L68.6640327,29.5906958 C68.6640327,29.0658208 69.0885942,28.6401125 69.6136351,28.6401125 L87.8648222,28.6401125 C88.3898632,28.6401125 88.8151322,29.0658208 88.8151322,29.5906958 C88.8151322,30.1155708 88.3898632,30.5412792 87.8648222,30.5412792 L70.5632374,30.5412792 L70.5632374,47.8614458 C70.5632374,48.3856125 70.1379684,48.8120292 69.6136351,48.8120292" id="Fill-57" fill="#4A4A4A"></path>
                    <g id="Group-61" transform="translate(86.327485, 28.333333)">
                        <mask id="mask-8" fill="white">
                            <use xlink:href="#path-7"></use>
                        </mask>
                        <g id="Clip-60"></g>
                        <path d="M1.53769064,38.7487375 C1.01335731,38.7487375 0.588088304,38.3223208 0.588088304,37.7981542 L0.588088304,19.5281125 C0.588088304,19.0032375 1.01335731,18.5775292 1.53769064,18.5775292 L32.7422462,18.5775292 L32.7422462,1.2573625 C32.7422462,0.7324875 33.1675152,0.306779167 33.6918485,0.306779167 C34.2168895,0.306779167 34.6414509,0.7324875 34.6414509,1.2573625 L34.6414509,19.5281125 C34.6414509,20.0522792 34.2168895,20.4786958 33.6918485,20.4786958 L2.48729298,20.4786958 L2.48729298,37.7981542 C2.48729298,38.3223208 2.06273158,38.7487375 1.53769064,38.7487375" id="Fill-59" fill="#4A4A4A" mask="url(#mask-8)"></path>
                    </g>
                    <path d="M0.949602339,48.8120292 C0.425269006,48.8120292 0,48.3856125 0,47.8614458 L0,29.5906958 C0,29.0658208 0.425269006,28.6401125 0.949602339,28.6401125 L14.8518655,28.6401125 C15.3769064,28.6401125 15.8014678,29.0658208 15.8014678,29.5906958 C15.8014678,30.1155708 15.3769064,30.5412792 14.8518655,30.5412792 L1.89920468,30.5412792 L1.89920468,47.8614458 C1.89920468,48.3856125 1.47393567,48.8120292 0.949602339,48.8120292" id="Fill-62" fill="#4A4A4A"></path>
                    <path d="M69.6136351,48.8120292 L14.8522901,48.8120292 C14.3272491,48.8120292 13.9026877,48.3856125 13.9026877,47.8614458 C13.9026877,47.3365708 14.3272491,46.9108625 14.8522901,46.9108625 L68.6640327,46.9108625 L68.6640327,15.6740708 C68.6640327,15.1491958 69.0885942,14.7234875 69.6136351,14.7234875 C70.1379684,14.7234875 70.5632374,15.1491958 70.5632374,15.6740708 L70.5632374,47.8614458 C70.5632374,48.3856125 70.1379684,48.8120292 69.6136351,48.8120292" id="Fill-64" fill="#4A4A4A"></path>
                    <path d="M51.3555842,30.54135 C50.8312509,30.54135 50.4059819,30.1156417 50.4059819,29.5907667 L50.4059819,15.6741417 C50.4059819,15.1492667 50.8312509,14.7235583 51.3555842,14.7235583 C51.8799175,14.7235583 52.3051865,15.1492667 52.3051865,15.6741417 L52.3051865,29.5907667 C52.3051865,30.1156417 51.8799175,30.54135 51.3555842,30.54135" id="Fill-66" fill="#4A4A4A"></path>
                    <g id="Group-70" transform="translate(68.637427, 14.166667)">
                        <mask id="mask-10" fill="white">
                            <use xlink:href="#path-9"></use>
                        </mask>
                        <g id="Clip-69"></g>
                        <path d="M51.3821901,16.3746833 C50.8571491,16.3746833 50.4325877,15.948975 50.4325877,15.4241 L50.4325877,2.45805833 L0.976137427,2.45805833 C0.451096491,2.45805833 0.0265350877,2.03235 0.0265350877,1.507475 C0.0265350877,0.9826 0.451096491,0.556891667 0.976137427,0.556891667 L51.3821901,0.556891667 C51.9065234,0.556891667 52.3317924,0.9826 52.3317924,1.507475 L52.3317924,15.4241 C52.3317924,15.948975 51.9065234,16.3746833 51.3821901,16.3746833" id="Fill-68" fill="#4A4A4A" mask="url(#mask-10)"></path>
                    </g>
                    <path d="M86.7574953,30.54135 L69.6137058,30.54135 C69.0886649,30.54135 68.6641035,30.1156417 68.6641035,29.5907667 C68.6641035,29.0658917 69.0886649,28.6401833 69.6137058,28.6401833 L86.7574953,28.6401833 C87.2818287,28.6401833 87.7070977,29.0658917 87.7070977,29.5907667 C87.7070977,30.1156417 87.2818287,30.54135 86.7574953,30.54135" id="Fill-71" fill="#4A4A4A"></path>
                    <path d="M0.949602339,30.54135 C0.425269006,30.54135 0,30.1156417 0,29.5907667 L0,15.6741417 C0,15.1492667 0.425269006,14.7235583 0.949602339,14.7235583 L51.3549474,14.7235583 C51.8799883,14.7235583 52.3052573,15.1492667 52.3052573,15.6741417 C52.3052573,16.1990167 51.8799883,16.624725 51.3549474,16.624725 L1.89920468,16.624725 L1.89920468,29.5907667 C1.89920468,30.1156417 1.47393567,30.54135 0.949602339,30.54135" id="Fill-73" fill="#4A4A4A"></path>
                    <path d="M0.949602339,67.0820708 C0.425269006,67.0820708 0,66.6556542 0,66.1314875 L0,47.8614458 C0,47.3365708 0.425269006,46.9108625 0.949602339,46.9108625 C1.47393567,46.9108625 1.89920468,47.3365708 1.89920468,47.8614458 L1.89920468,66.1314875 C1.89920468,66.6556542 1.47393567,67.0820708 0.949602339,67.0820708" id="Fill-75" fill="#4A4A4A"></path>
                    <path d="M33.1037602,48.8120292 C32.5794269,48.8120292 32.1541579,48.3856125 32.1541579,47.8614458 L32.1541579,29.5906958 C32.1541579,29.0658208 32.5794269,28.6401125 33.1037602,28.6401125 C33.6288012,28.6401125 34.0533626,29.0658208 34.0533626,29.5906958 L34.0533626,47.8614458 C34.0533626,48.3856125 33.6288012,48.8120292 33.1037602,48.8120292" id="Fill-77" fill="#4A4A4A"></path>
                    <path d="M106.116646,48.8120292 C105.592313,48.8120292 105.167044,48.3856125 105.167044,47.8614458 L105.167044,29.5906958 C105.167044,29.0658208 105.592313,28.6401125 106.116646,28.6401125 C106.641687,28.6401125 107.066249,29.0658208 107.066249,29.5906958 L107.066249,47.8614458 C107.066249,48.3856125 106.641687,48.8120292 106.116646,48.8120292" id="Fill-79" fill="#4A4A4A"></path>
                    <polygon id="Fill-81" fill="#B3648F" points="63.4995263 6.99202917 56.2388187 6.9438625 59.9112749 0.673695833"></polygon>
                </g>
            </g>
        </g>
    </g>
</svg>